<?xml version="1.0" encoding="UTF-8" standalone="no"?>
<!-- Created with Inkscape (http://www.inkscape.org/) -->

<svg
   xmlns:dc="http://purl.org/dc/elements/1.1/"
   xmlns:cc="http://creativecommons.org/ns#"
   xmlns:rdf="http://www.w3.org/1999/02/22-rdf-syntax-ns#"
   xmlns:svg="http://www.w3.org/2000/svg"
   xmlns="http://www.w3.org/2000/svg"
   xmlns:sodipodi="http://sodipodi.sourceforge.net/DTD/sodipodi-0.dtd"
   xmlns:inkscape="http://www.inkscape.org/namespaces/inkscape"
   width="744.09448819"
   height="1052.3622047"
   id="svg2"
   version="1.1"
   inkscape:version="0.48.4 r9939"
   sodipodi:docname="a_vectorizar.svg">
  <defs
     id="defs4">
    <inkscape:path-effect
       effect="spiro"
       id="path-effect3844"
       is_visible="true" />
  </defs>
  <sodipodi:namedview
     id="base"
     pagecolor="#ffffff"
     bordercolor="#666666"
     borderopacity="1.0"
     inkscape:pageopacity="0.0"
     inkscape:pageshadow="2"
     inkscape:zoom="0.64"
     inkscape:cx="379.41016"
     inkscape:cy="533.65104"
     inkscape:document-units="px"
     inkscape:current-layer="layer1"
     showgrid="false"
     inkscape:window-width="1280"
     inkscape:window-height="776"
     inkscape:window-x="0"
     inkscape:window-y="24"
     inkscape:window-maximized="1"
     inkscape:snap-smooth-nodes="false"
     inkscape:snap-page="true"
     showborder="true" />
  <metadata
     id="metadata7">
    <rdf:RDF>
      <cc:Work
         rdf:about="">
        <dc:format>image/svg+xml</dc:format>
        <dc:type
           rdf:resource="http://purl.org/dc/dcmitype/StillImage" />
        <dc:title></dc:title>
      </cc:Work>
    </rdf:RDF>
  </metadata>
  <g
     inkscape:label="Layer 1"
     inkscape:groupmode="layer"
     id="layer1">
    <path
       style="fill:#000000"
       d=""
       id="path2994"
       inkscape:connector-curvature="0" />
    <path
       style="fill:#000000"
       d=""
       id="path2990"
       inkscape:connector-curvature="0" />
    <path
       style="fill:#000000"
       d=""
       id="path2988"
       inkscape:connector-curvature="0" />
    <path
       style="fill:#000000"
       d=""
       id="path3007"
       inkscape:connector-curvature="0" />
    <path
       style="fill:#ffffff"
       d="m 396.70205,997.4992 c -0.55,-0.1367 -2.2029,-0.5127 -3.673,-0.8356 -1.4701,-0.323 -4.0469,-1.7434 -5.7263,-3.1565 l -3.0534,-2.5692 -3.5958,2.7426 c -5.3924,4.113 -12.8946,4.4978 -18.9143,0.97 -5.6918,-3.3356 -10.5141,-11.1769 -10.5279,-17.1189 -0.014,-5.933 5.0501,-13.6174 13.9907,-21.2305 4.125,-3.5126 10.0909,-8.8252 13.2576,-11.8059 3.1667,-2.9806 6.3476,-5.4194 7.0687,-5.4194 2.4727,0 27.2587,25.2375 29.5279,30.0658 3.9414,8.3865 1.9548,17.3826 -5.2321,23.6928 -2.0304,1.7828 -4.0136,3.2521 -4.4069,3.2653 -0.3934,0.013 -2.2902,0.3892 -4.2152,0.8358 -1.925,0.4467 -3.95,0.7003 -4.5,0.5637 z m 10.25,-11.8898 c 7.0806,-7.6344 3.4438,-15.4035 -14.7691,-31.5504 l -6.6641,-5.9082 -10.3802,8.7422 c -12.0094,10.1144 -16.9366,16.0231 -16.9366,20.3102 0,6.6758 5.9822,12.8726 12.4267,12.8726 2.831,0 4.5618,-0.87 7.9574,-4 5.2467,-4.8362 7.7988,-5.0404 10.8359,-0.867 4.8046,6.602 11.6337,6.7581 17.53,0.4006 z m 485.25,-6.6315 c -5.3151,-1.038 -15.3993,-5.9214 -19.1627,-9.2798 -16.4869,-14.7124 -19.0258,-40.6562 -6.1195,-62.53311 4.6586,-7.8967 13.5227,-17.0539 22.7821,-23.5355 3.85,-2.6951 7.3771,-5.2217 7.838,-5.6149 1.9389,-1.6538 -33.5244,-11.7508 -49.1499,-13.9938 -12.4977,-1.794 -34.8902,-0.7611 -43.688,2.0152 -8.2713,2.6103 -18.32,7.8779 -24.2563,12.7155 -4.846,3.9491 -7.6015,4.0267 -8.0446,0.2267 -0.2448,-2.0999 0.6866,-3.3306 5,-6.6065 10.5454,-8.0089 21.9041,-12.9146 35.464,-15.3164 11.1417,-1.9734 36.0761,-0.7459 49.8368,2.4535 12.3337,2.8676 31.0054,8.5558 39.8645,12.1444 l 5.8645,2.3756 7.6355,-6.5569 c 4.1995,-3.6063 10.2177,-8.1564 13.3737,-10.1114 l 5.7382,-3.5544 -2.0384,-3.6268 c -3.4372,-6.1157 -13.6315,-17.8071 -20.356,-23.3454 -21.9984,-18.11814 -49.1936,-27.4636 -85.6179,-29.42212 l -11.6021,-0.62384 -1.3633,3.39394 c -1.5768,3.92563 -25.5732,28.30672 -34.4986,35.05162 -8.6061,6.5037 -25.3904,16.4438 -37,21.9125 -18.9788,8.9398 -38.6203,13.607 -53,12.5938 -7.9992,-0.5636 -17.7862,-3.311 -22.2773,-6.2537 -1.3114,-0.8592 -3.0019,-1.3252 -3.7568,-1.0356 -2.25,0.8634 -26.0424,18.361 -39.4659,29.0243 -23.9041,18.9887 -39.4858,33.67651 -43.6072,41.10531 -1.4702,2.6502 -4.4538,3.1328 -6.0312,0.9755 -1.0547,-1.4423 -0.9288,-2.4078 0.7402,-5.6794 4.9182,-9.64041 40.5025,-40.35531 75.6461,-65.29451 7.3887,-5.2434 8.0967,-6.0201 6.7967,-7.4566 -2.1353,-2.3595 -6.3022,-11.9704 -7.1029,-16.3827 -0.6026,-3.321 -0.9794,-3.748 -2.8186,-3.1941 -12.7444,3.8376 -31.1014,7.7426 -42.7736,9.0989 -16.5238,1.9201 -26.1738,1.6061 -53.8495,-1.7524 -15.1335,-1.8365 -23.6862,-2.2475 -47,-2.2588 -26.0249,-0.013 -29.4097,0.1852 -38.9744,2.2777 -12.4365,2.7207 -25.6516,7.5223 -33.7017,12.2453 -7.6005,4.4591 -22.1448,18.9341 -26.041,25.9168 -3.6949,6.622 -5.2848,13.6414 -5.2774,23.2993 0.01,9.0258 1.2199,13.4511 4.9854,18.1893 2.3562,2.96491 2.7558,4.11611 1.9509,5.62011 -1.2524,2.34 -2.3287,2.3666 -6.0812,0.1499 -2.1099,-1.2463 -4.6055,-5.01361 -8.7776,-13.25001 -3.2063,-6.3297 -6.3948,-13.2667 -7.0857,-15.4156 l -1.2561,-3.907 -2.2162,5.407 c -6.3078,15.3899 -13.8114,26.90701 -17.5303,26.90701 -0.7825,0 -3.9947,-2.7613 -3.9947,-3.4339 0,-0.1601 1.3437,-1.98201 2.9861,-4.04861 1.6424,-2.0667 3.4399,-5.3911 3.9944,-7.3875 1.4132,-5.0877 1.2379,-17.5693 -0.341,-24.2774 -4.5146,-19.1806 -27.033,-38.4203 -53.5658,-45.7667 -20.9104,-5.7896 -52.3964,-6.9189 -88.0737,-3.1589 -41.2131,4.3434 -41.3765,4.3526 -55.2961,3.1225 -15.2081,-1.3439 -29.7983,-3.9859 -41.7235,-7.5553 -4.5831,-1.3718 -8.632,-2.4942 -8.9975,-2.4942 -0.3656,0 -1.207,2.4234 -1.8699,5.3853 -0.6628,2.9619 -2.7102,7.8847 -4.5497,10.9395 l -3.3446,5.5542 3.6495,2.4151 c 18.5995,12.3086 56.1987,42.6195 69.642,56.1423 9.849,9.9074 12.9664,14.80451 11.3485,17.82751 -1.4656,2.7386 -5.0806,1.7924 -6.739,-1.7639 -1.7704,-3.7963 -16.6013,-18.51011 -29.6197,-29.38561 -11.7837,-9.8441 -49.0173,-37.9373 -52.2063,-39.3903 -1.659,-0.7559 -2.8205,-0.609 -4.647,0.5878 -8.3253,5.455 -23.4357,7.5672 -38.152,5.333 -24.1225,-3.6622 -56.8177007,-19.3152 -78.866801,-37.7579 -11.688,-9.77627 -27.1163,-25.74609 -29.3029,-30.33144 l -1.6955,-3.55553 -7.0648,0.0173 c -23.6469,0.058 -51.067499,6.42017 -69.901399,16.21865 -15.8543,8.24828 -30.2956,20.94892 -38.8351,34.15432 l -3.8091,5.8902 7.7404,5.3004 c 4.2573,2.9153 10.2034,7.5091 13.2136,10.2085 l 5.4731,4.908 8.0269,-2.9697 c 55.234599,-20.4353 94.222399,-20.222 122.3390993,0.6696 5.3698,3.9899 6.2655,5.0929 6,7.3879 -0.4704,4.0643 -3.0973,3.8265 -8.9649003,-0.8116 -19.2868,-15.2453 -45.6637,-19.1553 -79.8473,-11.8363 -8.621199,1.8459 -36.999999,10.5133 -36.999999,11.3005 0,0.18 3.0213,2.2927 6.714,4.6948 23.935599,15.5699 36.993499,41.4436 31.886099,63.18121 -2.3055,9.8125 -6.179,16.9978 -12.267399,22.756 -7.6133,7.2004 -14.7607,10.2227 -25.4,10.7404 -7.5964,0.3697 -9.2961,0.1113 -15,-2.2806 -3.538,-1.4837 -9.1327,-3.5956 -12.4327,-4.693 -19.9974,-6.6505 -29.1087,-15.5815 -33.0876,-32.4328 -1.2732,-5.3922 -1.5212,-10.1473 -1.1326,-21.71801 0.3649,-10.8647 0.1939,-14.6815 -0.6412,-14.3161 -38.2277,16.7257 -63.3119,22.6303 -96.1386,22.6303 -23.8395,0 -45.0984,-3.2993 -68.7664,-10.6722 -10.3903,-3.2368 -11.9105,-3.4875 -13,-2.1441 -7.2287,8.914 -16.6679,22.06841 -21.0594,29.34821 -4.3837,7.267 -5.8618,8.9681 -7.7921,8.9681 -6.0821,0 -0.8931,-10.921 15.345,-32.29531 l 7.8213,-10.2954 -5.2742,-2.1347 c -10.0068,-4.0502 -31.4694,-15.4254 -41.3576,-21.9196 -20.4573,-13.4355 -31.8519,-24.2251 -31.235,-29.5766 0.4106,-3.5613 3.1835,-4.1105 5.5178,-1.0929 3.039,3.9285 13.9886,14.3096 16.5253,15.6672 2.2384,1.198 3.1768,0.7341 13.5819,-6.7142 34.1672,-24.4582 82.6717,-46.91506 117.1934,-54.25902 14.0158,-2.98165 40.247,-3.25884 52.8747,-0.55874 26.082,5.57696 46.5388,15.76046 66.2143,32.96196 l 8.5297,7.4572 3.9198,-6.1199 c 5.4955,-8.5801 19.3908,-22.17095 29.543,-28.89579 32.7947,-21.72328 79.251099,-28.92286 126.808599,-19.65217 27.1524,5.293 54.117001,18.2358 98.495101,47.27686 l 16.8852,11.0497 2.2541,-2.8269 c 2.4808,-3.1112 5.4755,-11.4327 5.4755,-15.2151 0,-2.0094 -1.047,-2.861 -6.25,-5.0835 -30.6554,-13.09479 -49.0023,-28.49093 -51.335,-43.07873 -2.604,-16.28481 20.532,-26.81525 39.0304,-17.76483 6.8717,3.36199 14.0815,11.19143 18.3244,19.89901 3.4766,7.13508 7.2025,20.86717 7.2368,26.67148 0.047,8.01017 -0.8066,7.59867 18.7077,9.01557 29.4355,2.1373 44.2055,0.5622 74.622,-7.9578 35.4544,-9.93115 53.1653,-13.04306 74.2827,-13.05187 22.9658,-0.01 39.7677,3.96827 59.4372,14.07183 17.3542,8.91424 29.638,19.96734 36.1509,32.52884 l 3.234,6.2375 3.4575,-6.172 c 6.2915,-11.2312 19.8487,-22.9963 35.6776,-30.96139 17.974,-9.04456 37.6708,-13.71068 57.8763,-13.71068 21.2219,0 36.3634,2.60006 72.5475,12.45763 12.925,3.52114 26.875,6.97944 31,7.68514 7.6574,1.31 35.5171,1.7564 53.5,0.8572 11.1671,-0.5583 11.2053,-0.5871 11.4003,-8.59001 0.1509,-6.19108 3.7283,-19.06623 7.4769,-26.90996 4.6049,-9.63516 10.2818,-15.71483 18.4074,-19.71325 5.9561,-2.93087 7.5475,-3.27623 14.6974,-3.18955 14.6777,0.17793 24.5198,7.65294 24.5172,18.62068 0,8.3489 -9.456,20.89101 -22.431,29.75801 -5.4366,3.71533 -24.6395,13.73908 -31.3182,16.34778 -3.3065,1.2916 -4.25,2.1766 -4.25,3.9867 0,3.9731 2.8545,12.0493 5.3526,15.1438 l 2.3848,2.9542 13.8813,-9.101 c 40.3541,-26.45757 69.1356,-41.2404 91.0488,-46.76466 65.6563,-16.55184 132.6573,0.42337 163.005,41.29856 3.2051,4.3169 6.3686,8.7062 7.0298,9.7538 1.1705,1.8545 1.25,1.8481 3,-0.2405 0.9888,-1.18 4.4977,-4.4934 7.7977,-7.3631 17.9167,-15.5805 41.3333,-26.94106 65.23005,-31.64631 13.2551,-2.60991 36.5387,-2.38128 51.0974,0.50174 36.3491,7.19813 90.3504,32.72637 124.2852,58.75377 l 5.6127,4.3049 6.3873,-5.2732 c 3.513,-2.9003 8.1873,-7.4083 10.3873,-10.0178 4.4713,-5.3037 7.5,-5.5813 7.5,-0.6876 0,5.1679 -12.8516,17.1251 -31.5,29.3078 -8.7691,5.7287 -36.7296,20.3016 -43.2616,22.5477 l -3.2616,1.1216 7.9587,10.5715 c 4.3772,5.81431 10.2636,14.38741 13.0807,19.05121 5.5864,9.2486 6.19,12.9732 2.1024,12.9732 -1.9258,0 -3.4313,-1.7221 -7.8681,-9 -5.7049,-9.3581 -17.6548,-25.76471 -20.888,-28.67831 -1.753,-1.5797 -2.5348,-1.4745 -13.2992,1.7892 -24.8598,7.5374 -43.9916,10.39781 -69.3645,10.37081 -33.484,-0.036 -55.27825,-5.04461 -92.83395,-21.33571 l -3.6352,-1.5769 0.4941,14.7155 c 0.7008,20.87501 -1.8869,30.85591 -10.4598,40.34511 -4.9607,5.4909 -10.6896,9.2696 -17.2639,11.3871 -3.025,0.9743 -9.1,3.2707 -13.5,5.1031 -12.4588,5.1885 -16.9755,5.9469 -25.5,4.2822 z m 16.3353,-8.0815 c 1.8666,-0.999 1.7952,-1.1463 -1.157,-2.3877 -4.3035,-1.8094 -12.8044,-9.9387 -15.8785,-15.1843 -9.2015,-15.7012 -8.2872,-35.84771 2.6096,-57.49861 2.6989,-5.3625 4.5989,-9.75 4.2221,-9.75 -0.3767,0 -4.3514,2.8992 -8.8325,6.4426 -23.9119,18.9081 -30.8078,46.34291 -16.748,66.63121 3.5004,5.051 11.6345,10.5098 18.449,12.381 5.7483,1.5785 13.7476,1.2858 17.3353,-0.6342 z m -1026.113,-3.5599 c 7.5408,-3.3063 14.7239,-10.8958 17.779899,-18.7859 3.2459,-8.3802 3.2564,-21.5061 0.024,-29.97481 -4.596499,-12.0429 -13.917499,-23.5129 -25.689599,-31.6123 -2.3084,-1.5882 -4.3852,-2.8877 -4.6151,-2.8877 -0.2298,0 1.761,4.3875 4.424,9.75 10.4189,20.9801 11.6555,39.92811 3.6336,55.67671 -2.8398,5.575 -11.0729,13.9511 -15.8149,16.0894 -4.6573,2.1002 -4.1217,3.2008 2.1074,4.3304 6.1327,1.1121 11.4416,0.3558 18.1506,-2.5858 z m 1050.3712,-5.814 c 7.049,-3.3777 12.1305,-8.6472 15.7941,-16.3784 3.0528,-6.4428 3.1124,-6.8548 3.1124,-21.56831 0,-8.25 -0.3572,-17.085 -0.7938,-19.6334 l -0.7938,-4.6335 -18.4506,-8.1165 c -10.1478,-4.4641 -19.0897,-8.1166 -19.8711,-8.1166 -3.6089,0 -14.8534,20.3821 -18.0093,32.6444 -5.5513,21.56901 3.3984,42.39171 20.5918,47.91001 5.4954,1.7638 11.8605,1.0355 18.4203,-2.1077 z m -1076.0826,-0.8868 c 5.7255,-2.3923 12.9461,-9.9631 16.0473,-16.8256 3.9531,-8.7478 4.5102,-20.28211 1.5081,-31.22461 -2.4025,-8.7571 -9.4047,-23.055 -14.04,-28.6681 l -3.0211,-3.6585 -8.2526,3.4624 c -4.539,1.9043 -13.269,5.7214 -19.4002,8.4824 -13.0291,5.8674 -12.1375,4.225 -13.0164,23.9767 -0.6613,14.86371 0.2368,20.99931 4.2456,29.00301 2.8781,5.7464 11.1109,13.2618 16.6929,15.2383 5.4739,1.9383 14.8597,2.0427 19.2364,0.214 z M 1083.202,917.61719 c 5.775,-0.7808 13.875,-2.1282 18,-2.9944 10.1677,-2.135 29,-7.6461 29,-8.4867 0,-1.1763 -20.1489,-20.3913 -28.1855,-26.8789 -9.9377,-8.0225 -28.114,-20.2941 -35.8223,-24.1852 -16.035,-8.0945 -35.1786,-12.2312 -56.9922,-12.3153 -15.77225,-0.061 -25.44685,1.1225 -39.78475,4.866 -9.8154,2.5628 -24.2152,8.1371 -24.2152,9.374 0,0.4039 1.1115,3.4696 2.4699,6.8128 1.3584,3.3431 3.8679,11.6607 5.5765,18.4834 l 3.1065,12.4049 12.2375,5.2125 c 23.7065,10.0977 42.46545,15.6261 61.14505,18.02 11.2015,1.4355 41.8587,1.256 53.4645,-0.3131 z m -1337.00895,-2.9288 c 18.4844,-3.4915 32.5806,-7.926 52.8513,-16.6263 8.4354,-3.6206 12.623,-5.9605 13.2289,-7.3919 0.4876,-1.1519 2.0479,-6.782 3.4674,-12.5113 1.4194,-5.7292 3.679,-13.1193 5.0211,-16.4224 1.3421,-3.303 2.4403,-6.2946 2.4403,-6.6479 0,-2.1645 -20.7574,-9.3103 -35.4764,-12.2128 -8.5844,-1.6928 -14.6747,-2.1769 -27.5236,-2.1877 -36.6916,-0.031 -59.5253,8.8842 -94,36.701 -13.5165,10.9061 -28.5627,25.5381 -27.3972,26.6429 2.5976,2.4621 29.0618,9.0662 46.3972,11.5783 12.7727,1.8509 49.2286,1.2998 60.991,-0.9219 z m 1406.84805,-17.3917 c 13.001,-5.9343 37.1609,-19.646 37.1609,-21.0902 0,-0.802 -9.8363,-8.0517 -21.6145,-15.9308 -27.826,-18.6144 -75.6726,-39.2574 -103.8855,-44.82045 -14.3618,-2.83191 -37.8829,-2.43946 -52.1248,0.8697 -18.07235,4.19915 -38.02895,13.48825 -50.45925,23.48695 -3.483,2.8018 -3.8878,3.4075 -1.9159,2.8672 40.38055,-11.0642 76.57355,-9.228 107.49995,5.4539 16.2827,7.7301 43.3928,28.1269 60.9792,45.879 4.9385,4.9851 9.5911,9.0638 10.3391,9.0638 0.748,0 7.0574,-2.6006 14.0208,-5.7791 z m -1509.91565,-8.529 c 23.5289,-23.0267 49.4699,-40.9245 69.012,-47.6144 28.0156,-9.5906 62.1944,-10.3339 90.4103,-1.966 3.7652,1.1167 7.0431,1.8331 7.2841,1.592 0.7224,-0.7224 -16.6062,-12.1842 -24.1298,-15.9602 -9.1967,-4.6158 -21.9609,-9.07046 -32.5,-11.34246 -11.7064,-2.52364 -37.868,-2.54294 -50.5,-0.0372 -24.8842,4.93601 -66.2682,22.29776 -95.5,40.06506 -11.0612,6.723 -29,19.3338 -29,20.3866 0,2.4932 46.5695,27.0996 51.4234,27.1712 0.5079,0.01 6.5829,-5.5251 13.5,-12.2946 z m 753.2234,-5.1919 c 2.4225,-6.1513 10.0396,-16.4209 17.1356,-23.1029 15.6605,-14.7468 36.7032,-23.3764 64.4138,-26.4161 16.789,-1.8417 48.8564,-0.8179 80.5047,2.5704 25.0633,2.6832 27.5164,2.7843 40,1.6475 10.8288,-0.986 36.3045,-5.3718 37.3668,-6.4329 0.1464,-0.1463 -9.7089,-0.2721 -21.9007,-0.2795 -25.6728,-0.016 -31.4894,-0.8588 -58.6158,-8.4969 -34.383,-9.68144 -52.7736,-12.94164 -73.1702,-12.97125 -20.4459,-0.0297 -36.6098,3.82679 -55.381,13.21315 -16.9163,8.4588 -27.7565,18.4384 -34.208,31.4922 -3.5199,7.1219 -3.7968,8.3441 -4.136,18.2523 -0.2987,8.7277 0.044,12.1247 1.9245,19.0716 l 2.2879,8.4524 1.2984,-7 c 0.7142,-3.85 1.8302,-8.35 2.48,-10 z m -17.5872,4.2566 c 1.1848,-4.8348 1.5558,-9.7501 1.2851,-17.0268 -0.344,-9.2478 -0.7238,-10.9519 -3.9559,-17.7534 -8.6202,-18.1399 -30.7027,-33.64701 -59.2994,-41.64219 -13.4343,-3.756 -38.8505,-4.38896 -56.9434,-1.41809 -13.1594,2.16079 -30.7938,6.36417 -52.2526,12.45498 -21.152,6.0038 -29.3409,7.0801 -53.7772,7.0682 -24.4639,-0.012 -24.4321,0.3748 0.3838,4.6733 16.8641,2.9211 35.754,2.9295 60.5,0.027 60.3098,-7.074 97.8551,-3.3105 125.0731,12.537 9.3727,5.4572 24.2212,19.9129 29.2256,28.4524 2.0163,3.4408 3.9479,8.7686 4.9687,13.7052 0.9184,4.4419 1.9977,7.5459 2.3982,6.8978 0.4006,-0.6481 1.4779,-4.2371 2.394,-7.9754 z m 566.8065,-7.2897 c -1.3314,-5.2432 -3.5161,-12.0099 -4.8548,-15.037 l -2.434,-5.5038 -4.2887,2.6712 c -5.5572,3.4613 -17.9794,13.5454 -17.3998,14.1249 0.7541,0.754 29.035,13.0731 30.2546,13.1788 0.7588,0.066 0.3289,-3.1087 -1.2773,-9.4341 z m -1108.5544,0.7845 15.3823,-6.7487 -4.347,-3.7829 c -5.2377,-4.558 -17.7035,-13.2337 -18.1653,-12.6423 -1.1309,1.448 -4.8057,11.6323 -6.6474,18.4225 -1.1934,4.4 -2.3947,8.7875 -2.6695,9.75 -0.2748,0.9625 -0.1477,1.75 0.2825,1.75 0.4302,0 7.7041,-3.0369 16.1644,-6.7486 z m 870.4285,-19.734 c 26.9267,-4.6956 59.8127,-22.9279 84.3823,-46.78234 7.4321,-7.21568 13.986,-14.0035 14.5643,-15.08403 1.0156,-1.8977 0.7883,-1.94237 -6.673,-1.31165 -12.0134,1.0155 -31.838,5.37054 -41.588,9.136 -11.716,4.52471 -33.3164,15.56242 -49.5037,25.29622 -16.5835,9.9721 -37.4007,23.5319 -37.4128,24.3699 -0.013,0.8982 7.6971,3.8873 12.4907,4.8424 6.4397,1.2831 14.6303,1.1221 23.7402,-0.4665 z m -623.7261,-1.6046 c 6.2899,-1.1628 13.4989,-3.7172 13.4656,-4.7713 -0.027,-0.8452 -23.4382,-16.1964 -37.9797,-24.9039 -25.592701,-15.3249 -44.721901,-24.32843 -60.8713007,-28.6503 -11.5642003,-3.09479 -28.6288003,-5.82605 -33.7658003,-5.40437 l -3.8629,0.3171 10,10.36309 c 17.017,17.63488 28.73950025,26.50658 49.5868,37.52768 24.735901,13.0769 47.077601,18.5444 63.427301,15.522 z m 586.464,-41.44586 c 25.004,-12.27152 37.9174,-24.10325 37.9999,-34.81691 0.029,-3.75287 -5.3009,-9.09098 -10.5249,-10.54135 -17.2243,-4.782 -32.4449,7.49413 -38.3009,30.89135 -2.6712,10.6729 -3.5036,19.99997 -1.7848,19.99997 0.7352,0 6.41,-2.4899 12.6107,-5.53306 z m -558.5039,-1.71691 c -2.5454,-22.47266 -10.2726,-38.03533 -21.8069,-43.91971 -5.0605,-2.58169 -12.9852,-3.36994 -18.6069,-1.8508 -5.4713,1.47848 -11.0604,6.76051 -11.0604,10.45263 0,10.48778 14.6981,23.80219 39.3788,35.67168 5.5667,2.6771 10.6992,4.87387 11.4056,4.88177 0.9592,0.011 1.1339,-1.315 0.6898,-5.23557 z M 275.34495,655.2417 c -0.7945,-0.53643 -1.1004,-1.72442 -0.7381,-2.8661 0.4615,-1.45393 1.3154,-1.85112 3.357,-1.56153 3.4575,0.49041 5.9238,-1.3915 6.8521,-5.22835 0.6874,-2.84123 0.6368,-2.90346 -1.0167,-1.25 -5.9855,5.98545 -11.2042,-4.08475 -7.148,-13.79277 2.4978,-5.97803 6.066,-8.46713 12.1378,-8.46713 2.9122,0 5.5136,0.35388 5.7809,0.78641 0.2674,0.43252 -0.7497,6.75346 -2.2602,14.04652 -2.2109,10.67525 -3.2391,13.75295 -5.2744,15.78828 -2.7007,2.70073 -9.3239,4.14241 -11.6904,2.54467 z m 9.7432,-15.52869 c 1.1914,-1.43551 3.5556,-12.52875 2.8258,-13.25862 -1.0489,-1.04884 -3.6935,1.06286 -5.1347,4.09991 -3.0662,6.46155 -1.2923,13.49794 2.3089,9.15871 z m 161.1303,14.39347 c -0.8832,-1.65021 -0.485,-2.50095 2.4569,-5.25 l 3.5109,-3.28066 -0.8913,-6.5 c -0.4902,-3.575 -1.1771,-8.8625 -1.5265,-11.75 l -0.6353,-5.25 3.5345,0 3.5344,0 0.047,7.75 0.047,7.75 2.495,-7.75 c 2.3688,-7.35773 2.6448,-7.75 5.4531,-7.75 1.627,0 2.9581,0.25047 2.9581,0.55661 0,1.24254 -7.3814,18.33335 -10.2605,23.75712 -2.8345,5.33988 -6.8009,9.68627 -8.8392,9.68627 -0.4565,0 -1.3042,-0.8862 -1.8839,-1.96934 z m -280.7558,-9.28066 c 0.2611,-0.6875 1.7591,-8.1125 3.3289,-16.5 l 2.8543,-15.25 6.7781,0 c 6.5633,0 6.7781,0.0792 6.7781,2.5 0,2.24376 -0.404,2.5 -3.941,2.5 -4.4481,0 -4.5419,0.09 -5.473,5.25 l -0.6767,3.75 3.6149,0 c 3.1768,0 3.5761,0.27269 3.2953,2.25 -0.2556,1.79961 -1.0584,2.31142 -4.0104,2.55684 -3.6345,0.30215 -3.7081,0.39391 -4.8091,6 -1.6023,8.15848 -1.6238,8.19316 -5.0756,8.19316 -2.0972,0 -2.9809,-0.4147 -2.6638,-1.25 z m 29.2961,-0.97251 c -1.9238,-2.74657 -2.0164,-9.76289 -0.1856,-14.05961 1.6601,-3.8962 5.4066,-7.46514 8.1289,-7.7436 6.3848,-0.65312 8.5,1.36977 8.5,8.12927 0,9.42268 -4.5335,15.89645 -11.1319,15.89645 -2.7464,0 -4.1728,-0.59684 -5.3114,-2.22251 z m 9.3734,-6.00689 c 1.3284,-3.81057 1.3956,-10.45126 0.1138,-11.24345 -2.3899,-1.477 -6.2426,9.90691 -4.7071,13.90833 0.8749,2.27991 3.3752,0.8293 4.5933,-2.66488 z m 20.0713,6.23203 c -0.8452,-1.57927 -0.8193,-4.03281 0.103,-9.75031 0.9364,-5.80459 0.9518,-7.73358 0.064,-8.0295 -1.8431,-0.61438 -1.3639,-3.04783 0.8316,-4.22282 1.1,-0.5887 2,-1.90639 2,-2.92819 0,-1.91345 1.851,-3.07181 4.9085,-3.07181 1.3701,0 1.6505,0.64457 1.3048,3 -0.3708,2.52592 -0.1064,3 1.6732,3 1.4468,0 2.1135,0.63087 2.1135,2 0,1.46257 -0.6667,2 -2.481,2 -2.6405,0 -2.7934,0.32367 -4.4268,9.37145 -0.7918,4.38626 -0.6856,4.92213 1.0666,5.38035 1.2995,0.3398 1.8456,1.21323 1.6436,2.62855 -0.4472,3.13421 -7.2011,3.61175 -8.801,0.62228 z m 23.6669,0.74409 c -4.1255,-3.01663 -2.7392,-14.82967 2.3358,-19.90474 2.1644,-2.16441 3.7848,-2.84198 6.7965,-2.84198 2.184,0 4.4787,0.63163 5.1253,1.41077 3.4356,4.13966 1.8254,14.99176 -2.9301,19.74725 -3.1135,3.11352 -8.2559,3.83475 -11.3275,1.5887 z m 7.2385,-4.13442 c 0.6334,-0.76323 1.6809,-3.91084 2.3277,-6.99468 0.9357,-4.46113 0.9153,-5.86352 -0.1002,-6.8623 -2.8021,-2.75604 -7.3434,7.85996 -5.6477,13.20251 0.7575,2.38692 1.8145,2.58917 3.4202,0.65447 z m 49.4357,3.18585 c 0.3167,-1.21102 1.3475,-6.61102 2.2907,-12 1.6892,-9.65096 1.7569,-9.79815 4.5095,-9.79815 2.2379,0 2.6674,0.34857 2.1563,1.75 -0.5902,1.61851 -0.4939,1.62993 1.2814,0.152 3.2477,-2.70363 5.4196,-3.0853 5.4196,-0.9524 0,2.85162 -1.0676,5.0504 -2.452,5.0504 -2.2041,0 -4.4099,3.41607 -5.499,8.51615 -0.5854,2.74112 -1.2944,5.99635 -1.5757,7.23385 -0.3953,1.73901 -1.2149,2.25 -3.609,2.25 -2.6999,0 -3.0237,-0.28268 -2.5218,-2.20185 z m 25.0482,-0.32455 c -3.1572,-4.81847 -0.099,-15.37381 5.7094,-19.7024 2.4385,-1.81745 11.2071,-2.79725 12.5968,-1.40756 0.2917,0.29166 -0.1967,4.49166 -1.0853,9.33333 -0.8887,4.84167 -1.6148,10.04053 -1.6137,11.55303 0,2.26721 -0.4368,2.75 -2.4979,2.75 -1.5556,0 -2.5,-0.56667 -2.5,-1.5 0,-0.825 -0.2572,-1.5 -0.5715,-1.5 -0.3143,0 -1.2464,0.675 -2.0714,1.5 -2.3257,2.32571 -6.0876,1.84103 -7.9664,-1.0264 z m 9.1252,-4.2236 c 0.4015,-0.9625 1.2939,-4.3375 1.9831,-7.5 1.0242,-4.7 1.015,-5.75 -0.05,-5.75 -3.2294,0 -7.88,10.87495 -5.9713,13.9633 0.9981,1.61503 3.232,1.22049 4.0386,-0.7133 z m 21.5762,-2 c 2.2522,-10.77427 2.2694,-11.25 0.4079,-11.25 -2.21,0 -1.8265,-3.10186 0.4572,-3.69907 1.108,-0.28976 2.4429,-1.98333 3.0765,-3.90328 0.6156,-1.8653 2.085,-4.06784 3.2653,-4.89455 2.3388,-1.63817 8.701,-2.06584 8.701,-0.58489 0,2.15975 -1.263,3.91812 -2.479,3.45147 -1.216,-0.46659 -4.521,3.08106 -4.521,4.85283 0,0.42762 1.0828,0.77749 2.4063,0.77749 1.9141,0 2.2994,0.40919 1.8834,2 -0.3301,1.26214 -1.364,2 -2.8026,2 -2.1037,0 -2.4151,0.77155 -4.0361,10 l -1.7566,10 -3.2156,0 -3.2157,0 1.829,-8.75 z m 20.9079,7.28546 c 0,-0.8055 0.8986,-6.093 1.9969,-11.75 1.0984,-5.657 1.9984,-10.39796 2,-10.53546 0,-0.1375 1.4093,-0.25 3.1281,-0.25 2.8752,0 3.0812,0.21979 2.5771,2.75 -0.3013,1.5125 -1.3448,6.9125 -2.3189,12 -1.7324,9.04832 -1.8322,9.25 -4.5771,9.25 -1.7975,0 -2.8061,-0.52643 -2.8061,-1.46454 z m 21.3387,-1.14116 c -1.4837,-2.2645 -1.5553,-3.33032 -0.5465,-8.13965 2.0041,-9.55461 5.9634,-13.42132 13.7427,-13.42132 2.5475,0 4.9045,0.27278 5.2379,0.60618 0.3334,0.3334 -0.1541,4.57222 -1.0833,9.4196 -0.9293,4.84738 -1.6895,10.0121 -1.6895,11.47715 0,2.17466 -0.4591,2.66374 -2.5,2.66374 -1.5961,0 -2.5,-0.56289 -2.5,-1.5567 0,-1.40894 -0.211,-1.40894 -2.2226,0 -3.3148,2.32182 -6.4885,1.92731 -8.4387,-1.049 z m 9.4729,-5.1443 c 1.0337,-2.69636 1.382,-3.96203 2.6145,-9.5 0.7202,-3.23627 -1.2151,-3.76323 -3.6725,-1 -2.0313,2.28402 -4.1932,9.66228 -3.4208,11.67493 0.9478,2.4699 3.32,1.84758 4.4788,-1.17493 z m 82.7815,4.5 c -0.2737,-1.7875 -0.6942,-7.1875 -0.9347,-12 l -0.4371,-8.75 3.4934,0 3.4935,0 -0.7082,8 c -0.3895,4.4 -0.4866,8 -0.2159,8 0.2708,0 1.7455,-3.6 3.2772,-8 2.5957,-7.45662 2.9769,-8 5.6118,-8 1.5548,0 2.8269,0.30223 2.8269,0.67162 0,0.36939 -2.3041,5.76939 -5.1203,12 -4.777,10.56904 -5.3102,11.32838 -7.9547,11.32838 -2.429,0 -2.9055,-0.46477 -3.3319,-3.25 z m 24.7047,0.5 c 0.3014,-1.5125 1.3449,-6.9125 2.3189,-12 1.7325,-9.04832 1.8323,-9.25 4.5772,-9.25 3.3846,0 3.3822,-0.0383 0.8091,13.21454 -1.0983,5.657 -1.9983,10.39796 -2,10.53546 0,0.1375 -1.4092,0.25 -3.128,0.25 -2.8752,0 -3.0812,-0.21979 -2.5772,-2.75 z m 21.7374,0.81574 c -1.3441,-2.51152 -1.3283,-10.15972 0.028,-13.75064 1.7735,-4.69385 5.9174,-8.3151 9.5153,-8.3151 3.0355,0 3.2503,-0.25085 4.0671,-4.75 0.7944,-4.37575 1.1097,-4.77407 4.0026,-5.05548 l 3.1402,-0.30548 -1.4074,7.30548 c -0.774,4.01801 -2.1712,11.69298 -3.1047,17.05548 -1.5668,9.00038 -1.8733,9.75 -3.987,9.75 -1.4639,0 -2.2897,-0.59686 -2.2897,-1.65499 0,-1.53998 -0.1271,-1.53998 -1.8287,0 -2.5077,2.26941 -6.8519,2.12029 -8.1361,-0.27927 z m 9.3838,-6.31574 c 0.7243,-1.7875 1.6123,-5.1976 1.9733,-7.578 0.5751,-3.79282 0.4369,-4.28708 -1.118,-3.99707 -3.9921,0.74461 -7.5284,14.82507 -3.7233,14.82507 0.8531,0 2.1437,-1.4625 2.868,-3.25 z m 21.6917,5.66356 c -5.5391,-7.04172 0.4486,-21.41356 8.9214,-21.41356 9.9167,0 8.8913,13.02917 -1.1517,14.63512 -2.9277,0.46816 -3.8943,1.06098 -3.669,2.25024 0.2134,1.1265 1.6067,1.70851 4.6088,1.92515 3.7809,0.27283 4.2652,0.57617 3.9914,2.5 -0.2677,1.88092 -1.0359,2.23155 -5.4509,2.48791 -4.5632,0.26497 -5.376,-0.002 -7.25,-2.38486 z m 9.5277,-12.91356 c 0.3166,-0.825 0.2931,-2.23625 -0.052,-3.13612 -0.5721,-1.49095 -0.8034,-1.47719 -2.6069,0.15499 -1.0886,0.98511 -1.9792,2.39636 -1.9792,3.13612 0,1.83935 3.9234,1.70825 4.6384,-0.15499 z m 18.9864,14.21491 c -4.3792,-3.20215 -2.414,-16.3758 3.0887,-20.70416 2.9465,-2.31771 9.4643,-2.70642 11.1581,-0.66544 3.4613,4.17062 1.3055,16.79701 -3.5153,20.58908 -2.9637,2.33125 -8.0999,2.70482 -10.7315,0.78052 z m 8.0246,-5.78875 c 1.7584,-3.71152 2.4934,-10.24923 1.3409,-11.92616 -1.5627,-2.27367 -4.7196,2.01219 -5.5472,7.53081 -1.0961,7.3094 1.5271,10.05052 4.2063,4.39535 z m -829.506,3.54111 c -7.6437,-6.4318 -5.8777,-17.49381 3.3558,-21.02012 5.5692,-2.12691 10.3932,-0.7284 14.2769,4.139 l 2.7239,3.41379 174.058799,3e-5 c 185.084101,3e-5 178.199701,-0.17728 177.286201,4.56613 -0.3663,1.90197 -3.2735,1.93807 -176.084501,2.18668 l -175.712099,0.25279 -1.5411,2.98029 c -3.2202,6.22702 -12.9163,8.06522 -18.3639,3.48141 z m 13.3148,-3.83462 c 4.227,-4.22703 1.6505,-13.12467 -3.9582,-13.66889 -6.1873,-0.60037 -9.5,2.09226 -9.5,7.72179 0,7.53745 8.2307,11.17457 13.4582,5.9471 z m 1203.8871,1.86735 -4.3117,-4.5 -174.3168,0 c -134.2464,0 -174.5926,-0.27585 -175.5168,-1.2 -1.5815,-1.58146 -1.5146,-2.34254 0.3714,-4.22857 1.4166,-1.4166 18.8074,-1.57143 176.5,-1.57143 106.2341,0 174.9285,-0.36249 174.9285,-0.92308 0,-2.00662 6.11065,-6.8751 9.40495,-7.49312 10.0395,-1.88342 17.8758,9.17112 13.0781,18.44893 -1.9399,3.75138 -6.2493,5.96727 -11.6049,5.96727 -3.6973,0 -4.7561,-0.55837 -8.53275,-4.5 z m 15.20015,-1.95455 c 3.1189,-3.11901 3.2028,-7.60216 0.2045,-10.93476 -5.1731,-5.74976 -13.74995,-2.58418 -13.74995,5.07486 0,7.60976 8.23355,11.17172 13.54545,5.8599 z M 387.20205,618.54966 c 0,-0.36589 0.772,-1.97219 1.7156,-3.56955 1.269,-2.14825 2.4738,-2.90429 4.6281,-2.90429 l 2.9126,0 -2.498,3.25 c -2.1985,2.86025 -6.7583,5.03539 -6.7583,3.22384 z m 139.7068,-2.72384 c 1.264,-2.17243 2.7866,-3.35491 4.5921,-3.56642 1.4856,-0.17403 2.7011,0.0263 2.7011,0.44528 0,1.59329 -5.4588,6.37114 -7.2791,6.37114 -1.8704,0 -1.8707,-0.0589 -0.014,-3.25 z M 80.58365,554.53559 c -0.9147,-1.396 -1.676,-4.76232 -1.7455,-7.71786 -0.1108,-4.70924 1.0087,-7.65534 11.0166,-28.99191 6.127,-13.0625 11.0741,-23.74246 10.9936,-23.73325 -0.081,0.009 -5.0233,4.73421 -10.984,10.5 -5.9608,5.76579 -11.6517,10.48325 -12.6465,10.48325 -4.7368,0 -11.0158,-12.25499 -11.0158,-21.5 0,-12.26855 10.4512,-31.27701 22.3819,-40.70769 l 5.0504,-3.99208 2.8965,3.24173 c 2.4235,2.71239 2.8132,3.86208 2.3869,7.04079 -0.5835,4.35013 -6.9748,14.33338 -15.1895,23.72609 -3.0347,3.46987 -5.7864,7.51987 -6.1149,9 -0.3285,1.48014 -0.8107,3.47866 -1.0717,4.44116 -0.612,2.25739 0.8482,2.21168 5.4502,-0.17064 4.7413,-2.45443 10.9372,-8.94543 26.1431,-27.38813 6.7154,-8.14483 12.9177,-15.08044 13.783,-15.41248 4.0991,-1.57295 5.6804,8.19092 2.5811,15.93681 -0.9366,2.34082 -6.7791,13.90742 -12.9833,25.70356 -6.2042,11.79614 -11.1754,21.53933 -11.0471,21.65153 0.1283,0.11221 6.9091,-7.39528 15.0683,-16.68332 8.1592,-9.28803 15.2467,-16.88733 15.75,-16.88733 0.5033,0 0.9151,1.37907 0.9151,3.0646 0,2.38795 -4.6021,9.50851 -20.8434,32.25 -11.4638,16.05197 -22.0762,31.06413 -23.5832,33.36034 -3.4672,5.28322 -5.1323,5.92798 -7.1918,2.78483 z m 206.1898,-29.0312 c -3.4694,-3.46938 -0.793,-14.09354 8.5012,-33.74616 2.8202,-5.9633 2.8432,-6.14463 1.0309,-8.14078 -2.9345,-3.23217 -4.1035,-6.12299 -4.1035,-10.14731 0,-5.18278 6.0902,-10.93684 15.5085,-14.65258 l 6.9915,-2.75827 10.75,-18.29602 c 5.9125,-10.06282 10.75,-18.56628 10.75,-18.89658 0,-1.9995 -22.6055,2.69243 -35.0701,7.27904 -12.2281,4.49956 -14.9299,4.85048 -14.9299,1.93908 0,-2.2431 9.2422,-20.50779 11.8232,-23.3654 7.2574,-8.03509 40.7896,-13.91465 61.1768,-10.72678 8.5245,1.33295 17.1654,4.93201 21.3432,8.88973 11.7341,11.11597 12.1317,38.43825 0.8189,56.27666 -12.423,19.58903 -35.6663,30.63787 -62.6012,29.75777 l -10.4351,-0.34097 -2.7243,5.70304 c -2.2531,4.71643 -2.5041,5.9684 -1.4513,7.23701 1.7857,2.15169 0.8568,4.89799 -4.8929,14.46451 -6.5844,10.95552 -9.1202,12.88974 -12.4859,9.52401 z m 54.6293,-57.53365 c 18.3805,-3.833 37.7993,-22.56674 37.7993,-36.46575 0,-3.51033 -0.531,-4.69811 -3.0458,-6.81424 -3.8902,-3.27339 -14.3346,-6.50353 -23.5465,-7.28222 l -7.1884,-0.60764 -0.6913,3.38746 c -0.5966,2.92387 -6.8429,15.0563 -15.2244,29.571 l -2.4158,4.18354 5.6584,-0.584 c 5.176,-0.53421 5.6283,-0.422 5.3061,1.31647 -0.2496,1.346 -2.216,2.50183 -6.7403,3.96171 -6.1493,1.98423 -10.5868,5.51437 -9.8208,7.81255 0.8419,2.5256 11.2716,3.32245 19.9095,1.52112 z m -580.011,56.75222 c -3.6318,-2.01535 -5.9776,-6.46072 -7.1842,-13.61445 -2.4593,-14.57994 3.3256,-32.03844 19.6082,-59.17677 3.5124,-5.85425 6.3863,-10.92001 6.3863,-11.25726 0,-0.82502 -13.6401,13.97679 -22.0254,23.90134 -7.8615,9.30455 -19.1714,25.25747 -27.7913,39.20021 -7.9877,12.92011 -12.6376,18.29979 -15.8175,18.29979 -1.9595,0 -2.8645,-0.88961 -4.3235,-4.25 -2.7188,-6.26221 -3.4359,-13.59075 -1.7901,-18.29513 0.761,-2.17518 6.6188,-12.8082 13.0175,-23.62893 12.6448,-21.3836 19.6833,-34.81705 23.3676,-44.59877 2.8642,-7.60439 2.9092,-8.45639 0.4248,-8.04672 -3.2746,0.53997 -35.9165,46.70784 -49.3642,69.81955 -6.5604,11.275 -12.788,21.71089 -13.839,23.19086 -5.488,7.72794 -11.7414,3.19688 -14.9733,-10.84926 l -1.1869,-5.15841 15.05,-24.34159 c 15.3247,-24.78588 22.4061,-39.61959 25.1465,-52.67517 1.1445,-5.45279 0.867,-7.16643 -1.1607,-7.16643 -1.6398,0 -17.242,9.44396 -32.1139,19.43837 -18.7246,12.58353 -20.8064,11.80996 -18.0795,-6.71798 0.9073,-6.16461 2.0298,-11.91866 2.4944,-12.78678 1.4608,-2.72956 14.9312,-14.93361 16.4832,-14.93361 2.1547,0 1.8151,2.43152 -0.7925,5.67327 -5.6017,6.96418 -5.6007,6.96161 -1.7262,4.66344 22.1073,-13.11303 32.7473,-18.70769 37.5607,-19.74981 3.8914,-0.84251 5.1913,0.5786 9.4168,10.29451 3.8217,8.78754 3.7374,10.02546 -1.8967,27.86859 -2.1275,6.7375 -3.5784,12.2246 -3.2245,12.19356 0.354,-0.031 5.1437,-5.74616 10.6437,-12.70026 12.4078,-15.68821 26.5282,-30.55429 31.0679,-32.7085 3.1684,-1.5035 3.695,-1.50384 6.8548,-0.004 10.3297,4.90177 8.2552,18.31058 -7.6535,49.46846 -7.9247,15.52084 -8.6681,16.05829 15.2133,-10.99882 18.2622,-20.6907 35.7336,-39 37.2153,-39 2.9838,0 9.7337,10.9155 9.7802,15.81574 0.029,3.09156 -0.045,3.22139 -17.2127,30.0367 -23.0256,35.96539 -29.3901,51.31978 -25.6818,61.95748 0.596,1.7096 1.9902,3.3961 3.0983,3.74778 4.0163,1.27476 16.0414,-9.20806 32.1855,-28.0577 l 2.5695,-3 0.032,4.59317 c 0.027,3.90848 -0.694,5.62276 -4.836,11.5 -8.6702,12.3025 -23.3101,25.92948 -33.29,30.98667 -5.3258,2.69879 -8.2328,2.96505 -11.6527,1.0673 z m 91.421,-4.17929 c -2.6726,-2.67252 -2.9247,-7.79492 -0.7938,-16.12678 1.103,-4.31259 2.3223,-8.74107 2.7096,-9.84107 0.3873,-1.1 -3.7352,2.50758 -9.1612,8.01686 -17.0814,17.34368 -18.8181,18.04585 -24.4363,9.87999 -9.0344,-13.13103 -7.5102,-25.17439 4.8797,-38.55694 10.7247,-11.58395 28.0944,-21.5674 39.2904,-22.58261 5.326,-0.48295 5.942,-0.316 8.3262,2.25661 3.0106,3.24855 3.3366,6.99328 0.7494,8.60901 -1.7468,1.09094 -1.7504,1.28649 -0.084,4.55616 2.1919,4.29922 1.542,6.76475 -4.3453,16.48557 -7.6968,12.70866 -8.3256,18.83535 -1.9333,18.83535 3.2008,0 5.472,-1.42209 13.8258,-8.657 l 6.1385,-5.31627 0.5003,3.23663 c 0.6115,3.95545 -1.5796,7.13072 -12.1494,17.60635 -11.9303,11.82402 -19.5389,15.57642 -23.5171,11.59814 z m -19.4287,-18.46502 c 5.8023,-3.84334 29.753,-31.40109 28.4358,-32.71835 -0.9984,-0.9984 -20.858,9.25689 -26.3821,13.62344 -7.5857,5.99613 -12.5208,17.40698 -9.0357,20.89208 1.6498,1.64987 1.8593,1.59595 6.982,-1.79717 z m 806.047,19.32788 c -3.7884,-1.52424 -5.4466,-12.40566 -3.1505,-20.67448 0.587,-2.11408 0.9031,-4.00793 0.7025,-4.20856 -0.2006,-0.20063 -2.7228,2.72722 -5.6049,6.50635 -10.4673,13.72518 -16.9032,17.15873 -21.9978,11.73575 -9.9867,-10.6303 -3.9679,-39.31058 11.5535,-55.05385 3.5733,-3.62439 5.1353,-4.47355 9.038,-4.91344 9.3124,-1.04964 10.5718,2.63902 4.0509,11.86473 -2.2985,3.25203 -7.2193,9.14581 -10.9349,13.09728 -4.3423,4.618 -7.1341,8.54749 -7.8151,11 -4.4476,16.01636 6.2664,8.52532 34.3131,-23.99128 12.7815,-14.81851 16.9621,-18.36964 18.5676,-15.77188 0.4445,0.71919 1.0829,3.31193 1.4186,5.76164 0.7081,5.16568 -0.6637,8.42005 -6.4561,15.31703 -11.538,13.73804 -16.9859,30 -10.0502,30 2.5951,0 9.8684,-5.10218 15.5987,-10.94241 2.7293,-2.78167 5.3168,-5.05759 5.75,-5.05759 0.4332,0 0.7876,1.72269 0.7876,3.82821 0,3.30789 -1.0681,5.11793 -7.8588,13.31734 -13.0865,15.8014 -21.0087,20.96278 -27.9122,18.18516 z m -670.729001,-1.23822 c -4.6318,-1.98338 -7.8882,-8.18342 -8.9773,-17.09249 -1.5049,-12.30867 5.0934,-29.58195 15.2917,-40.03196 6.0644,-6.21402 9.8509,-7.8972 13.7593,-6.11639 6.2808003,2.86171 0.577,15.97441 -13.4647,30.95469 -1.7046,1.81849 -3.3514,4.31105 -3.6596,5.53903 -0.8371,3.33537 1.172,7.56021 4.1301,8.68486 4.5501,1.72997 9.569,-0.46733 17.1955003,-7.52828 l 7.00089995,-6.48179 0.5121,3.23992 c 0.59160005,3.74315 -0.3378,5.48124 -7.96239995,14.88996 -8.5090003,10.50007 -18.3779003,16.27525 -23.8256003,13.94245 z m 203.034601,-1.46693 c -5.4095,-5.40948 -4.0678,-15.95495 4.0176,-31.57883 2.406,-4.64929 4.2121,-8.61568 4.0136,-8.81419 -0.7476,-0.74766 -12.9961,14.65252 -19.3011,24.26746 -8.393,12.79927 -9.9663,14.5 -13.4134,14.5 -3.485,0 -5.5837,-3.64807 -6.9386,-12.06094 -1.7693,-10.98647 3.8476,-28.31538 13.1887,-40.68906 3.8035,-5.03833 4.1536,-5.24938 8.6809,-5.23469 2.5947,0.008 5.3395,0.40915 6.0995,0.8905 2.6305,1.66603 0.1867,7.44476 -7.8634,18.59419 -7.1173,9.85763 -9.7042,15.5 -7.1062,15.5 0.5017,0 3.0601,-3.0375 5.6853,-6.75 8.3143,-11.7579 34.2681,-36.25 38.4134,-36.25 1.2495,0 3.1784,5.48405 3.6931,10.5 0.4673,4.55424 0.176,5.49034 -3.2675,10.5 -2.0793,3.025 -5.4811,7.9988 -7.5597,11.0529 -4.3986,6.46324 -6.9159,14.30805 -5.1559,16.06804 2.2814,2.28139 6.7892,-0.29419 14.4907,-8.27943 7.4541,-7.72874 7.7331,-7.90967 8.3584,-5.41861 0.3557,1.4174 0.3722,3.5896 0.037,4.8271 -0.9701,3.57671 -18.6195,23.7774 -23.9658,27.43012 -5.7526,3.93027 -8.8773,4.1743 -12.1062,0.94544 z m 646.9654,1.46693 c -10.6384,-4.5555 -12.1081,-26.00632 -3.0184,-44.05586 4.1396,-8.22032 13.5237,-18.52489 17.8421,-19.59243 4.611,-1.13984 7.6763,0.88376 7.6763,5.0676 0,6.00702 -5.3966,14.86006 -16.4096,26.91985 -1.9747,2.16241 -3.5904,4.72062 -3.5904,5.6849 0,3.46168 2.0112,6.93723 4.5795,7.91368 4.5502,1.72997 9.569,-0.46733 17.1955,-7.52828 l 7.001,-6.48179 0.5264,3.23992 c 0.411,2.52924 -0.1565,4.227 -2.5872,7.73992 -10.8185,15.63547 -22.4121,24.00569 -29.2152,21.09249 z m 142.0696,-1.43203 c -5.3282,-5.32812 -3.8867,-16.7324 3.9851,-31.53002 2.4655,-4.63453 4.3092,-8.59985 4.0973,-8.81182 -0.7825,-0.7825 -13.0064,14.48999 -19.3544,24.18138 -8.3369,12.72771 -9.9804,14.5 -13.4462,14.5 -3.5505,0 -5.6995,-3.85327 -6.9066,-12.38379 -1.6013,-11.31624 4.0952,-28.52311 13.536,-40.88727 3.3345,-4.36701 3.9455,-4.72894 7.9831,-4.72894 5.9669,0 7.5361,0.77849 7.5361,3.73895 0,2.94953 -2.1185,6.58309 -10.7173,18.38174 -5.8168,7.98125 -8.0653,13.62789 -5.0327,12.63793 0.6875,-0.22443 3.2474,-3.29943 5.6886,-6.83334 8.4839,-12.28111 34.9764,-36.78694 38.4995,-35.61255 1.4193,0.47312 3.391,7.31758 3.4849,12.09776 0.064,3.25832 -0.9276,5.29307 -5.9461,12.20043 -9.5219,13.10565 -13.2061,22.59648 -9.3463,24.07756 2.6649,1.02267 8.2726,-2.72829 14.731,-9.85378 3.3351,-3.67944 6.4179,-6.47091 6.8511,-6.20327 0.433,0.26763 0.7873,2.00513 0.7873,3.86111 0,2.6932 -1.4401,5.15453 -7.1325,12.19098 -9.922,12.26454 -12.711,15.15266 -17.8133,18.44648 -5.3935,3.48181 -8.3947,3.62043 -11.4846,0.53046 z m 54.51735,0.18243 c -4.3321,-2.97371 -6.9637,-8.07547 -8.3548,-16.19619 -2.3252,-13.57472 3.4401,-29.74542 14.6502,-41.09178 7.8736,-7.96922 14.0878,-11.05492 22.2626,-11.05492 7.9927,0 10.355,1.90244 10.355,8.33926 0,10.90589 -11.0879,22.85086 -28.8974,31.13096 l -5.3132,2.47023 0.5062,4.49031 c 1.395,12.377 13.9682,10.48123 29.6122,-4.46488 4.2823,-4.0913 8.0798,-7.14484 8.4391,-6.78564 3.1277,3.12765 -2.798,12.9798 -14.0641,23.38338 -11.5026,10.622 -22.5687,14.32861 -29.1958,9.77927 z m 17.5404,-43.19179 c 5.1021,-4.45879 9.8458,-11.97567 8.9805,-14.23058 -0.5158,-1.3441 -1.1575,-1.24079 -4.7344,0.76234 -2.2755,1.27443 -5.5989,4.11714 -7.385,6.31714 -3.3566,4.13446 -7.4885,11.59258 -7.4885,13.5167 0,1.49189 5.2011,-1.62344 10.6274,-6.3656 z m 48.8726,44.4236 c -7.5831,-1.87077 -14.2684,-7.57591 -17.2091,-14.68578 -1.5099,-3.65043 -2.1214,-4.21859 -4.0262,-3.7405 -2.75,0.69017 -3.9952,-1.77749 -2.504,-4.96219 0.563,-1.20243 8.0329,-10.34416 16.6001,-20.31496 12.5047,-14.55352 15.9278,-19.18758 17.3579,-23.49777 2.0542,-6.19149 5.7683,-8.88388 9.7517,-7.06895 1.9677,0.89658 2.4615,2.4628 4.0142,12.73436 3.0402,20.11186 0.672,29.26412 -10.6131,41.0164 l -6.1885,6.44469 3.1905,0 c 5.3544,0 9.6182,-2.49357 18.0683,-10.56674 4.4511,-4.25251 8.3054,-7.51934 8.5651,-7.25963 0.2597,0.25971 0.7507,1.86509 1.0912,3.5675 0.5754,2.87672 -0.077,3.7909 -9.2396,12.94539 -12.857,12.84587 -21.1782,17.28298 -28.8586,15.38818 z m 5.2882,-23.09826 c 6.0381,-6.03817 7.2531,-13.25865 4.5805,-27.22135 -0.4959,-2.59087 -1.0751,-2.08651 -10.321,8.98752 l -9.7957,11.73242 2.8427,1.72875 c 1.5635,0.95081 3.8693,3.31335 5.124,5.2501 1.2547,1.93675 2.5659,3.52693 2.9137,3.53374 0.3477,0.007 2.4429,-1.79822 4.6559,-4.01118 z M 20.590149,519.09575 c -3.0303,-1.22438 -6.206,-5.63168 -7.494,-10.40048 -0.6671,-2.46977 -0.9291,-8.92499 -0.6544,-16.11945 0.9139,-23.93087 8.5229,-42.71207 27.549501,-68 6.3148,-8.39293 15.3295,-17.5 17.3225,-17.5 2.1501,0 2.8925,2.02525 2.8709,7.83179 -0.061,16.26198 -9.2552,35.78642 -28.806201,61.16821 -5.7575,7.47458 -6.5998,9.12777 -6.9819,13.70381 -0.5315,6.36517 0.2422,9.73295 2.8309,12.32163 4.0848,4.08483 10.208801,1.59604 20.779101,-8.44467 5.8113,-5.52022 7.5272,-6.66922 8.251,-5.52518 1.5846,2.50461 1.0875,3.63426 -4.8973,11.1289 -12.9848,16.26061 -23.246201,22.87545 -30.770101,19.83544 z m 13.4911,-59.4393 c 4.757801,-6.88251 13.146101,-23.13843 14.615701,-28.32434 1.1241,-3.96666 -1.7693,-1.62019 -6.1811,5.01277 -4.9682,7.46943 -6.279301,10.05272 -10.825601,21.32962 -4.9103,12.18013 -4.7506,12.31255 2.391,1.98195 z m 526.372001,58.88276 c -3.1689,-2.2196 -4.5832,-8.64941 -3.8413,-17.46339 l 0.6314,-7.5 -3.6999,4.5 c -6.5867,8.01116 -16.086,16.8978 -18.7876,17.57586 -1.8044,0.45288 -3.2227,0.12881 -4.5016,-1.02864 -3.2882,-2.97573 -6.237,-11.48349 -6.7932,-19.59962 -0.466,-6.7976 -0.2278,-8.33609 2.0666,-13.34755 4.8951,-10.69229 14.3547,-19.69522 26.9601,-25.6586 7.4786,-3.53798 12.1977,-3.80099 14.6159,-0.8146 1.6871,2.08345 1.8205,1.88454 6.5393,-9.75 8.8961,-21.93441 17.1922,-35.37685 21.8328,-35.37685 3.3983,0 4.9683,3.0678 4.4945,8.78198 -0.3727,4.49357 -2.7805,10.06746 -14.0698,32.56969 -7.4912,14.93158 -14.3129,29.30156 -15.1593,31.93328 -1.5332,4.76667 -2.0865,16.12489 -0.9321,19.13326 1.384,3.60669 5.8485,1.07071 17.0217,-9.6689 7.1004,-6.82487 7.1314,-6.84145 7.8001,-4.1768 0.8513,3.39173 -2.085,7.78663 -12.7239,19.04426 -7.1394,7.55471 -14.0794,12.38323 -17.7981,12.38323 -0.804,0 -2.449,-0.69148 -3.6556,-1.53661 z m -10.899,-29.52658 c 6.5976,-7.12604 13.6478,-16.86684 13.6478,-18.85628 0,-1.81028 -1.8633,-1.25292 -10.05,3.00627 -11.9668,6.22583 -17.9252,13.88945 -17.9444,23.07987 -0.012,5.86702 4.1741,3.75729 14.3466,-7.22986 z m 145.4316,29.50894 c -8.7543,-4.75134 -12.5458,-27.15263 -6.7958,-40.15156 3.7885,-8.5644 20.2198,-23.0612 31.3841,-27.68909 4.1934,-1.73826 8.3815,-2.04824 10.3962,-0.76948 2.1828,1.38548 3.1012,6.63959 2.0346,11.64032 -1.1742,5.50543 -8.0963,15.98981 -12.1234,18.36238 -2.7219,1.60365 -2.8878,1.57924 -4.75,-0.6991 -1.0612,-1.29844 -1.9295,-3.31288 -1.9295,-4.47654 0,-3.218 -15.7441,12.75087 -16.9782,17.22066 -1.1573,4.19127 0.7563,9.39234 4.1174,11.19117 6.6905,3.58061 15.8971,0.0101 28.6465,-11.1097 4.5572,-3.97465 8.4314,-7.05523 8.6094,-6.84573 0.1779,0.20951 0.6107,1.57952 0.9616,3.04447 0.7616,3.17958 -3.9672,9.71675 -14.0855,19.47178 -11.2469,10.8432 -22.0975,14.82118 -29.4874,10.81042 z m 60.2006,-2.34144 c -7.3208,-7.69578 -9.3237,-27.03636 -3.9768,-38.40138 5.383,-11.44165 27.8855,-28.61212 37.5874,-28.68097 4.2939,-0.0305 6.405,2.65486 6.405,8.14706 0,5.75997 -4.4959,14.95633 -9.8838,20.21754 -4.4323,4.32803 -6.432,4.30198 -8.3273,-0.1085 -0.6566,-1.52793 -1.3413,-2.97907 -1.5214,-3.22475 -0.1802,-0.24568 -3.9125,3.11721 -8.2941,7.4731 -8.4033,8.35403 -9.9988,11.64633 -8.0844,16.6817 2.5292,6.6522 11.2775,7.99906 20.2611,3.11932 2.8629,-1.55509 8.7053,-6.11778 12.983,-10.13933 l 7.7776,-7.3119 0.8868,3.3119 c 0.7675,2.86695 0.4743,3.89367 -2.1826,7.64217 -4.9358,6.96377 -18.6728,19.52137 -24.5687,22.45944 -3.7153,1.85141 -7.0102,2.71029 -10.3974,2.71029 -4.4619,0 -5.3296,-0.39013 -8.6644,-3.89569 z m -839.024401,0.85576 c -2.8283,-2.82833 -3.96,-6.255 -3.96,-11.99022 0,-6.57129 2.2679,-12.98591 7.7001,-21.77876 2.4834,-4.0199 4.3332,-7.49106 4.1106,-7.71369 -0.2226,-0.22264 -3.4307,0.50301 -7.1291,1.61255 -5.9199,1.77601 -7.0389,2.51932 -9.354,6.21369 -1.4463,2.308 -5.2086,7.198 -8.360699,10.86667 l -5.7311,6.6703 -0.59,-3.63559 c -0.4421,-2.72426 -0.1277,-4.14563 1.254,-5.6703 1.0142,-1.1191 3.095,-3.96014 4.624,-6.31342 2.630399,-4.04857 2.683399,-4.34927 0.9855,-5.5908 -1.4401,-1.05302 -1.7001,-2.29332 -1.3169,-6.28129 0.6618,-6.88782 4.256899,-13.53827 10.520899,-19.46251 6.3197,-5.97691 8.7867,-6.14897 8.7867,-0.61281 0,2.05008 0,3.72705 0,3.72659 0,-0.32142 16.6469,-3.00048 18.6442,-3.00048 2.5661,0 3.244,0.62348 5.0041,4.60238 2.7994,6.32851 1.9022,10.00736 -4.1731,17.1119 -9.5412,11.15754 -13.3748,21.76983 -8.88,24.58213 2.9214,1.8279 7.1757,-0.35242 14.4495,-7.40542 l 7.2041,-6.98541 0.5643,2.79721 c 0.6535,3.23916 -1.0553,6.01138 -9.8234,15.93676 -11.8449,13.40817 -19.5646,17.28556 -24.5297,12.32052 z m 494.115901,-0.59062 c -6.5342,-8.30687 -4.6176,-18.77176 6.9119,-37.74094 2.1767,-3.58136 2.2091,-3.82916 0.4326,-3.30661 -1.0562,0.31068 -4.3954,1.28777 -7.4204,2.17131 -4.8708,1.42263 -5.8799,2.20142 -8.8203,6.80661 -1.8261,2.8601 -5.7527,7.90018 -8.7257,11.20018 l -5.4055,6 -0.024,-3.70209 c -0.018,-2.80457 1.0948,-5.30289 4.5915,-10.30507 4.3547,-6.22934 4.5119,-6.67902 2.7782,-7.94674 -4.6629,-3.40956 -0.1163,-16.91903 8.6415,-25.67679 6.5883,-6.5883 11.0951,-6.22192 9.3428,0.75952 -0.5494,2.18901 -0.3502,2.41268 1.7509,1.96668 8.8058,-1.86912 13.4154,-2.59551 16.471,-2.59551 3.0507,0 3.6885,0.44677 4.9508,3.46788 1.7296,4.13938 1.876,9.82945 0.3308,12.84786 -0.6151,1.20134 -2.6119,3.75926 -4.4374,5.68426 -5.958,6.28267 -10.5632,15.01027 -10.2355,19.39816 0.6134,8.21316 6.2064,7.3476 15.7633,-2.43944 3.7372,-3.8273 7.0724,-6.95872 7.4114,-6.95872 0.339,0 0.6164,1.55792 0.6164,3.46204 0,2.83481 -1.3335,5.06419 -7.3602,12.30526 -13.5524,16.28301 -22.5092,21.028 -27.5638,14.60215 z m 53.3106,0.72453 c -8.8628,-5.40435 -12.0951,-27.31349 -5.9954,-40.63707 2.7602,-6.0291 10.7737,-15.08459 17.3758,-19.63522 4.6127,-3.17937 14.1394,-6.82169 17.8426,-6.82169 6.4692,0 10.029,4.85035 6.9777,9.50729 -0.9366,1.42933 -1.1751,2.49271 -0.5592,2.49271 0.5907,0 1.7758,1.67945 2.6334,3.73211 1.9467,4.65912 1.2591,11.64102 -2.0423,20.73621 l -2.3709,6.53168 2.4188,0 c 1.4894,0 4.2784,-1.73959 7.2593,-4.52785 l 4.8407,-4.52786 0.6811,3.63084 c 1.2818,6.83247 -6.8277,15.1923 -16.905,17.4269 -3.7619,0.83419 -6.2303,2.30357 -10.2394,6.09517 -8.3396,7.8873 -15.5718,9.86608 -21.9172,5.99678 z m 13.8131,-13.98105 c 3.1683,-2.83083 3.2326,-3.05975 3.3003,-11.75 0.056,-7.23932 0.5535,-10.00734 2.7134,-15.10998 3.0575,-7.22354 2.7426,-7.20193 -6.7038,0.46022 -7.3594,5.96935 -11.5624,13.63013 -11.7393,21.39738 -0.091,3.97388 0.3117,5.47619 1.7472,6.52586 3.0313,2.21653 7.1546,1.62847 10.6822,-1.52348 z m 392.0102,13.41015 c -9.5773,-8.05878 -10.8759,-31.5828 -2.4782,-44.89194 6.7077,-10.63069 20.3715,-20.02697 30.9433,-21.27905 4.6353,-0.54899 5.4187,-0.34933 7.7411,1.9731 2.9147,2.91463 3.1843,4.47145 1.2362,7.13584 -1.1585,1.58429 -1.0883,2.10291 0.5,3.69113 2.8148,2.81483 2.5271,13.94109 -0.5913,22.86662 l -2.4392,6.98122 2.4819,0 c 1.5632,0 4.2679,-1.67043 7.3063,-4.51255 l 4.8242,-4.51255 0.5944,3.66234 c 0.6814,4.19922 -0.8544,6.89472 -7.1891,12.61773 -2.8347,2.56098 -5.54,3.89399 -9.6234,4.74169 -4.5515,0.9449 -6.3722,1.94515 -9.1628,5.03405 -4.2972,4.75646 -12.5041,8.96929 -17.4729,8.96929 -2.5072,0 -4.6904,-0.81065 -6.6706,-2.47692 z m 12.1059,-11.64804 c 5.6637,-2.91694 6.4106,-4.44937 5.9257,-12.15637 -0.3584,-5.69481 2e-4,-8.48527 1.6987,-13.21867 1.1841,-3.3 2.4313,-6.87099 2.7715,-7.93552 0.4452,-1.39269 -1.0403,-0.65259 -5.2965,2.63888 -3.2533,2.51592 -6.9056,5.64251 -8.1163,6.94798 -2.9674,3.19993 -6.1767,10.67902 -6.925,16.1385 -0.5101,3.72157 -0.2576,4.82639 1.5067,6.59062 2.3579,2.35789 5.1492,2.68701 8.4352,0.99458 z M -10.723951,450.66505 c -3.7438,-4.51103 -1.3195,-13.2153 4.8238003,-17.3193 6.09299995,-4.07033 10.1326,-2.30129 10.0802,4.41433 -0.031,3.91792 -3.30220005,10.72896 -6.0923,12.68324 -2.8647,2.00646 -7.2391,2.11653 -8.8117003,0.22173 z m 850.128801,0.15518 c -4.856,-5.85117 0.3064,-17.69624 8.4196,-19.31891 6.0827,-1.21654 8.1852,4.9971 4.4638,13.192 -1.0285,2.26462 -2.9187,4.85212 -4.2006,5.75 -2.7711,1.94102 -7.2242,2.13433 -8.6828,0.37691 z M 70.00525,292.73571 c -7.3369,-2.06773 -12.6816,-6.13066 -15.0205,-11.41818 -1.8046,-4.07949 -1.9062,-5.1949 -0.879,-9.64526 0.6389,-2.76777 2.2513,-6.89167 3.5831,-9.16423 5.5528,-9.4751 22.3348,-21.58242 42.5927,-30.72823 12.6317,-5.70283 11.8086,-4.92038 10.8082,-10.27547 -0.952,-5.09595 -5.626,-14.42852 -7.2261,-14.42852 -0.5613,0 -7.2096,4.06737 -14.774,9.0386 -21.8786,14.37823 -39.1763,24.48518 -56.387601,32.94696 -18.8058,9.24566 -26.6179997,12.01605 -43.5111,15.43005 -49.6419,10.03234 -99.773599,1.49393 -131.952499,-22.4741 -8.7413,-6.5109 -20.4,-18.50761 -25.6062,-26.34865 l -3.6242,-5.45855 -8.153,7.05934 c -39.9203,34.56531 -88.6394,44.12396 -139.2435,27.31945 -39.6688,-13.17314 -71.3689,-29.78892 -107.3626,-56.27471 -1.4835,-1.09162 -2.7369,-0.38927 -9.3019,5.21233 -4.1731,3.56067 -8.3866,7.82678 -9.3633,9.48025 -0.9768,1.65347 -2.4193,3.25318 -3.2056,3.55492 -1.7599,0.67536 -4.1761,-1.19939 -4.1761,-3.2403 0,-5.04685 11.9644,-16.37499 29.9585,-28.36538 10.0194,-6.67639 42.8949,-23.88021 45.6338,-23.88021 2.9223,0 2.2003,-2.24476 -2.6394,-8.2057 -6.0933,-7.5049 -17.0892,-23.82311 -19.51,-28.95341 -1.9507,-4.13384 -1.4083,-6.84089 1.3707,-6.84089 2.3348,0 3.9653,1.87849 8.2457,9.5 3.1686,5.64197 20.0652,28.84088 21.7758,29.89809 0.4325,0.26732 5.6509,-1.05772 11.5965,-2.94453 23.0215,-7.30587 45.246,-10.72618 69.5684,-10.70644 33.3537,0.0271 57.5059,5.75292 96.9236,22.978 1.075,0.46976 1.2374,0.15106 0.6634,-1.30151 -0.4181,-1.05799 -1.011,-7.17954 -1.3175,-13.60345 -0.595,-12.46823 0.4308,-20.27145 3.8748,-29.47633 3.5517,-9.4929 14.7725,-19.612513 24.8557,-22.416373 2.475,-0.68823 8.775,-3.06581 14,-5.28351 8.4731,-3.59634 10.3647,-4.02961 17.5,-4.00839 21.933,0.0652 38.608399,16.80883 40.199899,40.364443 1.3946,20.64186 -10.757199,41.73122 -32.561599,56.51025 l -7.3617,4.98975 14.3912,4.6528 c 23.518199,7.60365 33.468299,9.34736 53.332199,9.34626 13.1985,-7.3e-4 18.4386,-0.39795 23.4337,-1.77638 9.4907,-2.61903 17.7686,-6.60104 24.8692,-11.96301 6.7714003,-5.11337 8.2623003,-5.59091 10.1929003,-3.26468 1.9001,2.28946 -0.7531,5.52523 -9.0567003,11.04546 -26.9496,17.91609 -62.2632,18.08921 -112.965999,0.55378 l -14.2407,-4.92508 -7.6162,6.50386 c -4.1889,3.57713 -9.966,7.92657 -12.8379,9.66543 -2.8719,1.73886 -5.2344,3.67278 -5.25,4.29761 -0.052,2.07017 7.7423,12.81602 13.7986,19.02454 21.6982,22.24373 52.638599,34.55272 92.683399,36.87213 l 12.0103,0.69565 1.75,-3.66972 c 2.2587,-4.73655 17.5982,-20.61004 29.6889,-30.72242 21.1131003,-17.65843 52.981401,-33.34309 75.921401,-37.36636 15.4932,-2.71721 26.8631,-1.64999 38.0139,3.5681 7.599,3.55599 4.3805,5.03283 28.9035,-13.26265 30.1658,-22.5052 53.599,-42.97936 59.3512,-51.85644 3.5004,-5.40203 7.1635,-6.65865 8.366,-2.86992 2.1445,6.75679 -27.816,34.55378 -71.0155,65.88726 -7.15,5.18604 -13.2091,9.59353 -13.4647,9.79443 -0.2555,0.2009 0.091,1.13119 0.7711,2.06731 2.6847,3.69803 6.1769,11.90821 6.7823,15.94518 0.3511,2.34127 0.8265,4.25686 1.0565,4.25686 0.2299,0 4.8304,-1.3108 10.2233,-2.9129 13.3356,-3.96172 32.0848,-7.03603 47.1315,-7.72819 9.8874,-0.45482 17.5161,-0.012 36.5,2.11875 28.7911,3.2315 61.2089,4.3342 76.5009,2.6022 34.3964,-3.8958 58.5878,-16.45127 72.1612,-37.4521 5.2729,-8.15817 6.8379,-14.07233 6.8379,-25.84138 0,-10.52722 -1.2102,-15.04099 -4.9723,-18.54595 -2.7308,-2.54408 -2.4238,-6.61226 0.5309,-7.0349 1.1322,-0.16196 3.2136,0.61406 4.6253,1.72448 2.6196,2.06065 9.2502,13.93789 13.3887,23.98301 l 2.3018,5.58698 1.2224,-3.42728 c 0.6723,-1.88501 3.5854,-8.24206 6.4735,-14.12678 6.8878,-14.03419 11.8994,-18.69969 15.468,-14.39976 1.0667,1.28535 0.9198,2.00231 -0.8709,4.25 -4.0895,5.13294 -5.3412,8.46245 -5.8851,15.65344 -0.6296,8.32515 1.0076,19.23993 3.6673,24.44798 5.9399,11.63128 18.378,23.87392 30.9865,30.49949 8.7056,4.57467 22.1735,9.02874 34.0639,11.26552 15.4682,2.90982 53.832,2.46633 84.3059,-0.9746 26.7246,-3.01758 39.3659,-3.30172 54.6941,-1.22938 14.7726,1.99722 31.9036,5.88099 40.5127,9.18463 0.8323,0.31936 1.6806,-1.31438 2.5082,-4.83034 1.4789,-6.28264 3.9225,-11.40382 7.4313,-15.57375 1.4013,-1.66533 2.5478,-3.26914 2.5478,-3.56402 0,-0.29487 -7.0875,-5.45714 -15.75,-11.47171 -32.3202,-22.44061 -52.2831,-38.21321 -64,-50.566 -7.3942,-7.7955 -8.8082,-11.09936 -5.8139,-13.58439 1.7415,-1.44536 5.5639,0.22168 5.5639,2.42658 0,5.03917 38.2826,35.96266 74.6234,60.27839 l 12.1233,8.11179 6.3767,-2.58191 c 15.9914,-6.475 41.8994,-3.10785 67.6752,8.79546 11.9768,5.53093 30.7479,16.8698 39.8432,24.06763 10.551,8.34995 30.5888,28.57591 32.2256,32.52814 l 1.3165,3.17914 8.6581,0.33358 c 48.9684,1.88671 90.5972,-13.56397 113.7489,-42.21836 5.5797,-6.90595 5.6435,-7.05694 3.827,-9.06411 -1.016,-1.12265 -6.1382,-4.85885 -11.3825,-8.30267 -5.2445,-3.44383 -12.1006,-8.61397 -15.2359,-11.48922 l -5.7005,-5.22771 -14.6781,5.07028 c -40.8502,14.11088 -68.6834,16.63341 -94.2066,8.53794 -13.14,-4.16776 -28.6271,-14.59928 -28.0177,-18.87159 0.5093,-3.56945 4.3125,-3.20352 9.0619,0.87188 5.3081,4.55485 18.1969,10.93943 26.7415,13.2466 9.7986,2.64578 35.9406,2.36237 49.9999,-0.54207 10.7656,-2.224 40.0102,-11.09275 39.9874,-12.12664 -0.01,-0.3169 -2.5909,-2.15118 -5.742,-4.07618 -3.151,-1.925 -9.5706,-7.325 -14.2656,-12 -13.0454,-12.98971 -19.1376,-26.32078 -19.1376,-41.87743 0,-9.05051 1.2385,-14.35856 5.166,-22.138843 5.1754,-10.25226 14.5401,-17.62844 26.1605,-20.60545 8.8625,-2.27049 15.4442,-1.41402 26.9529,3.50733 5.2917,2.26291 10.2937,4.11439 11.1156,4.11439 0.8218,0 4.6871,1.59736 8.5896,3.5497 16.2719,8.1405 27.5165,28.087313 29.7542,52.781013 l 0.6651,7.34027 12.5125,-4.88785 c 26.01815,-10.16369 47.32405,-14.09637 76.24145,-14.07279 25.9869,0.0212 49.5395,3.81024 72.7451,11.70295 l 7.2139,2.45363 4.4051,-5.18346 c 6.2791,-7.38861 15.1324,-19.95812 19.2752,-27.3662 4.1183,-7.36422 6.4267,-9.10845 8.8488,-6.68634 0.8948,0.89483 1.3574,2.35644 1.028,3.24802 -1.4521,3.93021 -10.6819,18.22295 -18.1447,28.09779 l -8.1287,10.75585 5.6287,2.28065 c 11.3311,4.59126 31.2085,15.22141 42.784,22.88032 12.4299,8.22432 26.4249,20.42719 28.8866,25.18776 3.3486,6.4753 -2.5959,8.33438 -6.8804,2.15181 -2.2954,-3.31212 -6.5409,-7.31558 -14.3843,-13.56387 -2.2818,-1.81777 -2.3494,-1.79238 -9.5377,3.58316 -15.0605,11.26246 -32.8364,22.24882 -49.7931,30.77448 -21.7872,10.95437 -54.4443,23.1757 -70.6275,26.43101 -41.6344,8.37493 -84.14145,-2.075 -115.98735,-28.51432 l -4.8316,-4.01131 -2.3332,2.78387 c -9.1148,10.87542 -13.2125,14.937 -20.9175,20.73313 -15.7269,11.83073 -35.1752,20.24246 -56.9838,24.64662 -13.4603,2.71824 -45.3089,3.75531 -60.0616,1.95575 -24.0602,-2.93489 -42.8709,-8.89132 -68.3877,-21.65503 -15.4917,-7.7491 -40.9077,-22.27728 -58.1481,-33.23837 -7.0575,-4.48703 -13.2099,-8.15824 -13.672,-8.15824 -2.113,0 -7.8784,8.51993 -9.3752,13.85436 -2.1337,7.60442 -2.051,8.87897 0.6291,9.70077 1.2375,0.37946 7.2162,3.06512 13.2861,5.96815 13.4681,6.44138 27.6491,15.78423 33.3569,21.97645 7.9183,8.59039 11.1589,19.6559 7.702,26.29993 -5.0976,9.79747 -20.9183,14.32287 -34.3152,9.81565 -6.2222,-2.09337 -14.2771,-8.99583 -18.7994,-16.10971 -5.7102,-8.98265 -10.4804,-25.0813 -10.4804,-35.3697 l 0,-4.73335 -3.75,-0.0962 c -2.0625,-0.0529 -13.875,-0.41313 -26.25,-0.80048 -27.5945,-0.86373 -34.2691,0.005 -64.2698,8.36062 -54.3918,15.14969 -82.9371,16.83927 -113.2315,6.70211 -25.4246,-8.50756 -45.3845,-22.75921 -54.4984,-38.91251 l -3.2973,-5.84392 -3.4766,6.58579 c -10.3688,19.64171 -35.2671,35.95553 -66.7264,43.72034 -10.5329,2.59973 -31.8054,3.51747 -45.5,1.96298 -14.8492,-1.68554 -32.1803,-5.37345 -54.5512,-11.60806 -29.209,-8.14034 -33.8891,-8.88074 -56.4488,-8.93034 -10.725,-0.0236 -23.8371,0.18212 -29.1379,0.45712 l -9.6379,0.5 -0.685,6.87492 c -1.5896,15.95411 -7.2487,30.74889 -15.1033,39.48508 -8.4846,9.43695 -22.4999,13.93744 -33.6327,10.79989 z m 15.9181,-7.16978 c 13.5175,-4.01426 23.6849,-21.30318 25.7996,-43.87026 l 0.7137,-7.61582 -3.8673,1.61472 c -25.0901,10.4759 -44.2959,24.91125 -47.2683,35.52739 -2.0395,7.28456 0.5733,11.18785 9.66,14.43093 4.9451,1.76492 8.8018,1.74251 14.9623,-0.087 z m 610.3083,-1.58988 c 6.9691,-1.49461 11.9704,-5.89657 11.9704,-10.53594 0,-8.00663 -6.4278,-16.21553 -19.428,-24.81153 -7.7112,-5.0988 -19.6121,-11.45863 -27.9713,-14.94787 l -3.8994,-1.62763 0.5848,8.26137 c 1.147,16.20428 8.7575,33.0546 17.7412,39.28029 3.5345,2.44941 11.0109,5.20772 14.6735,5.41359 0.6604,0.0371 3.5084,-0.42741 6.3288,-1.03228 z M -22.594351,259.54523 c 21.89480025,-3.28854 33.2175,-7.04778 55.9124,-18.56334 22.100801,-11.21415 64.211701,-37.32981 63.540701,-39.40565 -0.6493,-2.00869 -10.3727,-4.73231 -18.6567,-5.22597 -20.6526,-1.23072 -48.612401,8.78518 -77.1642007,27.6421 -10.0216,6.61877 -33.1040003,27.43818 -37.9215003,34.20379 l -2.0505,2.87966 3.0746,0 c 1.6911,0 7.6604,-0.68876 13.2652,-1.53059 z m 826.889201,-5.35228 c -3.9004,-4.92457 -18.3725,-18.64559 -26.9856,-25.58497 -18.3546,-14.78791 -47.4521,-28.90703 -68.2638,-33.12402 -9.5037,-1.92569 -25.2851,-1.54071 -30.7758,0.75077 l -3.4324,1.43247 15.4324,9.55992 c 39.9009,24.71743 72.2038,40.79359 92.3811,45.97519 7.3984,1.89994 20.1872,4.50595 23.3853,4.76532 0.7667,0.0622 0.026,-1.54326 -1.7412,-3.77468 z m -497.4782,-6.66508 c 11.224,-1.95731 23.9456,-6.20472 34.5883,-11.54814 23.7703,-11.93454 36.4543,-26.96934 39.1879,-46.45093 0.7508,-5.35045 -0.9122,-19.50372 -3.0398,-25.87069 l -1.6983,-5.08229 -1.198,7 c -1.4695,8.58565 -3.155,12.70347 -8.2672,20.19731 -3.9786,5.83216 -15.05,17.0561 -20.7449,21.03073 -9.885,6.89897 -25.969,13.09714 -42.89,16.52822 -9.8739,2.00212 -13.9321,2.23652 -38.0526,2.19788 -22.6146,-0.0362 -30.8667,-0.48268 -50.8059,-2.7487 -25.7966,-2.93168 -34.3492,-3.23041 -48.1941,-1.68336 -8.8391,0.98769 -28.1634,4.54862 -31.6244,5.82749 -0.9681,0.35774 8.4513,0.65043 20.932,0.65043 26.517,0 28.7635,0.3339 60.7574,9.03029 23.8378,6.47943 38.8374,9.81818 50.935,11.33756 11.5649,1.45248 30.5282,1.25592 40.1146,-0.4158 z m 196.0842,-1.98976 c 14.0189,-1.82669 30.9219,-5.59949 52.8012,-11.7854 26.9382,-7.61623 30.8642,-8.17098 57.8481,-8.17412 26.3734,-0.003 26.728,-0.39492 4.1519,-4.58817 -18.6734,-3.46836 -35.2182,-3.5549 -63.5,-0.33214 -31.3129,3.56817 -69.1234,4.03958 -85.5,1.066 -21.0129,-3.81542 -39.5484,-11.80476 -52.4522,-22.60838 -10.4192,-8.72349 -20.3761,-23.86689 -21.546,-32.76919 -1.1672,-8.88257 -1.9978,-9.44422 -4.0975,-2.77089 -1.4094,4.47929 -1.8899,9.04142 -1.8961,18 -0.01,11.73351 0.072,12.16656 3.5954,19.5 7.5794,15.77435 21.3745,27.44335 43.0005,36.37323 22.1304,9.13819 41.6323,11.47198 67.5947,8.08906 z m -750.8215,-1.99851 c 16.7981,-3.18654 33.6979,-10.25398 49.009,-20.49541 4.9758,-3.32828 9.2883,-6.44188 9.5832,-6.9191 0.2949,-0.47723 -2.2775,0.002 -5.7166,1.06451 -18.6727,5.77 -49.8356,7.68193 -69.8267,4.28406 -11.7858,-2.00321 -26.293,-6.56916 -35.4262,-11.14992 -16.1114,-8.08065 -40.1824,-26.13313 -57.9841,-43.48625 -6.0588,-5.90608 -11.6186,-10.74358 -12.3551,-10.75 -4.044,-0.0352 -40.4533,18.71159 -49.602,25.53959 -2.3403,1.74668 -3.2473,0.91696 13.4412,12.29561 38.8209,26.4691 88.2754,47.41471 120.7346,51.13506 10.0266,1.14922 27.8136,0.44126 38.1427,-1.51815 z M 1063.202,241.54267 c 23.8263,-3.87815 64.6629,-20.4117 95.2523,-38.56496 12.2303,-7.2581 31.7477,-20.81279 31.7477,-22.04857 0,-2.08191 -23.2785,-15.3358 -39.4584,-22.46607 l -11.9584,-5.26993 -12.5416,12.2218 c -25.7513,25.09467 -51.416,42.23424 -74.0416,49.44699 -15.6112,4.9766 -28.697,6.55507 -49,5.91057 -17.08695,-0.54242 -27.36075,-2.08475 -40.24995,-6.04244 -2.6125,-0.80218 -4.75,-1.29174 -4.75,-1.08792 0,0.73969 10.6701,8.18528 17.6261,12.29962 25.92115,15.33153 56.01545,20.70498 87.37385,15.60091 z M -223.29795,215.55398 c 16.5024,-1.36192 46.5,-10.40531 46.5,-14.0184 0,-0.71167 -0.9487,-3.46876 -2.1081,-6.12685 -1.1595,-2.6581 -3.5861,-10.68291 -5.3925,-17.83291 l -3.2843,-13 -13.0717,-5.71999 c -42.6141,-18.64729 -81.1312,-23.5199 -124.7591,-15.78263 -10.4668,1.85624 -35.1387,8.40151 -36.336,9.63967 -0.8546,0.8837 20.2726,20.77357 30.3734,28.59455 31.4569,24.35681 50.4889,32.50793 81.0783,34.72459 9.8729,0.71545 13.2666,0.65536 27,-0.47803 z m 1262.59765,-4.30905 c 20.1485,-4.72308 33.5038,-11.46758 55.7538,-28.15598 11.7049,-8.77917 35.1485,-30.19972 35.1485,-32.11544 0,-0.45837 -3.7126,-1.96009 -8.25,-3.33715 -49.1913,-14.92883 -95.8744,-13.54949 -140.74995,4.15874 -6.325,2.49589 -11.9935,5.0426 -12.5967,5.65935 -0.6031,0.61675 -1.6243,5.28852 -2.2695,10.3817 -1.2778,10.08737 -4.9944,23.0232 -8.7505,30.45643 -1.3109,2.59421 -2.3834,5.16725 -2.3834,5.71785 0,1.3847 15.4453,5.9834 27.5,8.18791 13.7886,2.52158 43.94015,2.01366 56.59765,-0.95341 z m -87.23795,-17.4868 c 1.6755,-4.02474 3.9362,-10.66224 5.0236,-14.75 2.0354,-7.65086 3.6631,-17.93231 2.839,-17.93231 -0.2559,0 -8.9607,3.76548 -19.3439,8.36774 -10.3832,4.60225 -19.891,8.68258 -21.1285,9.06738 -1.2375,0.38481 -2.25,1.08454 -2.25,1.55494 0,0.94052 8.4983,8.27713 13.9692,12.05968 4.5159,3.12227 15.2046,8.81798 16.6875,8.89229 0.6362,0.0319 2.5275,-3.23499 4.203,-7.25972 z m -1106.523,-5.42876 c 3.7603,-3.01399 6.4603,-5.82618 6,-6.24932 -1.5685,-1.44212 -29.5473,-13.12703 -30.1025,-12.57185 -0.7598,0.75983 4.1195,18.97779 6.6543,24.84515 l 2.064,4.77753 4.2737,-2.66076 c 2.3506,-1.46342 7.3503,-5.12676 11.1105,-8.14075 z m 18.3586,-20.614 c 5.7096,-8.63829 10.6007,-20.93354 12.3705,-31.09634 3.0786,-17.67846 -7.1176,-36.886013 -21.8548,-41.170253 -9.6401,-2.80244 -20.2966,0.73476 -28.4391,9.439793 -6.1801,6.60702 -8.8363,14.07522 -9.5062,26.7283 -0.5723,10.80928 1.1912,26.97679 3.0776,28.21423 3.267,2.14317 36.3761,16.20463 37.6567,15.99283 0.825,-0.13646 3.8379,-3.78531 6.6953,-8.10856 z m 1065.6678,-1.06341 c 9.4253,-4.08313 20.1744,-8.81261 23.8869,-10.50996 l 6.75,-3.08609 -0.013,-5.24005 c -0.021,-8.28149 -3.5618,-23.3124 -7.392,-31.37773 -13.9077,-29.285763 -44.3858,-32.266163 -56.882,-5.56239 -5.6666,12.10905 -4.6921,26.50719 2.9238,43.20008 3.6563,8.0139 11.2784,20 12.7184,20 0.4791,0 8.5826,-3.34074 18.008,-7.42386 z m -1054.5433,3.25504 c 2.5741,-1.74284 7.8616,-6.41227 11.75,-10.3765 15.013899,-15.3067 19.963999,-34.26194 13.475799,-51.60302 -4.145499,-11.079933 -15.414499,-19.879253 -27.372099,-21.373243 -8.234,-1.02877 -17.5195,2.16613 -11.6811,4.01917 3.7099,1.1775 11.6284,8.23646 14.8219,13.213103 10.9393,17.04739 10.1595,37.16216 -2.3663,61.03931 -2.3804,4.5375 -4.0985,8.25 -3.8182,8.25 0.2804,0 2.6159,-1.42597 5.19,-3.16882 z m 1019.2158,-9.16029 c -10.2583,-20.4538 -11.6473,-39.75097 -3.9476,-54.84343 2.7928,-5.47445 10.3068,-13.388513 15.7282,-16.565623 5.1815,-3.03666 4.296,-4.08514 -4.1906,-4.96103 -14.7346,-1.52075 -29.8246,9.25631 -34.2434,24.456063 -4.566,15.70665 0.2048,32.94907 13.001,46.98671 4.4133,4.84161 17.614,15.59251 18.3014,14.90511 0.1301,-0.1301 -1.9619,-4.62011 -4.6489,-9.9778 z m -514.1201,-48.94104 c -3.0714,-2.87642 -9.4966,-8.7602 -14.2782,-13.075073 -9.6308,-8.69069 -12.6373,-13.42968 -12.6373,-19.91916 0,-8.95266 8.7772,-17.74069 17.7101,-17.73188 4.0232,0.004 9.7559,2.87056 12.3641,6.18263 1.5568,1.97688 1.5929,1.97053 3.2594,-0.57284 6.1272,-9.35133 22.6283,-6.51503 27.7532,4.77038 4.588,10.1031 1.8086,16.01783 -15.4445,32.866093 -7.1809,7.0125 -13.0757,12.74093 -13.0993,12.72985 -0.024,-0.0111 -2.556,-2.37359 -5.6275,-5.25 z m 25.7519,-20.096563 c 4.105,-4.85571 6.6173,-11.30191 5.8984,-15.13423 -1.2346,-6.58085 -7.2974,-11.49906 -14.1752,-11.49906 -3.1212,0 -4.3685,0.71865 -7.8734,4.53624 -4.3955,4.78755 -6.5641,5.11317 -8.6088,1.2926 -1.457,-2.72238 -6.8865,-5.82067 -10.2081,-5.8251 -6.5973,-0.009 -13.7038,7.24391 -13.6966,13.9784 0.01,5.98158 4.0123,11.05771 17.7182,22.451673 5.0721,4.2165 9.4958,8.10945 9.8305,8.65101 0.6122,0.99056 16.1785,-12.612143 21.115,-18.451533 z"
       id="path3022"
       inkscape:connector-curvature="0" />
  </g>
</svg>
