<?xml version="1.0" encoding="UTF-8" standalone="no"?>
<!-- Created with Inkscape (http://www.inkscape.org/) -->

<svg
   xmlns:dc="http://purl.org/dc/elements/1.1/"
   xmlns:cc="http://creativecommons.org/ns#"
   xmlns:rdf="http://www.w3.org/1999/02/22-rdf-syntax-ns#"
   xmlns:svg="http://www.w3.org/2000/svg"
   xmlns="http://www.w3.org/2000/svg"
   xmlns:sodipodi="http://sodipodi.sourceforge.net/DTD/sodipodi-0.dtd"
   xmlns:inkscape="http://www.inkscape.org/namespaces/inkscape"
   id="svg2"
   version="1.1"
   inkscape:version="0.48.4 r9939"
   width="268.86075"
   height="60.497501"
   xml:space="preserve"
   sodipodi:docname="61854-OAIIE6-141.eps"><metadata
     id="metadata8"><rdf:RDF><cc:Work
         rdf:about=""><dc:format>image/svg+xml</dc:format><dc:type
           rdf:resource="http://purl.org/dc/dcmitype/StillImage" /><dc:title></dc:title></cc:Work></rdf:RDF></metadata><defs
     id="defs6"><clipPath
       clipPathUnits="userSpaceOnUse"
       id="clipPath20"><path
         d="m 0,3819 4532,0 0,4181 -4532,0 0,-4181 z"
         id="path22"
         inkscape:connector-curvature="0" /></clipPath><clipPath
       clipPathUnits="userSpaceOnUse"
       id="clipPath32"><path
         d="m 4516,2777 3484,0 0,5223 -3484,0 0,-5223 z"
         id="path34"
         inkscape:connector-curvature="0" /></clipPath><clipPath
       clipPathUnits="userSpaceOnUse"
       id="clipPath44"><path
         d="m 0,0 4532,0 0,3834 L 0,3834 0,0 z"
         id="path46"
         inkscape:connector-curvature="0" /></clipPath><clipPath
       clipPathUnits="userSpaceOnUse"
       id="clipPath56"><path
         d="m 4516,0 3484,0 0,2792 -3484,0 0,-2792 z"
         id="path58"
         inkscape:connector-curvature="0" /></clipPath></defs><sodipodi:namedview
     pagecolor="#ffffff"
     bordercolor="#666666"
     borderopacity="1"
     objecttolerance="10"
     gridtolerance="10"
     guidetolerance="10"
     inkscape:pageopacity="0"
     inkscape:pageshadow="2"
     inkscape:window-width="1280"
     inkscape:window-height="776"
     id="namedview4"
     showgrid="false"
     fit-margin-top="0"
     fit-margin-left="0"
     fit-margin-right="0"
     fit-margin-bottom="0"
     inkscape:zoom="0.6675088"
     inkscape:cx="217.91623"
     inkscape:cy="-35.852016"
     inkscape:window-x="0"
     inkscape:window-y="24"
     inkscape:window-maximized="1"
     inkscape:current-layer="g12" /><g
     id="g10"
     inkscape:groupmode="layer"
     inkscape:label="ink_ext_XXXXXX"
     transform="matrix(1.25,0,0,-1.25,-320.86735,639.08581)"><g
       id="g12"
       transform="matrix(0.1,0,0,0.1,-2.3969721,-5.9924304)"><g
         id="g3556"
         transform="translate(1162.5315,791.00081)"><path
           sodipodi:nodetypes="csssssc"
           inkscape:connector-curvature="0"
           id="path262"
           style="fill:#000000;fill-opacity:1;fill-rule:nonzero;stroke:none"
           d="m 3494.08,3897.63 -673.6,0 c -2.43,0 -4.41,1.97 -4.41,4.41 0,2.44 1.98,4.41 4.41,4.41 l 673.6,0 c 2.44,0 4.41,-1.97 4.41,-4.41 0,-2.44 -1.97,-4.41 -4.41,-4.41" /><path
           sodipodi:nodetypes="csscccccccccccc"
           inkscape:connector-curvature="0"
           id="path264"
           style="fill:#000000;fill-opacity:1;fill-rule:nonzero;stroke:none"
           d="m 3488.93,3897.63 c -2.44,0 -4.41,1.97 -4.41,4.41 0,2.44 1.97,4.41 4.41,4.41 29.4,0 47.58,6.12 64.86,21.83 13,11.81 21.95,32.45 12.94,47.44 -8.21,13.65 -27.89,16.08 -41.42,10.51 -4.02,-1.66 -11.21,-5.45 -14.21,-12.25 -2.07,-4.72 -1.47,-11.74 3.13,-14.84 2.02,-1.37 2.55,-4.1 1.19,-6.13 -1.37,-2.01 -4.1,-2.54 -6.13,-1.18 -7.6,5.13 -10.35,16.42 -6.26,25.7 3.14,7.14 9.86,13.13 18.92,16.86 17.27,7.1 41.57,3.77 52.34,-14.13 11.56,-19.22 1.42,-43.98 -14.57,-58.51 -18.84,-17.13 -39.35,-24.12 -70.79,-24.12" /><path
           sodipodi:nodetypes="ccccccccccccssc"
           inkscape:connector-curvature="0"
           id="path266"
           style="fill:#000000;fill-opacity:1;fill-rule:nonzero;stroke:none"
           d="m 2820.48,3897.63 c -104.5,0 -172.52,23.07 -234.75,79.63 -51.43,46.73 -84.36,125.83 -47.81,186.59 33.83,56.25 110.8,66.49 165.67,43.89 28.41,-11.7 49.34,-30.18 58.95,-52.02 10.48,-23.81 6.76,-58.27 -17.61,-74.71 -2.01,-1.35 -4.75,-0.83 -6.12,1.19 -1.36,2.02 -0.83,4.76 1.19,6.12 20.54,13.86 23.48,43.35 14.46,63.85 -8.68,19.75 -27.94,36.58 -54.23,47.41 -50.3,20.73 -123.77,11.21 -154.75,-40.28 -33.74,-56.08 -1.39,-132.28 46.18,-175.51 61.24,-55.65 125.4,-77.34 228.82,-77.34 2.44,0 4.41,-1.97 4.41,-4.41 0,-2.44 -1.97,-4.41 -4.41,-4.41" /><path
           sodipodi:nodetypes="cccccccccccccccccc"
           inkscape:connector-curvature="0"
           id="path268"
           style="fill:#000000;fill-opacity:1;fill-rule:nonzero;stroke:none"
           d="m 2819.09,3936.56 c -57.9,0 -141.38,11.04 -197.48,66.13 -16.94,16.63 -30.73,37.27 -39.88,59.67 -10.07,24.63 -12.6,44.33 -8.49,65.87 6.01,31.4 35.16,57.07 70.9,62.42 20.07,3.02 39.59,-0.39 54.96,-9.58 17.43,-10.44 28.95,-28.5 30.05,-47.13 0.15,-2.43 -1.71,-4.52 -4.14,-4.66 -2.5,-0.14 -4.52,1.7 -4.66,4.13 -0.94,15.77 -10.82,31.13 -25.78,40.08 -13.62,8.15 -31.09,11.15 -49.12,8.43 -31.59,-4.73 -58.31,-28 -63.54,-55.35 -3.82,-20 -1.51,-37.64 7.98,-60.88 8.71,-21.3 21.81,-40.91 37.9,-56.7 63.28,-62.15 163.79,-66.04 218.04,-62.82 2.51,0.17 4.52,-1.71 4.66,-4.14 0.15,-2.43 -1.71,-4.52 -4.14,-4.66 -8.15,-0.48 -17.34,-0.81 -27.26,-0.81" /><path
           sodipodi:nodetypes="csc"
           inkscape:connector-curvature="0"
           id="path270"
           style="fill:#000000;fill-opacity:1;fill-rule:nonzero;stroke:none"
           d="m 2875.4,3936.99 c 5.67,0 5.68,8.82 0,8.82 -5.68,0 -5.69,-8.82 0,-8.82" /><path
           sodipodi:nodetypes="csc"
           inkscape:connector-curvature="0"
           id="path272"
           style="fill:#000000;fill-opacity:1;fill-rule:nonzero;stroke:none"
           d="m 2899.19,3936.99 c 5.68,0 5.69,8.82 0,8.82 -5.67,0 -5.69,-8.82 0,-8.82" /><path
           sodipodi:nodetypes="csc"
           inkscape:connector-curvature="0"
           id="path274"
           style="fill:#000000;fill-opacity:1;fill-rule:nonzero;stroke:none"
           d="m 2924.82,3937.9 c 5.67,0 5.68,8.82 0,8.82 -5.68,0 -5.69,-8.82 0,-8.82" /><path
           sodipodi:nodetypes="cccccccccccccccccccccc"
           inkscape:connector-curvature="0"
           id="path276"
           style="fill:#000000;fill-opacity:1;fill-rule:nonzero;stroke:none"
           d="m 3052.68,3897.63 c -2.22,0 -4.12,1.67 -4.38,3.93 -0.27,2.42 1.48,4.6 3.9,4.87 63.51,7.06 120.32,14.75 172.35,37.42 31.76,13.84 59.15,33.1 79.2,55.7 13.62,15.35 24.01,32.39 29.28,47.98 5.97,17.7 4.54,31.21 -4.27,40.15 -15.45,15.7 -50.4,15.28 -76.92,6.75 -17.12,-5.5 -38.17,-22.03 -43.46,-41.85 -2.93,-10.95 2.15,-24.3 12.07,-31.72 4.6,-3.45 13.98,-8.24 25.03,-1.53 2.09,1.26 4.8,0.6 6.06,-1.48 1.27,-2.08 0.6,-4.79 -1.48,-6.06 -11.3,-6.87 -24.02,-6.14 -34.9,2 -12.69,9.5 -19.12,26.77 -15.3,41.07 6.16,23.08 29.46,41.6 49.28,47.97 28.2,9.05 67.12,10.11 85.9,-8.95 7.8,-7.91 15.23,-22.87 6.35,-49.17 -5.63,-16.69 -16.66,-34.8 -31.04,-51.01 -20.89,-23.55 -49.35,-43.59 -82.27,-57.94 -53.17,-23.16 -110.67,-30.96 -174.91,-38.1 l -0.49,-0.03" /><path
           sodipodi:nodetypes="ccccccccccccccccccccccccc"
           inkscape:connector-curvature="0"
           id="path278"
           style="fill:#000000;fill-opacity:1;fill-rule:nonzero;stroke:none"
           d="m 2511.58,4065.75 c 0,0 0.5,-2.38 1.36,-6.54 0.81,-4.19 2.16,-10.05 3.84,-16.99 1.88,-6.94 4.25,-14.96 7.05,-23.4 2.93,-8.39 6.3,-17.23 10.42,-25.62 2.08,-4.19 4.28,-8.3 6.68,-12.16 2.42,-3.79 4.8,-7.52 7.1,-11.13 2.16,-3.62 4.24,-7.12 6.21,-10.44 2.06,-3.22 3.92,-6.38 5.86,-9.1 1.81,-2.91 3.76,-5.19 5.39,-7.54 1.8,-2.19 3.38,-4.1 4.67,-5.68 2.9,-2.84 4.66,-4.89 4.66,-4.89 l -0.67,-1.63 c 0,0 -2.55,0.11 -7.21,1.08 -2.15,0.71 -4.87,1.62 -7.83,3.01 -2.73,1.59 -6.17,3.25 -9.14,5.82 -3.26,2.35 -6.29,5.32 -9.35,8.63 -2.98,3.32 -5.92,7.07 -8.32,11.23 -2.47,4.15 -4.45,8.7 -6.22,13.38 -1.71,4.69 -3.49,9.4 -4.94,14.19 -3.14,9.51 -5.38,19.19 -7.2,28.25 -1.82,9.08 -2.71,17.65 -3.35,24.97 -0.43,7.39 -0.88,13.46 -0.75,17.7 -0.01,4.25 -0.01,6.67 -0.01,6.67 l 1.75,0.19" /><path
           sodipodi:nodetypes="ccccccccccccccccc"
           inkscape:connector-curvature="0"
           id="path280"
           style="fill:#000000;fill-opacity:1;fill-rule:nonzero;stroke:none"
           d="m 2502.06,4161.96 c 0,0 -2.11,13.73 -4.52,34.32 -1.28,10.3 -2.81,22.31 -4.09,35.18 -1.48,12.87 -2.52,26.6 -3.74,40.33 -1.03,13.73 -4.03,27.45 -4.27,40.33 -0.09,12.87 1.95,24.88 4.21,35.17 2.33,10.3 5.29,18.88 7.84,24.89 2.5,6 4.57,9.43 4.57,9.43 l 3.53,0 c 0,0 2.06,-3.43 4.56,-9.43 2.55,-6.01 5.51,-14.59 7.84,-24.89 2.27,-10.29 4.3,-22.3 4.21,-35.17 -0.24,-12.88 -3.24,-26.6 -4.26,-40.33 -1.23,-13.73 -2.27,-27.46 -3.75,-40.33 -1.28,-12.87 -2.81,-24.88 -4.09,-35.18 -2.41,-20.59 -4.51,-34.32 -4.51,-34.32 l -3.53,0" /><path
           sodipodi:nodetypes="ccccccccccccccccccccccccccccccccc"
           inkscape:connector-curvature="0"
           id="path282"
           style="fill:#000000;fill-opacity:1;fill-rule:nonzero;stroke:none"
           d="m 2513.66,4154.19 c 0,0 0.91,2.76 2.5,7.61 0.8,2.42 1.68,5.37 3.12,8.67 1.4,3.29 2.79,7.15 4.68,11.15 1.96,3.95 3.82,8.42 6.33,12.85 2.45,4.47 5.09,9.16 8.26,13.77 2.96,4.75 6.47,9.35 10.05,14.05 3.72,4.58 7.56,9.25 11.82,13.55 l 6.39,6.49 c 2.26,2.04 4.51,4.07 6.75,6.09 4.59,3.91 9.29,7.68 14.36,10.54 10,5.98 20.79,8.97 29.93,10.5 4.67,0.51 8.86,1.11 12.67,0.84 3.8,-0.22 7.01,-0.16 9.69,-0.84 5.33,-1.02 8.21,-1.93 8.21,-1.93 l -0.01,-1.77 c 0,0 -2.92,-1.16 -7.74,-2.61 -2.42,-0.6 -5.26,-1.96 -8.48,-3.03 -3.25,-0.93 -6.69,-2.85 -10.5,-4.25 -1.92,-0.67 -3.79,-1.84 -5.77,-2.77 -1.98,-0.96 -4.09,-1.72 -6.08,-2.97 -2.02,-1.19 -4.13,-2.3 -6.29,-3.38 -2.11,-1.22 -4.27,-2.46 -6.46,-3.73 -4.48,-2.34 -8.99,-5.11 -13.65,-7.86 -4.62,-2.85 -9.09,-6.11 -13.4,-9.65 -4.35,-3.48 -8.38,-7.39 -12.33,-11.25 -3.83,-3.99 -7.64,-7.93 -10.94,-12.1 -3.53,-3.98 -6.42,-8.24 -9.43,-12.12 -3.02,-3.88 -5.39,-7.87 -7.86,-11.41 -2.38,-3.59 -4.22,-7.04 -6.05,-10.04 -1.84,-2.97 -3.18,-5.78 -4.4,-8.02 -2.39,-4.5 -3.75,-7.07 -3.75,-7.07 l -1.62,0.69" /><path
           sodipodi:nodetypes="csssssc"
           inkscape:connector-curvature="0"
           id="path284"
           style="fill:#000000;fill-opacity:1;fill-rule:nonzero;stroke:none"
           d="m 2187.16,3897.63 -673.6,0 c -2.43,0 -4.41,1.97 -4.41,4.41 0,2.44 1.98,4.41 4.41,4.41 l 673.6,0 c 2.44,0 4.41,-1.97 4.41,-4.41 0,-2.44 -1.97,-4.41 -4.41,-4.41" /><path
           sodipodi:nodetypes="ccccccccccccssc"
           inkscape:connector-curvature="0"
           id="path286"
           style="fill:#000000;fill-opacity:1;fill-rule:nonzero;stroke:none"
           d="m 1518.72,3897.63 c -31.45,0 -51.96,6.99 -70.8,24.12 -15.99,14.53 -26.13,39.29 -14.57,58.51 10.76,17.9 35.07,21.24 52.35,14.13 9.06,-3.73 15.78,-9.72 18.91,-16.86 4.09,-9.28 1.34,-20.57 -6.26,-25.7 -2,-1.37 -4.76,-0.83 -6.12,1.18 -1.36,2.02 -0.83,4.76 1.19,6.13 4.59,3.1 5.2,10.12 3.12,14.84 -2.99,6.8 -10.18,10.59 -14.2,12.25 -13.52,5.57 -33.21,3.14 -41.43,-10.51 -9.01,-14.99 -0.06,-35.63 12.94,-47.44 17.28,-15.71 35.47,-21.83 64.87,-21.83 2.43,0 4.41,-1.97 4.41,-4.41 0,-2.44 -1.98,-4.41 -4.41,-4.41" /><path
           sodipodi:nodetypes="csscccscscccccc"
           inkscape:connector-curvature="0"
           id="path288"
           style="fill:#000000;fill-opacity:1;fill-rule:nonzero;stroke:none"
           d="m 2187.16,3897.63 c -2.44,0 -4.41,1.97 -4.41,4.41 0,2.44 1.97,4.41 4.41,4.41 103.43,0 167.58,21.69 228.82,77.34 47.57,43.23 79.91,119.43 46.18,175.51 -30.96,51.49 -104.44,61.01 -154.75,40.28 -26.28,-10.82 -45.54,-27.66 -54.23,-47.41 -9.02,-20.5 -6.08,-49.99 14.46,-63.85 2.02,-1.36 2.55,-4.1 1.19,-6.12 -1.36,-2.02 -4.09,-2.54 -6.12,-1.19 -24.36,16.44 -28.09,50.9 -17.6,74.71 9.6,21.85 30.54,40.32 58.94,52.02 54.88,22.59 131.84,12.36 165.67,-43.89 36.55,-60.76 3.61,-139.86 -47.8,-186.59 -62.24,-56.56 -130.25,-79.63 -234.76,-79.63" /><path
           sodipodi:nodetypes="ccsccccccccccccccc"
           inkscape:connector-curvature="0"
           id="path290"
           style="fill:#000000;fill-opacity:1;fill-rule:nonzero;stroke:none"
           d="m 2188.55,3936.56 c -9.93,0 -19.1,0.33 -27.26,0.81 -2.43,0.14 -4.28,2.23 -4.14,4.66 0.14,2.43 2.16,4.33 4.67,4.14 54.23,-3.21 154.74,0.68 218.04,62.82 16.08,15.79 29.19,35.4 37.89,56.7 9.49,23.25 11.81,40.89 7.98,60.88 -5.23,27.35 -31.95,50.62 -63.53,55.35 -18.05,2.72 -35.51,-0.28 -49.12,-8.43 -14.97,-8.95 -24.85,-24.31 -25.79,-40.08 -0.15,-2.42 -2.26,-4.18 -4.66,-4.13 -2.43,0.14 -4.29,2.23 -4.14,4.66 1.11,18.64 12.63,36.69 30.05,47.13 15.37,9.19 34.88,12.6 54.97,9.58 35.73,-5.35 64.88,-31.02 70.89,-62.42 4.12,-21.53 1.58,-41.23 -8.49,-65.87 -9.14,-22.4 -22.94,-43.04 -39.87,-59.67 -56.1,-55.08 -139.59,-66.13 -197.49,-66.13" /><path
           sodipodi:nodetypes="csc"
           inkscape:connector-curvature="0"
           id="path292"
           style="fill:#000000;fill-opacity:1;fill-rule:nonzero;stroke:none"
           d="m 2132.25,3936.99 c 5.67,0 5.68,8.82 0,8.82 -5.68,0 -5.69,-8.82 0,-8.82" /><path
           sodipodi:nodetypes="csc"
           inkscape:connector-curvature="0"
           id="path294"
           style="fill:#000000;fill-opacity:1;fill-rule:nonzero;stroke:none"
           d="m 2108.45,3936.99 c 5.68,0 5.69,8.82 0,8.82 -5.68,0 -5.69,-8.82 0,-8.82" /><path
           sodipodi:nodetypes="csc"
           inkscape:connector-curvature="0"
           id="path296"
           style="fill:#000000;fill-opacity:1;fill-rule:nonzero;stroke:none"
           d="m 2082.82,3937.9 c 5.68,0 5.69,8.82 0,8.82 -5.67,0 -5.68,-8.82 0,-8.82" /><path
           sodipodi:nodetypes="cccccccccccccccccccccc"
           inkscape:connector-curvature="0"
           id="path298"
           style="fill:#000000;fill-opacity:1;fill-rule:nonzero;stroke:none"
           d="m 1954.96,3897.63 -0.49,0.03 c -64.24,7.14 -121.74,14.94 -174.9,38.1 -32.93,14.35 -61.38,34.39 -82.28,57.94 -14.38,16.2 -25.4,34.32 -31.03,51.01 -8.89,26.3 -1.46,41.26 6.34,49.17 18.79,19.07 57.7,18.01 85.9,8.95 19.82,-6.37 43.12,-24.88 49.28,-47.97 3.83,-14.3 -2.61,-31.57 -15.3,-41.07 -10.87,-8.14 -23.6,-8.88 -34.9,-2 -2.08,1.27 -2.74,3.98 -1.48,6.06 1.27,2.08 3.97,2.75 6.06,1.48 11.03,-6.71 20.42,-1.92 25.03,1.53 9.92,7.42 15,20.77 12.07,31.72 -5.3,19.82 -26.34,36.35 -43.46,41.85 -26.51,8.51 -61.46,8.94 -76.92,-6.75 -8.81,-8.94 -10.25,-22.45 -4.27,-40.15 5.27,-15.6 15.67,-32.64 29.28,-47.98 20.05,-22.6 47.44,-41.86 79.2,-55.7 52.03,-22.67 108.84,-30.36 172.35,-37.42 2.42,-0.27 4.17,-2.45 3.9,-4.87 -0.25,-2.26 -2.16,-3.93 -4.38,-3.93" /><path
           sodipodi:nodetypes="ccccccccccccccccccccccccc"
           inkscape:connector-curvature="0"
           id="path300"
           style="fill:#000000;fill-opacity:1;fill-rule:nonzero;stroke:none"
           d="m 2497.81,4065.56 c 0,0 0,-2.42 0,-6.67 0.12,-4.24 -0.33,-10.31 -0.75,-17.7 -0.65,-7.32 -1.54,-15.89 -3.36,-24.97 -1.82,-9.06 -4.06,-18.74 -7.2,-28.25 -1.45,-4.79 -3.23,-9.5 -4.94,-14.19 -1.77,-4.68 -3.74,-9.23 -6.22,-13.38 -2.4,-4.16 -5.34,-7.91 -8.32,-11.23 -3.06,-3.31 -6.09,-6.28 -9.35,-8.63 -2.96,-2.57 -6.41,-4.23 -9.14,-5.82 -2.96,-1.39 -5.68,-2.3 -7.83,-3.01 -4.66,-0.97 -7.21,-1.08 -7.21,-1.08 l -0.67,1.63 c 0,0 1.77,2.05 4.66,4.89 1.29,1.58 2.87,3.49 4.67,5.68 1.63,2.35 3.58,4.63 5.4,7.54 1.93,2.72 3.79,5.88 5.86,9.1 1.97,3.32 4.05,6.82 6.2,10.44 2.3,3.61 4.68,7.34 7.1,11.13 2.4,3.86 4.61,7.97 6.68,12.16 4.12,8.39 7.49,17.23 10.42,25.62 2.8,8.44 5.17,16.46 7.05,23.4 1.68,6.94 3.04,12.8 3.84,16.99 0.87,4.16 1.36,6.54 1.36,6.54 l 1.75,-0.19" /><path
           sodipodi:nodetypes="ccccccccccccccccccccccccccccccccc"
           inkscape:connector-curvature="0"
           id="path302"
           style="fill:#000000;fill-opacity:1;fill-rule:nonzero;stroke:none"
           d="m 2492.36,4153.5 c 0,0 -1.36,2.57 -3.75,7.07 -1.21,2.24 -2.56,5.05 -4.4,8.02 -1.83,3 -3.67,6.45 -6.05,10.04 -2.47,3.54 -4.84,7.53 -7.86,11.41 -3.01,3.88 -5.9,8.14 -9.43,12.12 -3.3,4.17 -7.11,8.11 -10.93,12.1 -3.96,3.86 -7.99,7.77 -12.34,11.25 -4.3,3.54 -8.78,6.8 -13.39,9.65 -4.67,2.75 -9.17,5.52 -13.65,7.86 -2.2,1.27 -4.36,2.51 -6.47,3.73 -2.16,1.08 -4.27,2.19 -6.28,3.38 -2,1.25 -4.11,2.01 -6.09,2.97 -1.98,0.93 -3.85,2.1 -5.76,2.77 -3.82,1.4 -7.26,3.32 -10.51,4.25 -3.22,1.07 -6.06,2.43 -8.48,3.03 -4.82,1.45 -7.73,2.61 -7.73,2.61 l -0.02,1.77 c 0,0 2.88,0.91 8.21,1.93 2.68,0.68 5.89,0.62 9.69,0.84 3.82,0.27 8.01,-0.33 12.67,-0.84 9.14,-1.53 19.94,-4.52 29.93,-10.5 5.07,-2.86 9.78,-6.63 14.36,-10.54 2.24,-2.02 4.49,-4.05 6.76,-6.09 l 6.38,-6.49 c 4.26,-4.3 8.1,-8.97 11.82,-13.55 3.58,-4.7 7.09,-9.3 10.05,-14.05 3.17,-4.61 5.82,-9.3 8.27,-13.77 2.51,-4.43 4.36,-8.9 6.33,-12.85 1.88,-4 3.28,-7.86 4.67,-11.15 1.44,-3.3 2.32,-6.25 3.13,-8.67 1.58,-4.85 2.49,-7.61 2.49,-7.61 l -1.62,-0.69" /></g></g></g></svg>