<?xml version="1.0" encoding="utf-8"?>
<!-- Generator: Adobe Illustrator 26.0.1, SVG Export Plug-In . SVG Version: 6.00 Build 0)  -->
<svg version="1.1" id="Capa_1" xmlns="http://www.w3.org/2000/svg" xmlns:xlink="http://www.w3.org/1999/xlink" x="0px" y="0px"
	 viewBox="0 0 150 150" style="enable-background:new 0 0 150 150;" xml:space="preserve">
<style type="text/css">
	.st0{fill-rule:evenodd;clip-rule:evenodd;fill:#333333;}
</style>
<path class="st0" d="M17.9,74.1c0.9,0.8,1.8,1.6,2.9,2.2c1.1,0.6,2.2,1.1,3.4,1.4c1.1,0.3,2.3,0.5,3.5,0.5c0.3,1.8,0.8,3.6,1.4,5.4
	c0.3,0.9,0.6,1.7,0.9,2.6c0.4,0.9,0.8,1.8,1.2,2.6c0.5,0.9,0.9,1.8,1.5,2.6c0.6,0.8,1.2,1.6,1.8,2.3c1.2,1.5,2.7,2.8,4.2,4
	c0.7,0.6,1.5,1.1,2.2,1.7c0.8,0.5,1.7,1,2.6,1.4c0.8,0.4,1.7,0.7,2.5,1c0.5,0.2,1,0.4,1.6,0.5c0.4,0.1,0.9,0.2,1.4,0.3
	c0.4,0.1,0.9,0.2,1.4,0.2c0.4,0.1,0.9,0.2,1.4,0.2c0.5,0.1,0.9,0.1,1.4,0.1c0.5,0,1,0.1,1.5,0.1c0.4,0,0.7,0.1,1.1,0.1
	c0.1,0.2,0.2,0.4,0.2,0.5c0.5,0.9,0.9,1.8,1.5,2.6c0.6,0.8,1.2,1.6,1.8,2.3c1.2,1.5,2.7,2.8,4.2,4c0.7,0.6,1.5,1.1,2.2,1.7
	c0.8,0.5,1.7,1,2.6,1.4c0.8,0.4,1.7,0.7,2.5,1c0.5,0.2,1,0.4,1.6,0.5c0.5,0.1,0.9,0.2,1.4,0.3c0.4,0.1,0.9,0.2,1.4,0.2
	c0.5,0.1,0.9,0.2,1.4,0.2c0.5,0.1,0.9,0.1,1.4,0.1c0.5,0,1,0.1,1.5,0.1c0.5,0,0.9,0.1,1.4,0.2c0.5,0.1,1.1,0.1,1.6,0.1
	c0.3,0,0.6,0,0.9,0c0.9-0.1,1.9-0.1,2.8-0.2c1-0.1,1.9-0.2,2.9-0.3c0.4,0,0.9-0.1,1.3-0.1c0.5-0.1,1-0.1,1.4-0.2
	c0.5-0.1,1-0.2,1.5-0.3c0.5-0.1,0.9-0.3,1.4-0.4c0.9-0.3,1.7-0.7,2.6-1.1c0,0,0,0,0,0c0,0,0.1,0,0.1,0c0,0,0,0,0,0c0,0,0,0,0,0
	c0,0,0,0,0,0c0,0,0,0,0,0c0,0,0.1-0.1,0.1-0.1c0,0,0,0,0,0c0,0,0,0,0.1,0c0,0,0,0,0,0c0,0,0,0,0.1,0c1.1-0.6,2.1-1.3,3.1-2
	c1-0.8,2-1.5,2.9-2.3c0,0,0,0-0.1,0.1c0.1-0.1,0.3-0.2,0.4-0.3c0.3-0.3,0.6-0.6,1-1c1.5,1.4,3.2,2.6,5.1,3.3
	c0.6,0.2,1.3,0.5,1.9,0.7c0.6,0.1,1.2,0.3,1.8,0.3c0.5,0.1,1,0.1,1.5,0.1c0.8,0,1.6-0.1,2.5-0.3c1.2-0.3,2.3-0.7,3.4-1.4
	c1-0.7,1.9-1.5,2.7-2.4c0.7-1,1.4-2.1,1.6-3.3c0-0.1,0-0.2,0.1-0.3c0.5-0.2,0.9-0.5,1.4-0.8c1-0.7,1.9-1.5,2.6-2.5
	c0.4-0.5,0.8-1.1,1.1-1.6c0.3-0.5,0.5-1.1,0.7-1.7c0.3-0.8,0.5-1.7,0.7-2.5c0.2-0.8,0.4-1.7,0.3-2.5c0-0.6-0.1-1.2-0.1-1.7
	c-0.1-0.5-0.1-0.9-0.2-1.4c-0.1-0.4-0.2-0.9-0.4-1.3c-0.2-0.5-0.4-0.9-0.7-1.3c-0.2-0.4-0.5-0.8-0.7-1.1c-0.3-0.4-0.5-0.7-0.8-1.1
	c-0.3-0.4-0.6-0.8-1-1.1c-0.2-0.2-0.3-0.3-0.5-0.4c-0.2-0.1-0.4-0.3-0.6-0.4c-0.2-0.1-0.3-0.2-0.5-0.3c-0.4-0.2-0.8-0.4-1.3-0.5
	c-0.4-0.1-0.8-0.2-1.2-0.3c-0.3,0-0.6,0.1-0.6,0.4c-0.1,0.3,0.1,0.6,0.4,0.6c0.4,0.1,0.8,0.3,1.2,0.4c0,0,0,0,0,0c0,0,0,0,0,0
	c0,0,0,0,0,0c0,0,0,0,0,0c0,0,0,0,0,0c0.1,0,0.2,0.1,0.2,0.1c0.3,0.1,0.6,0.2,0.8,0.4c0.3,0.2,0.5,0.3,0.8,0.5
	c0.5,0.4,0.9,0.8,1.2,1.2c0.3,0.4,0.7,0.9,1,1.4c0.2,0.2,0.3,0.5,0.5,0.8c0.2,0.4,0.5,0.8,0.7,1.2c0.1,0.3,0.3,0.6,0.3,1
	c0,0.2,0.1,0.3,0.1,0.5c0.1,0.4,0.1,0.7,0.1,1.1c0.1,0.7,0.1,1.4,0,2.1c-0.1,0.6-0.3,1.2-0.4,1.9c-0.2,0.8-0.4,1.5-0.7,2.3
	c-0.2,0.4-0.4,0.9-0.6,1.3c-0.2,0.4-0.5,0.8-0.7,1.2c-0.5,0.7-1.1,1.3-1.7,1.8c-0.4,0.3-0.8,0.6-1.2,0.8c-0.1-0.6-0.1-1.2-0.3-1.8
	c-0.2-0.7-0.5-1.3-0.9-1.9c-0.2-0.2-0.4-0.5-0.6-0.7c-0.2-0.2-0.4-0.4-0.7-0.6c-0.5-0.4-1-0.6-1.6-0.8c-0.6-0.2-1.2-0.2-1.8-0.1
	c-0.6,0.1-1.2,0.4-1.7,0.8c-0.5,0.4-0.9,0.8-1.1,1.4c-0.3,0.6-0.4,1.3-0.4,1.9c0,0.6,0.2,1.2,0.4,1.7c0.3,0.5,0.7,1,1.2,1.4
	c0.5,0.4,1,0.7,1.6,0.9c1.2,0.4,2.5,0.4,3.7,0.2c0.1,0,0.2,0,0.2-0.1c0,0.1-0.1,0.2-0.1,0.2c-0.2,0.6-0.5,1.1-0.9,1.6
	c-0.5,0.6-1,1.2-1.7,1.7c-0.6,0.5-1.2,0.8-1.9,1.2c-0.7,0.3-1.4,0.5-2.2,0.7c-0.9,0.1-1.8,0.1-2.7,0.1c-1.1-0.1-2.2-0.4-3.2-0.8
	c-1.2-0.5-2.3-1.1-3.4-1.9c-0.5-0.4-1-0.8-1.5-1.3c0.2-0.2,0.4-0.4,0.6-0.6c0.4-0.4,0.8-0.9,1.1-1.4c0.4-0.6,0.8-1.1,1.1-1.7
	c0.8-1.3,1.7-2.5,2.4-3.8c0.3-0.7,0.7-1.3,0.9-2c0.3-0.7,0.5-1.4,0.7-2.1c0.3-0.9,0.6-1.9,0.9-2.8c0.3-0.9,0.5-1.8,0.7-2.7
	c0.2-0.9,0.4-1.8,0.5-2.7c0.1-0.9,0.2-1.9,0.3-2.8c0.1-1,0.1-1.9,0.1-2.9c0-0.9,0-1.9-0.2-2.8c-0.2-1-0.3-2-0.6-3
	c-0.1-0.4-0.3-0.8-0.5-1.2c-0.2-0.5-0.4-0.9-0.6-1.3c-0.4-0.9-0.9-1.8-1.4-2.7c-0.5-0.8-1-1.7-1.5-2.5c-0.5-0.8-1-1.6-1.5-2.4
	c-0.5-0.8-1.1-1.5-1.7-2.2c-0.3-0.4-0.7-0.8-1-1.1c-0.4-0.4-0.7-0.7-1.1-1c-0.7-0.6-1.4-1.2-2.2-1.7c-0.8-0.6-1.6-1.1-2.5-1.7
	c-0.8-0.5-1.6-1-2.4-1.4c-0.9-0.4-1.7-0.8-2.6-1.1c-1-0.3-1.9-0.6-2.9-0.8c-0.9-0.2-1.8-0.4-2.7-0.5c-0.3,0-0.6,0-0.9-0.1
	c0.1,0,0.2,0,0.3-0.1c0.3-0.1,0.6-0.2,0.9-0.2c0.7-0.2,1.3-0.4,2-0.6c0.3-0.1,0.5-0.2,0.8-0.3c0.3-0.1,0.7-0.2,1-0.3
	c0.3-0.1,0.6-0.2,0.9-0.4c0.3-0.1,0.6-0.2,0.9-0.4c0,0,0,0,0,0c0,0,0,0,0,0c0,0,0,0,0,0c0,0,0,0,0,0h0c0,0,0,0,0,0c0,0,0,0,0,0
	c0,0-0.1,0-0.1,0c0.1,0,0.1,0,0.2-0.1c0,0,0,0,0,0c0,0,0,0,0,0c0,0,0,0,0,0c0,0,0,0,0,0c0,0,0,0,0,0c0,0,0,0,0,0h0c0,0,0,0,0,0
	c0,0,0,0,0,0c0,0,0.1,0,0.1,0c0,0,0.1,0,0.1-0.1c0,0-0.1,0-0.1,0c0.3-0.1,0.6-0.3,0.9-0.4c0,0,0,0,0,0c0,0,0,0,0,0c0,0,0,0,0,0
	c0,0,0,0,0,0c0,0,0,0,0,0c0.1,0,0.2-0.1,0.2-0.1c0,0-0.1,0-0.1,0c0.1,0,0.1,0,0.2-0.1c0,0,0.1,0,0.1-0.1c0,0,0,0,0,0
	c0.4-0.2,0.8-0.4,1.2-0.6c0.4-0.2,0.8-0.4,1.2-0.6c0.8-0.5,1.6-1,2.3-1.6c0.4-0.3,0.8-0.6,1.1-0.9c0.3-0.2,0.6-0.5,0.9-0.8
	c0.3-0.2,0.5-0.5,0.8-0.7c0.3-0.2,0.5-0.5,0.8-0.7c0.3-0.3,0.6-0.6,0.8-0.9c0.3-0.3,0.6-0.7,0.9-1c1.1-1.4,2.2-3,2.7-4.7
	c0.3-0.9,0.4-1.8,0.4-2.7c0-0.9-0.2-1.8-0.6-2.5c-0.4-0.8-1.1-1.4-2-1.7c-0.8-0.3-1.8-0.3-2.6-0.1c-0.9,0.2-1.8,0.6-2.6,1.1
	c-0.8,0.5-1.5,1-2.2,1.6c-0.5,0.4-1,0.9-1.5,1.4c-0.3,0.3-0.6,0.6-0.9,0.9c-0.2,0.2-0.4,0.5-0.6,0.7c-0.2,0.2-0.4,0.4-0.5,0.6
	c-0.2,0.3-0.5,0.6-0.7,0.9c-0.2,0.3-0.5,0.7-0.7,1c-0.7,1-1.3,2.1-2,3.1c-0.4,0.6-0.7,1.2-1.1,1.8c-0.2,0.3-0.3,0.6-0.5,0.8
	c-0.2,0.3-0.4,0.6-0.6,0.8c-0.2,0.3-0.4,0.6-0.6,0.8c-0.2,0.3-0.4,0.5-0.6,0.8c-0.3,0.5-0.7,0.9-1,1.4c-0.3,0.4-0.6,0.7-0.9,1.1
	c0-0.1,0.1-0.1,0.1-0.2c0.1-0.3,0.2-0.6,0.3-0.9c0.1-0.3,0.2-0.5,0.3-0.8c0.1-0.4,0.2-0.8,0.3-1.2c0.2-0.6,0.3-1.3,0.5-1.9
	c0.1-0.2,0.1-0.5,0.1-0.7c0.1-0.4,0.1-0.8,0.2-1.2c0.1-0.3,0.1-0.6,0.1-0.9c0.1-0.3,0.1-0.7,0.1-1c0.1-0.8,0.2-1.6,0.2-2.5
	c0-0.5,0-1,0-1.5c0-0.4,0-0.8-0.1-1.3c0-0.4-0.1-0.7-0.1-1.1c0-0.3-0.1-0.6-0.1-0.8c-0.1-0.4-0.2-0.8-0.2-1.3c0-0.2-0.1-0.5-0.2-0.7
	C90.1,34.2,90,34,90,33.7c0-0.1,0-0.2-0.1-0.3c-0.3-0.9-0.5-1.8-0.8-2.7c-0.7-1.7-1.6-3.4-2.9-4.6c-0.7-0.6-1.4-1.2-2.3-1.5
	c-0.9-0.4-1.9-0.6-2.9-0.4c-2,0.5-2.7,2.7-3,4.5c-0.1,0.5-0.2,1-0.2,1.5c-0.1,0.7-0.1,1.3-0.1,2c0,0.3,0,0.7,0.1,1
	c0,0.4,0.1,0.8,0.1,1.1c0,0.3,0.1,0.7,0.1,1c0,0.3,0.1,0.7,0.2,1c0.1,0.3,0.1,0.6,0.2,0.9c0.1,0.3,0.1,0.6,0.2,0.9
	c0.2,0.7,0.4,1.4,0.6,2.1c0.2,0.6,0.4,1.2,0.7,1.9c0.4,1.2,0.9,2.4,1.4,3.7c0.5,1.2,1,2.3,1.6,3.5c0,0,0,0,0,0c0,0,0,0,0,0v0
	c0,0,0,0,0,0c0,0,0,0,0,0c0,0,0,0,0,0c0.3,0.7,0.6,1.4,0.9,2.2c-0.3-0.4-0.6-0.8-1-1.2c-0.3-0.4-0.7-0.8-1-1.1
	c-0.4-0.4-0.7-0.7-1.1-1c-0.7-0.6-1.4-1.2-2.2-1.7c-0.8-0.6-1.6-1.1-2.5-1.7c-0.8-0.5-1.6-1-2.4-1.4c-0.9-0.4-1.7-0.8-2.6-1.1
	c-1-0.3-1.9-0.6-2.9-0.8c-0.9-0.2-1.8-0.4-2.7-0.5c-1-0.1-1.9-0.2-2.9-0.3c0,0,0,0,0.1,0c0,0-0.1,0-0.1,0c-0.1,0-0.1,0-0.2,0
	c0,0,0.1,0,0.1,0c-0.1,0-0.1,0-0.2,0c0,0-0.1,0-0.1,0c0,0-0.1,0-0.1,0c0,0,0,0,0,0c-0.2,0-0.5,0-0.7,0c-0.9,0-1.9,0.1-2.8,0.2
	c-0.9,0.1-1.9,0.3-2.8,0.4c-0.6,0.1-1.1,0.2-1.7,0.3c0-0.1,0.1-0.2,0.1-0.3c0-0.1,0.1-0.2,0.1-0.3c0-0.1,0-0.2,0-0.3
	c0-0.1,0-0.2,0-0.3c0-0.1,0-0.2-0.1-0.3c0-0.1-0.1-0.3-0.1-0.4c-0.1-0.1-0.1-0.2-0.2-0.4c-0.1-0.1-0.2-0.3-0.4-0.4
	c-0.3-0.2-0.6-0.4-1-0.4c-0.1,0-0.2,0-0.3-0.1c0,0-0.1,0-0.1,0c0,0,0,0,0,0c0-0.2,0-0.4,0.1-0.5c0-0.1,0.1-0.2,0.1-0.3
	c0-0.2,0.1-0.3,0.1-0.5c0.1-0.2,0.1-0.5,0.2-0.7c0.1-0.3,0.1-0.5,0.2-0.8c0.1-0.1,0.1-0.3,0-0.4c-0.1-0.1-0.2-0.2-0.4-0.3
	c-0.1,0-0.2,0-0.2,0.1c0,0-0.1,0-0.1-0.1c0,0-0.1,0-0.1,0c-0.1,0-0.1-0.1-0.2-0.1c-0.1,0-0.1,0-0.2-0.1c-0.1,0-0.1-0.1-0.2-0.1
	c-0.1-0.1-0.2-0.1-0.3-0.2c-0.2-0.1-0.3-0.2-0.5-0.3c-0.2-0.1-0.3-0.2-0.5-0.3c-0.3-0.2-0.6-0.5-0.9-0.7c-0.2-0.1-0.3-0.2-0.5-0.3
	c-0.1-0.1-0.1-0.1-0.2-0.2c-0.1-0.1-0.3-0.3-0.4-0.3c-0.2,0-0.4,0-0.5,0.2c-0.8,0.3-1.6,0.6-2.5,1c-0.4,0.2-0.8,0.3-1.2,0.5
	c-0.4,0.2-0.9,0.4-1.3,0.5c-0.5,0.2-1,0.4-1.5,0.6c-0.2,0.1-0.5,0.2-0.7,0.3c-0.2,0.1-0.5,0.2-0.7,0.3c-0.5,0.2-1,0.5-1.5,0.7
	c-0.4,0.2-0.9,0.4-1.3,0.5c-0.1,0-0.2,0-0.3,0.1c-0.1,0-0.1,0-0.1,0.1c0,0,0,0,0,0c-0.2,0-0.3,0.1-0.4,0.2c-0.1,0.2-0.1,0.4-0.1,0.6
	c0,0.2,0,0.4,0,0.6c0,0.4,0,0.7,0,1.1c0,0.4-0.1,0.8-0.1,1.2c-0.1,0.3-0.2,0.7-0.3,1c-0.1,0.2-0.1,0.3-0.2,0.5
	c-0.1,0.2-0.1,0.3-0.1,0.5c0,0.2,0.1,0.3,0.3,0.4c0,0,0.1,0,0.1,0c0.1,0,0.2,0.1,0.3,0.1c0.2,0.1,0.4,0.1,0.5,0.2
	c0.3,0.1,0.6,0.3,0.9,0.4c0.2,0.1,0.5,0.3,0.7,0.4c0.2,0.1,0.4,0.3,0.5,0.4c0.1,0.1,0.1,0.2,0.2,0.2c0,0,0,0,0,0c0,0,0,0.1,0.1,0.1
	c0,0.1-0.1,0.2-0.1,0.2c0,0.1,0,0.3,0,0.4c0.1,0.6,0.5,1.2,1,1.5c0.2,0.1,0.4,0.3,0.7,0.4c-1.5,1.1-2.9,2.4-4.2,3.8
	c-0.6,0.7-1.2,1.5-1.7,2.3c-0.5,0.8-1.1,1.6-1.6,2.5c-1,1.6-1.8,3.3-2.5,5c-0.7,1.8-1.2,3.6-1.7,5.5c-0.2,0.9-0.4,1.8-0.5,2.8
	c-0.1,0.9-0.2,1.8-0.3,2.7c-0.1,1-0.1,2.1-0.1,3.1c0,0.3,0,0.5,0,0.8c-0.2,0-0.4,0-0.5,0c-1.3-0.1-2.5-0.4-3.7-0.9
	c-1-0.4-1.9-0.9-2.7-1.5c-1-0.8-2-1.7-2.8-2.7c-0.8-1-1.5-2.1-2-3.3c-0.5-1-0.8-2.1-1-3.2c-0.2-1.1-0.2-2.2-0.1-3.3
	c0.1-1.3,0.5-2.6,0.9-3.9c0.4-1,0.9-2,1.6-3c0.5-0.7,1.1-1.4,1.8-1.9c0.1-0.1,0.3-0.2,0.4-0.3c0.4,0,0.6-0.4,0.5-0.7
	c-0.1-0.3-0.4-0.5-0.7-0.4c-0.3,0.1-0.6,0.3-0.9,0.6c-0.3,0.2-0.6,0.5-0.8,0.8c-0.5,0.6-1,1.1-1.5,1.8c-0.9,1.3-1.6,2.8-2,4.3
	c-0.5,1.5-0.7,3.1-0.7,4.7c0,1.6,0.3,3.2,0.8,4.7C14.8,70.2,16.1,72.4,17.9,74.1L17.9,74.1z M122.7,106.3L122.7,106.3
	c-0.6,0.1-1.1,0.1-1.7,0.1c-0.4-0.1-0.9-0.2-1.3-0.3c-0.3-0.1-0.7-0.3-1-0.5c-0.2-0.1-0.3-0.3-0.5-0.5c-0.1-0.2-0.2-0.3-0.3-0.5
	c-0.1-0.2-0.1-0.4-0.2-0.6c0-0.2,0-0.5,0-0.7c0-0.2,0.1-0.5,0.2-0.7c0.1-0.2,0.2-0.3,0.3-0.5c0.1-0.1,0.2-0.3,0.4-0.4
	c0.1-0.1,0.3-0.2,0.5-0.3c0.2-0.1,0.4-0.1,0.6-0.2c0.1,0,0.3,0,0.4,0c0.1,0,0.2,0,0.2,0c0.3,0,0.5,0.1,0.7,0.2
	c0.3,0.1,0.6,0.3,0.9,0.5c0.3,0.2,0.5,0.5,0.7,0.7c0.2,0.3,0.4,0.6,0.6,0.9c0.2,0.5,0.3,1,0.4,1.5c0.1,0.4,0.1,0.7,0.1,1.1
	C123.3,106.2,123,106.3,122.7,106.3L122.7,106.3z M52.4,35.7L52.4,35.7C52.4,35.7,52.4,35.7,52.4,35.7
	C52.4,35.7,52.4,35.7,52.4,35.7C52.4,35.7,52.4,35.7,52.4,35.7L52.4,35.7z M54.5,101.6L54.5,101.6c-0.8-0.1-1.7-0.2-2.5-0.3
	c-0.8-0.1-1.5-0.2-2.3-0.4c-0.8-0.1-1.5-0.3-2.3-0.5c-1-0.3-2-0.7-3-1.1c-1-0.4-2-1-3-1.6c-0.4-0.3-0.9-0.6-1.3-0.9
	c-0.5-0.4-1-0.8-1.4-1.2c-0.9-0.8-1.8-1.6-2.6-2.4c-0.7-0.8-1.3-1.5-1.9-2.3c-0.6-0.8-1.1-1.6-1.6-2.5c0,0,0,0.1,0.1,0.1
	c-0.1-0.2-0.2-0.4-0.3-0.6c-0.3-0.6-0.6-1.2-0.9-1.9c-0.3-0.7-0.6-1.3-0.8-2c-0.5-1.3-0.9-2.7-1.3-4.1c-0.1-0.6-0.2-1.2-0.3-1.7
	c0.9-0.1,1.9-0.2,2.8-0.4c0,0,0,0,0,0c0.2,1.5,0.7,3,1.2,4.5c0.2,0.7,0.5,1.5,0.8,2.2c0.3,0.8,0.6,1.5,1,2.2
	c0.4,0.8,0.8,1.5,1.3,2.2c0.5,0.7,1,1.3,1.5,2c1,1.3,2.3,2.4,3.6,3.4c0.6,0.5,1.2,1,1.9,1.4c0.7,0.5,1.5,0.9,2.2,1.2
	c0.7,0.3,1.4,0.6,2.2,0.9c0.4,0.2,0.9,0.3,1.3,0.4c0.4,0.1,0.8,0.2,1.2,0.3c0.4,0.1,0.8,0.1,1.2,0.2c0.4,0.1,0.8,0.1,1.2,0.2
	c0.4,0,0.8,0.1,1.2,0.1c0.4,0,0.8,0,1.3,0.1c0.4,0,0.8,0.1,1.2,0.2c0.5,0.1,0.9,0.1,1.4,0.1c0.3,0,0.5,0,0.8,0
	c0.8,0,1.6-0.1,2.4-0.2c0.8-0.1,1.6-0.2,2.5-0.2c0.4,0,0.7-0.1,1.1-0.1c0.4-0.1,0.8-0.1,1.2-0.2c0.4-0.1,0.9-0.2,1.3-0.3
	c0.4-0.1,0.8-0.2,1.2-0.4c0.8-0.3,1.5-0.6,2.3-1c0,0,0.1,0,0.1-0.1c0,0,0,0,0,0c0,0,0,0,0.1,0c0,0,0,0,0,0c0,0,0,0,0.1,0
	c0.9-0.5,1.8-1.1,2.7-1.7c0.8-0.6,1.7-1.3,2.5-2c0,0,0,0,0,0c0.1-0.1,0.2-0.2,0.3-0.3c0,0,0,0,0,0c0,0,0.1-0.1,0.1-0.1c0,0,0,0,0,0
	c0,0,0,0,0,0c0,0,0,0,0,0c0,0,0,0,0,0c0,0,0,0,0,0c0.8-0.7,1.5-1.5,2.2-2.3c0.3-0.4,0.7-0.8,1-1.2c0.3-0.5,0.6-1,1-1.5
	c0.7-1.1,1.4-2.1,2-3.3c0.3-0.6,0.6-1.1,0.8-1.7c0.2-0.6,0.4-1.2,0.6-1.8c0.3-0.8,0.5-1.6,0.8-2.4c0.2-0.8,0.4-1.5,0.6-2.3
	c0.2-0.8,0.4-1.5,0.5-2.3c0.1-0.8,0.2-1.6,0.3-2.4c0.1-0.8,0.1-1.7,0.1-2.5c0-0.8,0-1.6-0.1-2.4c-0.1-0.5-0.2-1-0.3-1.6
	c0.1-0.1,0.2-0.1,0.3-0.2c0.2-0.1,0.4-0.3,0.7-0.4c0.2-0.1,0.4-0.2,0.6-0.3c0.1,0,0.2-0.1,0.3-0.1c0.1,0,0.2-0.1,0.3-0.1
	c0.1,0,0.2-0.1,0.3-0.1c0,0,0,0,0,0c0.2,0.6,0.3,1.2,0.5,1.7c0.2,1.1,0.4,2.2,0.5,3.3c0.1,1.1,0.1,2.1,0,3.2c0,0.8-0.1,1.7-0.2,2.5
	c-0.1,0.9-0.3,1.7-0.5,2.6c-0.4,1.7-0.9,3.3-1.4,4.9c-0.3,0.9-0.6,1.8-1,2.6c-0.2,0.5-0.4,0.9-0.7,1.3c-0.2,0.4-0.5,0.8-0.7,1.2
	c-0.4,0.6-0.9,1.3-1.3,1.9c-0.5,0.7-1,1.3-1.5,2c-0.5,0.6-1.1,1.2-1.7,1.8c-0.6,0.6-1.1,1.1-1.7,1.6c-0.9,0.8-1.9,1.6-2.8,2.3
	c-0.5,0.4-1.1,0.8-1.6,1.2c-0.5,0.3-1,0.6-1.5,0.9c-1.4,0.7-2.8,1.2-4.3,1.6c-0.8,0.2-1.6,0.3-2.4,0.5c-0.4,0.1-0.8,0.1-1.2,0.1
	c-0.4,0.1-0.8,0.1-1.3,0.2c-0.9,0.1-1.8,0.2-2.7,0.3c-0.9,0.1-1.9,0.2-2.8,0.1C56.3,102,55.4,101.7,54.5,101.6L54.5,101.6z
	 M32.9,74.9L32.9,74.9c0.1-1.5,0.2-2.9,0.5-4.4c0.1-0.7,0.3-1.5,0.4-2.2c0.2-0.7,0.4-1.4,0.6-2.1c0.4-1.2,0.8-2.4,1.3-3.5
	c0.5-1.1,1.1-2.2,1.8-3.3c0.3-0.5,0.6-1,1-1.4c0.4-0.5,0.7-1,1.1-1.5c0.8-0.9,1.7-1.8,2.6-2.6c0.5-0.4,0.9-0.8,1.4-1.2
	c0.5-0.4,1-0.8,1.6-1.1c0.9-0.6,2-1.2,3-1.7c0.2-0.1,0.3-0.1,0.5-0.2c0.5-0.2,1.1-0.4,1.6-0.6c1-0.3,2.1-0.6,3.2-0.8
	c0.7-0.1,1.3-0.3,2-0.4c0.7-0.1,1.3-0.2,2-0.3c0.7-0.1,1.4-0.1,2.1-0.2c0.6-0.1,1.3-0.1,1.9,0c1.1,0.1,2.1,0.2,3.1,0.4
	c1,0.2,2.1,0.5,3.1,0.8c0.7,0.3,1.5,0.6,2.2,0.9c0.4,0.2,0.7,0.4,1.1,0.6c0.3,0.2,0.6,0.4,0.9,0.6c0.9,0.6,1.9,1.3,2.7,2
	c0.4,0.4,0.8,0.7,1.3,1.1c0.2,0.2,0.4,0.4,0.6,0.6c0.2,0.2,0.3,0.3,0.5,0.5c0.4,0.5,0.8,1,1.2,1.5c0.2,0.2,0.3,0.5,0.5,0.7
	c-1.4,0.3-2.9,0.6-4.3,1c-0.9,0.3-1.8,0.6-2.7,1c-0.8,0.4-1.7,0.8-2.4,1.3c-0.2,0.2-0.5,0.3-0.7,0.5c-0.5,0.2-0.9,0.5-1.4,0.8
	c-0.8,0.4-1.6,0.9-2.4,1.5c-1.6,1.2-3,2.5-4.3,4c-0.6,0.7-1.2,1.5-1.7,2.3c-0.4,0.5-0.7,1.1-1,1.6c-0.2,0-0.5,0.1-0.7,0.1
	c-0.4,0-0.7,0-1.1,0c-0.7,0-1.5,0-2.2-0.1c-1-0.1-1.9-0.3-2.8-0.5c-0.5-0.1-0.9-0.2-1.4-0.3c-0.5-0.1-1-0.3-1.5-0.5c0,0,0,0,0,0
	c0,0,0,0,0,0c0,0,0,0,0,0s0,0,0,0c0,0,0,0-0.1,0c0,0,0,0,0.1,0c0,0,0,0,0,0c0,0-0.1,0-0.1,0c0,0,0,0,0,0c0,0-0.1,0-0.1,0
	c-0.1,0-0.2-0.1-0.2-0.1c0,0,0,0,0,0c0,0-0.1,0-0.1,0c0,0,0,0,0,0c0,0,0,0,0,0c0,0,0,0,0,0c0,0,0,0,0,0c0,0,0,0,0,0c0,0,0,0,0,0
	c-0.1-0.1-0.3-0.1-0.4-0.2c-0.2-0.1-0.3-0.1-0.5-0.2c-0.2-0.1-0.3-0.2-0.5-0.3c-0.1-0.1-0.3-0.1-0.4-0.2c-0.2-0.1-0.4-0.2-0.5-0.3
	c-0.1-0.1-0.2-0.1-0.4-0.2c-0.1-0.1-0.2-0.2-0.4-0.3c0.2-0.5,0.4-1,0.6-1.5c0.4-1.1,0.7-2.3,0.8-3.5c0-0.7,0-1.3-0.1-2
	c-0.1-0.6-0.2-1.1-0.5-1.6c-0.5-1-1.5-1.8-2.6-1.9c-0.6-0.1-1.1,0.1-1.6,0.5c-0.4,0.3-0.8,0.7-1.1,1.2c-0.6,1-0.8,2.2-0.7,3.4
	c0.1,1.2,0.4,2.3,1,3.3c0.3,0.5,0.7,1,1.1,1.5c0.3,0.3,0.6,0.7,0.9,1c0.1,0.1,0.2,0.1,0.2,0.2c-0.4,0.7-0.8,1.3-1.2,1.9
	c-0.8,1-1.6,1.9-2.6,2.7c-1.1,0.8-2.2,1.5-3.4,2.1c-0.7,0.3-1.4,0.5-2.1,0.8C32.9,75.3,32.9,75.1,32.9,74.9L32.9,74.9z M52.3,93.5
	L52.3,93.5c0.2,1.4,0.6,2.7,1,4c-0.2,0-0.4,0-0.6-0.1c-0.6-0.1-1.3-0.2-1.9-0.3c-0.7-0.1-1.3-0.3-1.9-0.5c-0.9-0.3-1.7-0.6-2.6-0.9
	c-0.9-0.4-1.7-0.8-2.5-1.3c-0.4-0.3-0.8-0.5-1.1-0.8c-0.4-0.3-0.8-0.7-1.2-1c-0.8-0.7-1.5-1.3-2.2-2.1c-0.6-0.6-1.1-1.3-1.6-2
	c-0.5-0.7-0.9-1.4-1.3-2.1c0,0,0,0.1,0.1,0.1c-0.1-0.2-0.2-0.3-0.3-0.5c-0.3-0.5-0.5-1.1-0.8-1.6c-0.2-0.6-0.5-1.1-0.7-1.7
	c-0.4-1.1-0.8-2.3-1.1-3.5c-0.1-0.6-0.2-1.1-0.3-1.7c0.8-0.3,1.6-0.5,2.4-0.9c1.1-0.5,2.1-1.1,3.1-1.8c1-0.7,1.9-1.5,2.7-2.5
	c0.8-0.9,1.5-2,2.1-3c0.1-0.1,0.1-0.2,0.2-0.3c0,0,0.1,0.1,0.1,0.1c0.2,0.1,0.4,0.3,0.6,0.4c0.2,0.1,0.3,0.2,0.5,0.3
	c0.2,0.1,0.4,0.3,0.7,0.4c0.2,0.1,0.3,0.2,0.5,0.2c0.2,0.1,0.4,0.2,0.6,0.3c0.4,0.2,0.8,0.4,1.3,0.5c0.2,0.1,0.5,0.2,0.7,0.3
	c0.2,0.1,0.4,0.1,0.7,0.2c0.4,0.1,0.7,0.2,1.1,0.3c0.4,0.1,0.8,0.2,1.3,0.2c0.9,0.1,1.8,0.3,2.8,0.2c0.9,0,1.7-0.1,2.6-0.3
	c-0.8,1.4-1.5,2.8-2.1,4.3c-0.7,1.8-1.2,3.6-1.7,5.5c-0.2,0.9-0.4,1.8-0.5,2.8c-0.1,0.9-0.2,1.8-0.3,2.7c-0.1,1-0.1,2.1-0.1,3.1
	C52.1,91.6,52.2,92.5,52.3,93.5L52.3,93.5z M43.6,59L43.6,59c0.1,0.2,0.2,0.3,0.3,0.5c0.2,0.4,0.3,0.8,0.3,1.2
	c0.1,0.6,0.1,1.2,0,1.9c-0.1,0.9-0.4,1.8-0.7,2.7c-0.2,0.4-0.4,0.9-0.6,1.3c-0.5-0.4-0.9-0.9-1.4-1.4c-0.3-0.4-0.6-0.9-0.8-1.3
	c-0.2-0.4-0.3-0.8-0.4-1.3c-0.1-0.5-0.1-1.1,0-1.6c0.1-0.4,0.1-0.8,0.3-1.2c0.1-0.3,0.3-0.5,0.4-0.8c0.1-0.2,0.3-0.3,0.4-0.5
	c0.1-0.1,0.2-0.1,0.3-0.2c0.1,0,0.2-0.1,0.3-0.1c0.1,0,0.1,0,0.2,0c0,0,0.1,0,0.1,0c0.1,0,0.2,0,0.3,0.1c0.2,0.1,0.3,0.2,0.5,0.3
	C43.3,58.8,43.5,58.9,43.6,59L43.6,59z M47.2,69.2L47.2,69.2C47.2,69.2,47.2,69.2,47.2,69.2C47.2,69.1,47.1,69.1,47.2,69.2
	C47.2,69.1,47.2,69.2,47.2,69.2C47.3,69.2,47.2,69.2,47.2,69.2C47.2,69.2,47.2,69.2,47.2,69.2C47.2,69.2,47.2,69.2,47.2,69.2
	L47.2,69.2z M58,94.4L58,94.4c-0.2-0.7-0.3-1.4-0.4-2.1c-0.1-0.7-0.1-1.4-0.1-2.1c0.1-1.5,0.2-2.9,0.5-4.4c0.1-0.7,0.3-1.5,0.4-2.2
	c0.2-0.7,0.4-1.4,0.6-2.1c0.4-1.2,0.8-2.4,1.3-3.5c0.5-1.1,1.1-2.2,1.8-3.3c0.3-0.5,0.6-1,1-1.4c0.4-0.5,0.7-1,1.1-1.5
	c0.8-0.9,1.7-1.8,2.6-2.6c0.5-0.4,0.9-0.8,1.4-1.2c0.5-0.4,1-0.8,1.6-1.1c0.9-0.6,1.9-1.2,3-1.7c0.2-0.1,0.3-0.1,0.5-0.2
	c0.5-0.2,1.1-0.4,1.6-0.6c1-0.3,2.1-0.6,3.2-0.8c0.7-0.1,1.3-0.3,2-0.4c0.6-0.1,1.2-0.2,1.8-0.3c0.2,0.5,0.4,0.9,0.6,1.4
	c0.2,0.5,0.4,1.1,0.6,1.6c0.1,0.5,0.3,1,0.4,1.5c0.2,0.9,0.3,1.8,0.4,2.8c0.1,0.9,0.1,1.8,0,2.7c0,0.7-0.1,1.4-0.2,2.1
	c-0.1,0.7-0.3,1.5-0.4,2.2c-0.3,1.4-0.8,2.8-1.2,4.2c-0.3,0.8-0.5,1.5-0.9,2.2c-0.2,0.4-0.4,0.8-0.6,1.1c-0.2,0.3-0.4,0.7-0.6,1
	c-0.4,0.6-0.7,1.1-1.1,1.6c-0.4,0.6-0.8,1.2-1.3,1.7c-0.4,0.5-0.9,1-1.4,1.5c-0.5,0.5-1,0.9-1.5,1.4c-0.8,0.7-1.6,1.3-2.4,2
	c-0.5,0.4-0.9,0.7-1.4,1c-0.4,0.3-0.8,0.5-1.2,0.8c-1.2,0.6-2.4,1.1-3.7,1.4c-0.7,0.1-1.4,0.3-2.1,0.4c-0.4,0.1-0.7,0.1-1.1,0.1
	c-0.4,0-0.7,0.1-1.1,0.1c-0.8,0.1-1.6,0.2-2.3,0.2c-0.1,0-0.2,0-0.4,0C58.7,96.7,58.3,95.6,58,94.4L58,94.4z M105.7,76.2L105.7,76.2
	c0,0,0,0.1,0.1,0.1c0,0,0,0,0,0c0,0,0,0,0,0c0,0,0,0,0,0c0,0,0,0,0,0c0,0,0,0,0,0c0,0,0,0,0,0c0,0,0,0,0,0c0,0,0,0,0,0c0,0,0,0,0,0
	c0.5,1,1,2,1.4,3.1c0.2,0.5,0.4,1.1,0.6,1.6c0.2,0.5,0.3,1,0.4,1.5c0.2,0.9,0.3,1.8,0.4,2.8c0.1,0.9,0.1,1.8,0,2.7
	c0,0.7-0.1,1.4-0.2,2.1c-0.1,0.7-0.3,1.5-0.4,2.2c-0.3,1.4-0.8,2.8-1.2,4.2c-0.3,0.8-0.5,1.5-0.9,2.2c-0.2,0.4-0.4,0.8-0.6,1.1
	c-0.2,0.3-0.4,0.7-0.6,1c-0.4,0.6-0.7,1.1-1.1,1.6c-0.4,0.6-0.8,1.2-1.3,1.7c0,0,0,0-0.1,0.1c-0.1-0.2-0.2-0.4-0.3-0.7
	c-0.4-1-0.8-2.1-1.1-3.1c-0.2-0.7-0.4-1.4-0.6-2.1c-0.2-0.8-0.4-1.7-0.6-2.5c-0.1-0.9-0.3-1.7-0.4-2.6c0-0.2-0.1-0.5-0.1-0.7
	c-0.1-0.5-0.1-1-0.2-1.5c-0.1-0.9-0.2-1.7-0.2-2.6c-0.1-0.9-0.1-1.7-0.2-2.6c-0.1-1.7-0.2-3.5-0.3-5.2c0-0.5-0.1-1.1-0.1-1.6
	c0-0.4-0.1-0.7-0.1-1.1c0-0.5-0.1-1-0.1-1.5c-0.1-0.6-0.2-1.2-0.3-1.7c-0.1-0.6-0.2-1.2-0.4-1.8c-0.6-2.5-1.5-4.9-3-6.9
	c-0.6-0.9-1.3-1.7-2.1-2.5c0.1,0,0.1,0,0.2,0c0.7,0.3,1.5,0.6,2.2,0.9c0.4,0.2,0.7,0.4,1.1,0.6c0.3,0.2,0.6,0.4,0.9,0.6
	c0.9,0.6,1.9,1.3,2.7,2c0.4,0.4,0.8,0.7,1.3,1.1c0.2,0.2,0.4,0.4,0.6,0.6c0.2,0.2,0.3,0.3,0.5,0.5c0.4,0.5,0.8,1,1.2,1.5
	c0.4,0.5,0.8,1.1,1.1,1.6c0.3,0.5,0.6,1.1,0.9,1.6C105.1,75.1,105.4,75.7,105.7,76.2C105.7,76.2,105.7,76.2,105.7,76.2L105.7,76.2z
	 M72.3,101.1L72.3,101.1C72.3,101.1,72.4,101.1,72.3,101.1C72.4,101.1,72.4,101.1,72.3,101.1C72.4,101.1,72.4,101.1,72.3,101.1
	C72.4,101,72.4,101,72.3,101.1c0.1,0,0.1-0.1,0.2-0.1c0,0,0,0,0,0c0,0,0,0,0.1,0c0,0,0,0,0,0c0,0,0,0,0.1,0c1.1-0.6,2.1-1.3,3.1-2
	c1-0.8,2-1.5,2.9-2.3c0,0,0,0-0.1,0.1c0.1-0.1,0.3-0.2,0.4-0.3c1-0.9,1.9-1.8,2.8-2.8c0.4-0.4,0.8-0.9,1.1-1.4
	c0.4-0.6,0.8-1.1,1.1-1.7c0.8-1.3,1.7-2.5,2.4-3.8c0.3-0.7,0.7-1.3,0.9-2c0.3-0.7,0.5-1.4,0.7-2.1c0.3-0.9,0.6-1.9,0.9-2.8
	c0.3-0.9,0.5-1.8,0.7-2.7c0.2-0.9,0.4-1.8,0.5-2.7c0.1-0.9,0.2-1.9,0.3-2.8c0.1-1,0.1-1.9,0.1-2.9c0-0.9,0-1.9-0.2-2.8
	c-0.1-0.4-0.1-0.8-0.2-1.2c0.8,0.7,1.6,1.5,2.3,2.3c0.8,1,1.4,2,1.9,3.1c0.7,1.6,1.2,3.3,1.5,5.1c0,0,0-0.1,0-0.1c0,0.1,0,0.1,0,0.2
	c0,0,0,0,0,0.1c0,0,0,0,0-0.1c0.1,0.4,0.1,0.8,0.2,1.2c0.1,0.5,0.1,1,0.1,1.5c0,0.5,0.1,0.9,0.1,1.4c0,0.9,0.1,1.8,0.1,2.8
	c0,0.9,0.1,1.9,0.1,2.8c0,0.9,0.1,1.8,0.1,2.8c0,0.9,0.1,1.8,0.2,2.7c0.1,0.9,0.2,1.8,0.3,2.6c0.1,0.9,0.2,1.7,0.4,2.6
	c0.1,0.4,0.1,0.8,0.2,1.1c0.1,0.5,0.2,1.1,0.4,1.6c0.1,0.5,0.2,0.9,0.3,1.4c0.3,1.2,0.7,2.4,1.2,3.6c0.4,0.9,0.8,1.8,1.2,2.7
	c0,0,0,0,0,0.1c-0.5,0.5-1,0.9-1.5,1.4c-0.8,0.7-1.6,1.3-2.4,2c-0.5,0.4-0.9,0.7-1.4,1c-0.4,0.3-0.8,0.5-1.2,0.8
	c-1.2,0.6-2.4,1.1-3.7,1.4c-0.7,0.1-1.4,0.3-2.1,0.4c-0.4,0.1-0.7,0.1-1.1,0.1c-0.4,0-0.7,0.1-1.1,0.1c-0.8,0.1-1.6,0.2-2.3,0.2
	c-0.8,0.1-1.6,0.1-2.4,0.1c-0.8-0.1-1.5-0.3-2.3-0.3c-0.7-0.1-1.4-0.1-2.1-0.2c-0.6-0.1-1.3-0.2-1.9-0.3c-0.7-0.1-1.3-0.3-1.9-0.5
	c-0.9-0.3-1.7-0.6-2.6-0.9c-0.9-0.4-1.7-0.8-2.5-1.3c-0.4-0.3-0.8-0.5-1.1-0.8c-0.4-0.3-0.8-0.7-1.2-1c-0.8-0.7-1.5-1.3-2.2-2.1
	c-0.6-0.6-1.1-1.3-1.6-2c-0.1-0.1-0.1-0.2-0.2-0.3c0.7-0.1,1.4-0.1,2.1-0.2c0.4,0,0.9-0.1,1.3-0.1c0.5-0.1,1-0.1,1.4-0.2
	c0.5-0.1,1-0.2,1.5-0.3c0.5-0.1,0.9-0.3,1.4-0.4C70.6,101.9,71.5,101.5,72.3,101.1C72.3,101.1,72.3,101.1,72.3,101.1
	C72.3,101.1,72.3,101.1,72.3,101.1L72.3,101.1z M102.6,110.2L102.6,110.2c-0.9,0.8-1.9,1.6-2.8,2.3c-0.5,0.4-1.1,0.8-1.6,1.2
	c-0.5,0.3-1,0.6-1.5,0.9c-1.4,0.7-2.8,1.2-4.3,1.6c-0.8,0.2-1.6,0.3-2.4,0.5c-0.4,0.1-0.8,0.1-1.2,0.1c-0.4,0.1-0.8,0.1-1.3,0.2
	c-0.9,0.1-1.8,0.2-2.7,0.3c-0.9,0.1-1.9,0.2-2.8,0.1c-0.9-0.1-1.8-0.3-2.7-0.4c-0.8-0.1-1.7-0.2-2.5-0.3c-0.8-0.1-1.5-0.2-2.3-0.4
	c-0.8-0.1-1.5-0.3-2.3-0.5c-1-0.3-2-0.7-3-1.1c-1-0.4-2-1-3-1.6c-0.4-0.3-0.9-0.6-1.3-0.9c-0.5-0.4-1-0.8-1.4-1.2
	c-0.9-0.8-1.8-1.6-2.6-2.4c-0.5-0.6-1-1.2-1.5-1.9c0,0,0-0.1,0.1-0.1c0-0.1,0.1-0.2,0.1-0.3c0.1-0.1,0.1-0.3,0.2-0.4
	c0.1-0.1,0.1-0.2,0.2-0.3c0.3-0.4,0.5-0.7,0.9-1.1c0.1-0.1,0.1-0.1,0.2-0.1c0.5,0.7,1,1.3,1.5,1.9c1,1.3,2.3,2.4,3.6,3.4
	c0.6,0.5,1.2,1,1.9,1.4c0.7,0.5,1.5,0.9,2.2,1.2c0.7,0.3,1.4,0.6,2.2,0.9c0.4,0.2,0.9,0.3,1.3,0.4c0.4,0.1,0.8,0.2,1.2,0.3
	c0.4,0.1,0.8,0.1,1.2,0.2c0.4,0.1,0.8,0.1,1.2,0.2c0.4,0,0.8,0.1,1.2,0.1c0.4,0,0.8,0,1.3,0.1c0.4,0,0.8,0.1,1.2,0.2
	c0.5,0.1,0.9,0.1,1.4,0.1c0.3,0,0.5,0,0.8,0c0.8,0,1.6-0.1,2.4-0.2c0.8-0.1,1.6-0.2,2.5-0.2c0.4,0,0.7-0.1,1.1-0.1
	c0.4-0.1,0.8-0.1,1.2-0.2c0.4-0.1,0.9-0.2,1.3-0.3c0.4-0.1,0.8-0.2,1.2-0.4c0.8-0.3,1.5-0.6,2.3-1c0.1,0,0.1-0.1,0.2-0.1
	c0.9-0.5,1.8-1.1,2.7-1.7c0.8-0.6,1.7-1.3,2.5-2c0,0,0,0,0,0c0.1-0.1,0.2-0.2,0.3-0.3c0,0,0,0,0,0c0,0,0.1-0.1,0.1-0.1
	c0,0,0,0,0.1,0c0,0,0,0,0,0c0.4-0.4,0.8-0.8,1.2-1.2c0.5,0.8,1.1,1.6,1.7,2.4C103.1,109.7,102.8,109.9,102.6,110.2L102.6,110.2z
	 M90.7,58.2L90.7,58.2c1.2,0.3,2.4,0.6,3.6,0.9c0.9,0.3,1.7,0.7,2.5,1.1c0.4,0.2,0.8,0.4,1.2,0.7c0.4,0.2,0.7,0.4,1.1,0.7
	c1.1,0.8,2.2,1.5,3.2,2.4c0.5,0.4,1,0.9,1.5,1.3c0.3,0.2,0.5,0.4,0.7,0.7c0.2,0.2,0.4,0.4,0.6,0.6c0.5,0.6,0.9,1.1,1.4,1.7
	c0.5,0.6,0.9,1.3,1.3,1.9c0.4,0.6,0.7,1.3,1.1,1.9c0.4,0.6,0.7,1.3,1,1.9c0,0,0,0,0,0.1c0,0,0,0,0,0c0,0,0,0,0,0c0,0,0,0,0,0
	c0,0,0,0,0,0c0.6,1.2,1.1,2.4,1.6,3.6c0.2,0.6,0.5,1.2,0.7,1.9c0.2,0.6,0.3,1.2,0.5,1.7c0.2,1.1,0.4,2.2,0.5,3.3
	c0.1,1.1,0.1,2.1,0,3.2c0,0.8-0.1,1.7-0.2,2.5c-0.1,0.9-0.3,1.7-0.5,2.6c-0.4,1.7-0.9,3.3-1.4,4.9c-0.3,0.9-0.6,1.8-1,2.6
	c-0.2,0.5-0.4,0.9-0.7,1.3c-0.2,0.4-0.5,0.8-0.7,1.2c-0.4,0.7-0.9,1.3-1.3,1.9c-0.5,0.7-1,1.3-1.5,2c-0.4,0.5-0.8,0.9-1.2,1.3
	c-0.1-0.1-0.2-0.2-0.3-0.3c-0.5-0.6-1-1.3-1.4-2c0,0,0-0.1-0.1-0.1c0.3-0.3,0.5-0.6,0.7-0.9c0.3-0.5,0.6-1,1-1.5
	c0.7-1.1,1.4-2.1,2-3.3c0.3-0.6,0.6-1.1,0.8-1.7c0.2-0.6,0.4-1.2,0.6-1.8c0.3-0.8,0.5-1.6,0.8-2.4c0.2-0.8,0.4-1.5,0.6-2.3
	c0.2-0.8,0.3-1.5,0.5-2.3c0.1-0.8,0.2-1.6,0.3-2.4c0.1-0.8,0.1-1.7,0.1-2.5c0-0.8,0-1.6-0.1-2.4c-0.1-0.9-0.3-1.7-0.5-2.5
	c-0.1-0.4-0.3-0.7-0.4-1.1c-0.2-0.4-0.3-0.8-0.5-1.1c-0.4-0.8-0.8-1.6-1.2-2.3c-0.4-0.7-0.8-1.4-1.3-2.1c-0.4-0.7-0.8-1.4-1.3-2.1
	c-0.4-0.7-0.9-1.3-1.4-1.9c-0.3-0.3-0.6-0.7-0.9-1c-0.3-0.3-0.6-0.6-1-0.9c-0.6-0.5-1.2-1-1.9-1.5c-0.7-0.5-1.4-1-2.1-1.4
	c-0.7-0.4-1.4-0.8-2.1-1.2c-0.7-0.4-1.5-0.7-2.2-1c-0.8-0.3-1.7-0.5-2.5-0.7c-0.6-0.1-1.2-0.3-1.8-0.4c-0.1-0.1-0.2-0.2-0.3-0.2
	c-0.3-0.2-0.8-0.2-1.1,0c-0.5-0.1-1.1-0.1-1.6-0.1c0,0,0,0,0,0c0,0,0,0,0,0c0,0-0.1,0-0.1,0c0,0,0.1,0,0.1,0c-0.1,0-0.1,0-0.2,0
	c0,0-0.1,0-0.1,0c0,0,0,0,0,0c0,0,0,0,0,0c-0.2,0-0.5,0-0.7,0c-0.8,0-1.6,0.1-2.4,0.2c-0.8,0.1-1.6,0.2-2.4,0.4
	c-1.6,0.3-3.2,0.7-4.8,1.1c-0.8,0.2-1.5,0.5-2.3,0.9c-0.7,0.3-1.4,0.7-2.1,1.1c-0.2,0.1-0.4,0.3-0.6,0.4c-0.4,0.2-0.8,0.4-1.2,0.6
	c-0.7,0.4-1.4,0.8-2,1.3c-1.3,1-2.6,2.2-3.7,3.4c-0.5,0.6-1,1.3-1.4,1.9c-0.5,0.7-0.9,1.4-1.4,2.1c-0.8,1.4-1.5,2.8-2.1,4.3
	c-0.6,1.5-1.1,3.1-1.4,4.7c-0.2,0.8-0.3,1.6-0.4,2.3c-0.1,0.8-0.2,1.6-0.3,2.3c-0.1,0.9-0.1,1.8-0.1,2.6c0,0.8,0.1,1.6,0.2,2.4
	c0.2,1.6,0.7,3.1,1.2,4.6c0,0.1,0.1,0.3,0.1,0.4c-0.3,0-0.5,0-0.8,0c-0.8-0.1-1.5-0.3-2.3-0.3c0,0,0,0,0,0c-0.3-0.8-0.5-1.6-0.7-2.4
	c-0.2-0.8-0.3-1.7-0.4-2.5c-0.1-0.8-0.1-1.7-0.1-2.5c0.1-1.7,0.3-3.5,0.6-5.2c0.1-0.9,0.3-1.7,0.5-2.6c0.2-0.8,0.4-1.7,0.7-2.5
	c0.5-1.4,1-2.8,1.6-4.1c0.6-1.3,1.3-2.6,2.1-3.9c0.4-0.6,0.8-1.1,1.1-1.7c0.4-0.6,0.8-1.2,1.3-1.8c0.9-1.1,2-2.1,3-3.1
	c0.5-0.5,1.1-0.9,1.6-1.4c0.6-0.5,1.2-0.9,1.8-1.3c1.1-0.8,2.3-1.4,3.5-2c0.2-0.1,0.4-0.2,0.6-0.2c0.6-0.3,1.3-0.5,1.9-0.7
	c1.2-0.4,2.5-0.6,3.8-0.9c0.8-0.2,1.6-0.3,2.4-0.5c0.8-0.1,1.6-0.3,2.4-0.4c0.8-0.1,1.7-0.2,2.5-0.2c0.8-0.1,1.5-0.1,2.2,0
	C88.3,57.8,89.5,58,90.7,58.2L90.7,58.2z M88.9,54.3L88.9,54.3c0.4-0.5,0.9-0.9,1.2-1.4c0.9-1.1,1.8-2.2,2.6-3.4
	c0,0.1-0.1,0.1-0.1,0.2c0.1-0.1,0.1-0.2,0.2-0.3c0,0,0,0,0,0.1c0,0,0,0,0.1-0.1c0,0,0,0,0,0c0,0,0,0,0.1-0.1c0,0,0,0,0,0
	c0,0,0,0,0,0c0,0,0,0,0,0l0,0c0,0,0,0,0-0.1c0,0,0,0,0,0.1c0,0,0,0,0,0c0.5-0.6,0.9-1.3,1.3-1.9c0.7-1.2,1.4-2.4,2.1-3.6
	c0.3-0.5,0.6-1.1,1-1.6c0.2-0.2,0.3-0.5,0.5-0.7c0.2-0.3,0.4-0.6,0.6-0.9c0.4-0.5,0.7-0.9,1.1-1.4c0.3-0.3,0.5-0.6,0.8-1
	c0.6-0.6,1.2-1.2,1.9-1.8c0.9-0.7,1.8-1.3,2.8-1.8c0.4-0.2,0.9-0.3,1.3-0.4c0.3,0,0.6-0.1,0.9,0c0.2,0,0.5,0.1,0.7,0.2
	c0.2,0.1,0.5,0.2,0.7,0.4c0.2,0.2,0.4,0.3,0.5,0.5c0.2,0.2,0.3,0.5,0.4,0.7c0.1,0.4,0.3,0.7,0.3,1.1c0.1,0.6,0.1,1.2,0,1.7
	c-0.1,0.7-0.3,1.4-0.5,2c-0.4,1.1-1,2.1-1.7,3c0,0,0,0,0,0c0,0,0,0,0,0c0,0,0,0,0,0c0,0,0,0,0,0c0,0,0,0,0,0c0,0,0,0,0,0
	c0,0,0,0,0,0c0,0,0,0,0,0c0,0,0,0,0,0c-0.8,1.1-1.7,2.1-2.7,3c-0.3,0.3-0.6,0.6-1,0.9c-0.4,0.3-0.8,0.7-1.1,1
	c-0.7,0.5-1.4,1-2.1,1.5c-0.4,0.2-0.8,0.5-1.2,0.7c-0.2,0.1-0.5,0.3-0.7,0.4c-0.6,0.3-1.1,0.5-1.7,0.8c-0.3,0.1-0.6,0.2-0.9,0.4
	c-0.3,0.1-0.5,0.2-0.8,0.4c-0.3,0.1-0.7,0.3-1,0.4c-0.3,0.1-0.5,0.2-0.8,0.3c-0.6,0.2-1.2,0.4-1.9,0.6c-0.4,0.1-0.8,0.2-1.2,0.4
	c-0.3,0.1-0.5,0.1-0.8,0.2c-0.3,0.1-0.6,0.1-0.8,0.2c-0.3,0.1-0.7,0.1-1,0.2C88.2,55,88.6,54.7,88.9,54.3L88.9,54.3z M82.7,44.5
	L82.7,44.5c-0.4-0.9-0.8-1.9-1.1-2.8c-0.5-1.3-1-2.6-1.4-3.8c-0.2-0.6-0.4-1.2-0.5-1.7c-0.1-0.3-0.1-0.6-0.2-0.9
	c-0.1-0.3-0.1-0.6-0.1-0.9c-0.1-0.4-0.1-0.9-0.2-1.3c0-0.3-0.1-0.6-0.1-0.9c0-0.5,0-1,0-1.4c0.1-1,0.3-2.1,0.7-3.1
	c0.1-0.4,0.3-0.7,0.5-1c0.1-0.2,0.2-0.3,0.4-0.4c0.1-0.1,0.2-0.2,0.4-0.2c0.1-0.1,0.3-0.1,0.4-0.1c0.1,0,0.2,0,0.3,0
	c0.1,0,0.2,0,0.3,0c0.4,0.1,0.7,0.2,1.1,0.3c0.5,0.2,1.1,0.5,1.5,0.8c0.6,0.4,1,0.9,1.5,1.4c0.6,0.8,1.2,1.7,1.6,2.7
	c0.2,0.4,0.4,0.9,0.5,1.3c0.1,0.3,0.2,0.5,0.3,0.8c0.1,0.2,0.1,0.4,0.2,0.6c0.1,0.2,0.1,0.3,0.1,0.5c0.1,0.4,0.2,0.8,0.3,1.2
	c0.1,0.5,0.2,0.9,0.3,1.4c0.1,0.4,0.1,0.8,0.2,1.2c0.1,0.7,0.2,1.5,0.2,2.2c0,0.3,0,0.6,0,0.9c0,0.2,0,0.5,0,0.7c0,0.2,0,0.3,0,0.5
	c0,0.4-0.1,0.8-0.1,1.2c0,0.2-0.1,0.4-0.1,0.6c-0.1,0.4-0.1,0.8-0.2,1.1c0,0.3-0.1,0.6-0.2,0.9c-0.1,0.3-0.1,0.6-0.2,0.9
	c-0.1,0.4-0.2,0.7-0.3,1.1c-0.1,0.2-0.1,0.5-0.2,0.7c-0.1,0.4-0.2,0.8-0.4,1.2c-0.2,0.6-0.4,1.1-0.6,1.6c-0.2,0.4-0.3,0.7-0.5,1.1
	c-0.1,0.3-0.3,0.6-0.4,0.9c-0.1,0.3-0.3,0.6-0.5,0.8c0-0.3-0.1-0.6-0.2-0.8c-0.1-0.3-0.2-0.6-0.2-0.9c-0.1-0.6-0.3-1.2-0.5-1.7
	c-0.2-0.6-0.5-1.2-0.7-1.9c-0.3-0.6-0.5-1.2-0.8-1.8C83.5,46.4,83.1,45.5,82.7,44.5L82.7,44.5z M50.3,38.8L50.3,38.8
	c-0.2,0.1-0.5,0.3-0.7,0.5c-0.2,0.2-0.3,0.3-0.5,0.5c-0.1,0.2-0.3,0.3-0.4,0.5c0,0,0,0,0,0c0,0,0,0,0,0c-0.1-0.2-0.1-0.3-0.2-0.5
	c-0.1-0.3-0.2-0.6-0.3-0.9c-0.1-0.4-0.3-0.9-0.4-1.3c0.1-0.1,0.2-0.1,0.4-0.2c0.4-0.2,0.8-0.3,1.2-0.5c0.4-0.2,0.8-0.4,1.2-0.5
	c0.2-0.1,0.4-0.2,0.6-0.3c0,0,0.1,0,0.1-0.1c0,0.4-0.1,0.9-0.1,1.3c0,0.3,0,0.6,0,1c0,0,0,0.1-0.1,0.2c-0.1,0-0.2,0.1-0.3,0.1
	C50.5,38.7,50.4,38.8,50.3,38.8L50.3,38.8z M43.1,42L43.1,42c-0.1,0.2-0.3,0.4-0.4,0.6c-0.1,0.1-0.1,0.2-0.1,0.3
	c0,0.1-0.1,0.2-0.1,0.3c0,0.1,0,0.1-0.1,0.2c0,0,0,0.1,0,0.1c-0.1-0.1-0.2-0.2-0.3-0.4c-0.2-0.3-0.4-0.5-0.6-0.8
	c-0.1-0.1-0.2-0.3-0.3-0.4c-0.1-0.1-0.2-0.3-0.3-0.4c-0.1-0.1-0.2-0.3-0.3-0.4c-0.1-0.1-0.1-0.1-0.2-0.2c0,0,0,0,0,0
	c0.1,0,0.1,0,0.2-0.1c0.2-0.1,0.5-0.2,0.7-0.3c0.2-0.1,0.4-0.2,0.6-0.3c0.8-0.4,1.7-0.8,2.5-1.1c0.2-0.1,0.4-0.2,0.6-0.3
	c0.2-0.1,0.4-0.2,0.6-0.3c0.4-0.2,0.8-0.3,1.2-0.5c0.2-0.1,0.4-0.2,0.6-0.2c0,0,0,0,0,0c0,0,0,0,0,0.1c0.1,0.2,0.2,0.5,0.2,0.7
	c0.1,0.2,0.2,0.4,0.2,0.7c0.1,0.2,0.1,0.4,0.2,0.7c0,0.1,0,0.1,0.1,0.2c0,0,0,0-0.1,0C48,40,47.8,40,47.7,40c-0.2,0-0.4-0.1-0.6-0.1
	c-0.2,0-0.3,0-0.5,0c-0.2,0-0.5,0.1-0.7,0.2c-0.2,0.1-0.4,0.1-0.6,0.2c-0.2,0.1-0.4,0.2-0.6,0.3c-0.2,0.1-0.4,0.2-0.5,0.4
	C43.7,41.3,43.4,41.6,43.1,42L43.1,42z M40.3,43.5L40.3,43.5c-0.5,0.1-0.9,0.3-1.3,0.7c-0.1-0.1-0.1-0.1-0.2-0.2
	c-0.2-0.2-0.3-0.3-0.5-0.5c-0.2-0.1-0.4-0.3-0.6-0.4c-0.3-0.2-0.6-0.3-1-0.4c0,0-0.1,0-0.1,0c-0.2-0.1-0.3-0.1-0.5-0.2
	c0.1,0,0.1,0,0.2,0c0.2-0.1,0.5-0.1,0.7-0.2c0.4-0.1,0.9-0.3,1.3-0.4c0.2-0.1,0.4-0.1,0.6-0.2c0.2-0.1,0.4-0.2,0.7-0.3
	c0.3-0.1,0.5-0.2,0.8-0.3c0.1,0.2,0.2,0.3,0.3,0.5c0.1,0.2,0.3,0.4,0.4,0.6c0.1,0.2,0.2,0.4,0.4,0.6c0.1,0.2,0.2,0.3,0.4,0.5
	c0.1,0.1,0.2,0.2,0.3,0.4c-0.1,0-0.3,0-0.4,0c-0.2,0-0.4,0-0.7,0C40.7,43.4,40.5,43.5,40.3,43.5C40.3,43.5,40.3,43.5,40.3,43.5
	L40.3,43.5z M47.5,37.3L47.5,37.3C47.5,37.3,47.5,37.3,47.5,37.3c-0.1-0.1-0.2-0.2-0.2-0.2c-0.1-0.1-0.2-0.3-0.3-0.4
	c-0.2-0.3-0.4-0.5-0.6-0.8c-0.1-0.1-0.2-0.3-0.3-0.4c-0.1-0.1-0.2-0.2-0.3-0.4c-0.1-0.2-0.3-0.3-0.4-0.5c0.3-0.1,0.7-0.3,1-0.4
	c0.2-0.1,0.5-0.2,0.7-0.3c0.2-0.1,0.4-0.2,0.6-0.3c0.1,0.1,0.2,0.1,0.3,0.2c0.2,0.1,0.4,0.3,0.6,0.4c0.5,0.3,0.9,0.6,1.4,0.9
	c0.2,0.2,0.5,0.3,0.8,0.4c0.1,0.1,0.2,0.1,0.3,0.2c-0.1,0.1-0.2,0.1-0.3,0.2c-0.2,0.1-0.4,0.2-0.6,0.3c-0.2,0.1-0.4,0.2-0.6,0.3
	c-0.4,0.2-0.8,0.4-1.2,0.5C48,37.1,47.8,37.2,47.5,37.3L47.5,37.3z M36.6,39.3L36.6,39.3c0-0.2,0-0.5,0-0.7c0-0.1,0-0.2,0-0.3
	c0,0,0,0,0,0c0.1-0.1,0.2-0.1,0.3-0.2c0,0,0,0,0,0c0,0,0,0,0,0c0,0,0,0,0,0c0,0,0,0,0,0c0,0,0,0,0,0c0,0,0,0,0,0c0,0,0,0,0,0
	c0.1-0.1,0.3-0.1,0.4-0.2c0.7-0.3,1.4-0.6,2.1-0.9c0,0,0,0.1,0,0.1c0,0.2,0,0.4,0.1,0.6c0,0.4,0.1,0.8,0.1,1.2
	c0,0.4,0.1,0.7,0.1,1.1c0,0.1,0,0.1,0,0.2c0,0.1,0,0.1,0,0.2c0,0.1,0,0.1,0,0.2c0,0.1,0,0.2,0,0.2c0,0,0,0,0,0
	c-0.6,0.2-1.2,0.5-1.8,0.7c-0.4,0.2-0.8,0.3-1.2,0.4c-0.3,0.1-0.7,0.2-1,0.3c0.1-0.2,0.1-0.4,0.2-0.6c0.1-0.4,0.2-0.8,0.3-1.1
	C36.5,40.1,36.6,39.7,36.6,39.3L36.6,39.3z M40.5,40.6L40.5,40.6C40.5,40.5,40.5,40.5,40.5,40.6c0-0.1,0-0.1,0-0.2c0,0,0-0.1,0-0.1
	c0,0,0-0.1,0-0.1c0-0.1,0-0.1,0-0.2c0-0.1,0-0.2-0.1-0.3c0-0.2-0.1-0.4-0.1-0.6c0-0.2-0.1-0.4-0.1-0.7c0-0.2,0-0.4-0.1-0.6
	c0-0.3-0.1-0.7-0.1-1c0,0,0,0,0,0c0.8-0.3,1.7-0.7,2.5-1c0.8-0.3,1.6-0.6,2.3-0.9c0.2,0.2,0.4,0.4,0.6,0.6c0.1,0.1,0.3,0.3,0.4,0.4
	c0.1,0.1,0.2,0.3,0.4,0.4c0.2,0.3,0.5,0.6,0.7,0.8c0.1,0.1,0.2,0.2,0.3,0.3c0,0,0,0,0,0c-0.1,0-0.2,0.1-0.3,0.1
	c-0.4,0.2-0.8,0.4-1.2,0.6c-0.4,0.2-0.8,0.4-1.2,0.6c-0.4,0.2-0.8,0.4-1.2,0.5c-0.4,0.2-0.8,0.4-1.2,0.6c-0.4,0.2-0.8,0.4-1.2,0.6
	C40.8,40.4,40.6,40.5,40.5,40.6L40.5,40.6z M51.3,34.8C51.3,34.8,51.3,34.8,51.3,34.8C51.3,34.8,51.3,34.8,51.3,34.8
	C51.3,34.8,51.3,34.8,51.3,34.8L51.3,34.8L51.3,34.8z M39.4,46.4L39.4,46.4c-0.1-0.2-0.2-0.3-0.3-0.5c-0.1-0.1-0.1-0.2-0.1-0.4
	c0,0,0,0,0,0c0.1,0,0.1,0,0.2,0c0.3-0.2,0.5-0.6,0.2-0.9c0,0,0.1-0.1,0.1-0.1c0.1-0.1,0.3-0.2,0.4-0.3c0.2-0.1,0.5-0.2,0.7-0.2
	c0.1,0,0.3-0.1,0.4-0.1c0.1,0,0.3,0,0.4,0c0,0,0,0,0,0c0.2,0,0.4,0,0.6,0c0.1,0,0.2,0,0.3,0.1c0,0,0,0,0,0c0.1,0,0.1,0.1,0.2,0.1
	c0.1,0,0.1,0,0.2-0.1c0.1-0.1,0.2-0.2,0.1-0.4c0,0,0-0.1-0.1-0.1c0.1-0.3,0.3-0.6,0.4-0.8c0,0,0,0,0,0c0,0,0,0,0,0
	c0.2-0.3,0.5-0.6,0.7-0.8c0.1-0.1,0.3-0.2,0.4-0.3c0.2-0.1,0.3-0.2,0.5-0.3c0.2-0.1,0.3-0.2,0.5-0.2c0.2-0.1,0.3-0.1,0.5-0.2
	c0.2,0,0.4-0.1,0.6-0.1c0.2,0,0.4,0,0.6,0c0.2,0,0.3,0,0.5,0.1c0.1,0,0.3,0.1,0.4,0.1c0.1,0,0.3,0.1,0.4,0.1c0,0,0.1,0,0.1,0
	c0,0.1,0.1,0.1,0.2,0.1c0.1,0,0.2-0.1,0.2-0.2c0,0,0,0,0,0c0.3-0.3,0.6-0.6,0.9-0.9c0.2-0.2,0.5-0.4,0.7-0.5
	c0.2-0.1,0.4-0.2,0.6-0.2c0.2,0,0.3-0.1,0.5-0.1c0.1,0,0.1,0,0.2,0c0.1,0,0.3,0,0.4,0.1c0.1,0,0.2,0.1,0.3,0.1
	c0.1,0.1,0.2,0.1,0.3,0.2c0.1,0.1,0.2,0.3,0.3,0.4c0.1,0.1,0.1,0.3,0.2,0.5c0.1,0.1,0.1,0.3,0.1,0.4c0,0.1,0,0.2,0,0.3
	c0,0.1,0,0.3-0.1,0.4c0,0,0,0,0,0c0,0,0,0.1,0,0.1c-1.1,0.2-2.2,0.5-3.4,0.8c-0.9,0.3-1.8,0.6-2.7,1c-0.8,0.4-1.7,0.8-2.4,1.3
	c-0.2,0.2-0.5,0.3-0.7,0.5c-0.5,0.2-0.9,0.5-1.4,0.8c-0.6,0.3-1.2,0.7-1.7,1c0,0-0.1,0-0.1,0c-0.1,0-0.1,0-0.2,0.1
	c-0.2-0.1-0.4-0.2-0.6-0.3C39.7,46.7,39.6,46.6,39.4,46.4L39.4,46.4z M29.4,69.8L29.4,69.8c0.1-0.9,0.3-1.7,0.5-2.6
	c0.2-0.8,0.4-1.7,0.7-2.5c0.5-1.4,1-2.8,1.6-4.1c0.6-1.3,1.3-2.6,2.1-3.9c0.4-0.6,0.8-1.1,1.1-1.7c0.4-0.6,0.8-1.2,1.3-1.8
	c0.9-1.1,2-2.1,3-3.1c0.5-0.5,1.1-0.9,1.6-1.4c0.6-0.5,1.2-0.9,1.8-1.3c1.1-0.8,2.3-1.4,3.5-2c0.2-0.1,0.4-0.2,0.6-0.2
	c0.6-0.3,1.3-0.5,1.9-0.7c1.2-0.4,2.5-0.6,3.8-0.9c0.8-0.2,1.6-0.3,2.4-0.5c0.8-0.1,1.6-0.3,2.4-0.4c0.8-0.1,1.7-0.2,2.5-0.2
	c0.7-0.1,1.5-0.1,2.2,0c1.2,0.1,2.5,0.2,3.7,0.5c1.2,0.2,2.4,0.6,3.6,0.9c0.9,0.3,1.7,0.7,2.5,1.1c0.4,0.2,0.8,0.4,1.2,0.7
	c0.4,0.2,0.7,0.4,1.1,0.7c1.1,0.8,2.2,1.5,3.2,2.4c0.5,0.4,1,0.9,1.5,1.3c0.3,0.2,0.5,0.4,0.7,0.7c0.2,0.2,0.4,0.4,0.6,0.6
	c0.5,0.6,0.9,1.1,1.4,1.7c0.5,0.6,0.9,1.3,1.3,1.9c0.2,0.4,0.4,0.8,0.6,1.1c-0.3,0-0.6,0.1-0.9,0.1c-0.7,0.1-1.4,0.2-2.1,0.3
	c-0.1-0.2-0.3-0.5-0.4-0.7c-0.4-0.7-0.9-1.3-1.4-1.9c-0.3-0.3-0.6-0.7-0.9-1c-0.3-0.3-0.6-0.6-1-0.9c-0.6-0.5-1.2-1-1.9-1.5
	c-0.7-0.5-1.4-1-2.1-1.4c-0.7-0.4-1.4-0.8-2.1-1.2c-0.7-0.4-1.5-0.7-2.2-1c-0.8-0.3-1.7-0.5-2.5-0.7c-0.8-0.2-1.5-0.4-2.3-0.5
	c-0.8-0.1-1.6-0.2-2.5-0.2c0,0,0,0,0,0c0,0,0,0,0,0c0,0-0.1,0-0.1,0c0,0,0,0,0.1,0c-0.1,0-0.1,0-0.2,0c0,0-0.1,0-0.1,0
	c0,0,0,0-0.1,0c0,0,0,0,0,0c-0.2,0-0.5,0-0.7,0c-0.8,0-1.6,0.1-2.4,0.2c-0.8,0.1-1.6,0.2-2.4,0.4c-1.6,0.3-3.2,0.7-4.8,1.1
	c-0.8,0.2-1.5,0.5-2.3,0.9c-0.7,0.3-1.4,0.7-2.1,1.1c-0.2,0.1-0.4,0.3-0.6,0.4c-0.4,0.2-0.8,0.4-1.2,0.6c-0.7,0.4-1.4,0.8-2,1.3
	c-1.3,1-2.6,2.2-3.7,3.4c-0.5,0.6-1,1.3-1.4,1.9c-0.5,0.7-0.9,1.4-1.4,2.1c-0.8,1.4-1.5,2.8-2.1,4.3c-0.6,1.5-1.1,3.1-1.4,4.7
	c-0.2,0.8-0.3,1.6-0.4,2.3c-0.1,0.8-0.2,1.6-0.3,2.3c-0.1,0.9-0.1,1.8-0.1,2.6c0,0.2,0,0.4,0,0.6c-0.4,0.1-0.8,0.2-1.3,0.3
	c-0.5,0.1-1.1,0.1-1.6,0.1c0-0.4,0-0.8,0-1.3C28.9,73.2,29.1,71.5,29.4,69.8z"/>
</svg>
