<svg xmlns="http://www.w3.org/2000/svg" xmlns:xlink="http://www.w3.org/1999/xlink" version="1.1" x="0px" y="0px" viewBox="0 0 505.417 63.995" enable-background="new 0 0 505.417 63.995" xml:space="preserve" style="fill: rgb(0, 0, 0);" role="img" aria-label="Arrow with Heart Icon">
<g id="__id208_s6lstntpw">
	<g id="__id209_s6lstntpw">
		<path d="M16.955,34.995c0,0,97.674,0,146.47,0c20.327,0,40.53,0,60.53,0c4,0,4-6,0-6c-48,0-97.141,0-145.937,0    c-20.327,0-41.063,0-61.063,0C12.955,28.995,12.955,34.995,16.955,34.995C16.955,34.995,12.955,34.995,16.955,34.995z" style="fill: rgb(157, 157, 157);"></path>
		<path d="M256.097,11.762c-5.886-8.459-16.071-12.9-26.01-8.842c-7.899,3.225-13.102,11.29-12.366,19.771    c0.586,6.752,4.235,12.27,8.694,17.154c7.504,8.217,16.631,15.076,24.97,22.404c1.289,1.134,2.953,1.133,4.242,0    c8.373-7.355,17.309-14.288,24.974-22.404c4.632-4.903,7.855-10.407,8.692-17.154c1.043-8.405-4.694-16.638-12.369-19.771    c-9.938-4.059-20.122,0.383-26.008,8.842c-2.216,3.185,2.988,6.18,5.181,3.028c5.594-8.039,15.993-9.949,23.311-3.07    c4.686,4.405,4.865,10.905,2.301,16.429c-2.237,4.818-6.34,8.634-10.153,12.204c-6.519,6.104-13.463,11.762-20.17,17.654    c1.414,0,2.828,0,4.242,0c-6.398-5.623-12.942-11.086-19.25-16.812c-4.231-3.84-8.449-7.902-11.07-13.047    c-2.605-5.115-2.206-11.002,1.42-15.482c6.72-8.304,18.537-6,24.189,2.123C253.108,17.941,258.312,14.947,256.097,11.762z" style="fill: rgb(157, 157, 157);"></path>
		<path d="M282.955,34.995c0,0,99.675,0,149.58,0c7.591,0,15.42,0,22.42,0c4,0,4-6,0-6c-50,0-99.456,0-149.361,0    c-7.591,0-15.639,0-22.639,0C278.955,28.995,278.955,34.995,282.955,34.995C282.955,34.995,278.955,34.995,282.955,34.995z" style="fill: rgb(157, 157, 157);"></path>
		<path d="M461.955,60.995c0-20,0-38.756,0-57.968c-1,0.863-2.865,1.727-4.369,2.59    c14.408,9.401,29.369,18.801,43.369,28.203c0-1.728,0-3.454,0-5.181c-14,9.811-28.824,19.622-43.232,29.432    c-3.178,2.164-0.184,7.365,3.023,5.182c14.409-9.812,28.815-19.622,43.225-29.433c1.896-1.292,1.96-3.902-0.001-5.181    c-14.409-9.401-28.954-18.801-43.364-28.202c-1.934-1.263-4.65,0.401-4.65,2.59c0,19.211,0,37.968,0,57.968    C455.955,64.995,461.955,64.995,461.955,60.995z" style="fill: rgb(157, 157, 157);"></path>
		<path d="M69.11,56.406c-22.052,0-44.104,0-66.155,0c0.863,1.505,1.727,3.01,2.59,4.515    c2.5-4.799,5.001-9.598,7.501-14.396c1.574-3.02,3.147-6.04,4.721-9.06c0.945-1.813,2.387-3.665,1.418-5.75    c-4.547-9.793-9.094-19.587-13.641-29.381c-0.863,1.505-1.727,3.009-2.59,4.514c22.052,0,44.104,0,66.155,0    c-0.863-0.495-1.727-0.991-2.59-1.486c5.229,9.631,10.458,19.262,15.687,28.892c0-1.009,0-2.019,0-3.028    c-5.229,8.888-10.458,17.777-15.687,26.665c-1.966,3.343,3.221,6.36,5.181,3.029c2.864-4.869,5.729-9.738,8.593-14.607    c1.755-2.983,3.51-5.967,5.265-8.95c0.875-1.488,2.642-3.562,2.131-5.419c-1.34-4.873-5.285-9.894-7.676-14.297    c-2.771-5.104-5.542-10.208-8.313-15.312c-0.5-0.92-1.56-1.486-2.59-1.486c-22.052,0-44.104,0-66.155,0    c-2.437,0-3.521,2.509-2.59,4.514c4.547,9.793,9.094,19.587,13.641,29.38c0-1.009,0-2.019,0-3.028    C9.458,40.44,4.912,49.167,0.365,57.891c-1.037,1.989,0.232,4.515,2.59,4.515c22.052,0,44.104,0,66.155,0    C72.979,62.406,72.979,56.406,69.11,56.406z" style="fill: rgb(157, 157, 157);"></path>
		<path d="M22.485,60.92c2.5-4.799,5.001-9.598,7.501-14.396c1.574-3.02,3.147-6.04,4.721-9.06    c0.945-1.813,2.387-3.665,1.418-5.75c-4.547-9.793-9.094-19.587-13.641-29.381c-1.628-3.507-6.799-0.457-5.181,3.028    c4.547,9.793,9.094,19.587,13.641,29.38c0-1.009,0-2.019,0-3.028c-4.547,8.725-9.094,17.452-13.641,26.176    C15.519,61.318,20.697,64.352,22.485,60.92L22.485,60.92z" style="fill: rgb(157, 157, 157);"></path>
		<path d="M38.841,60.92c2.5-4.799,5.001-9.598,7.501-14.396c1.574-3.02,3.147-6.04,4.721-9.06    c0.945-1.813,2.387-3.665,1.418-5.75c-4.547-9.793-9.094-19.587-13.641-29.381c-1.628-3.507-6.799-0.457-5.181,3.028    c4.547,9.793,9.094,19.587,13.641,29.38c0-1.009,0-2.019,0-3.028c-4.547,8.725-9.094,17.452-13.641,26.176    C31.875,61.318,37.053,64.352,38.841,60.92L38.841,60.92z" style="fill: rgb(157, 157, 157);"></path>
		<path d="M54.613,60.92c2.5-4.799,5.001-9.598,7.501-14.396c1.574-3.02,3.147-6.04,4.721-9.06    c0.945-1.813,2.387-3.665,1.418-5.75c-4.547-9.793-9.094-19.587-13.641-29.381c-1.628-3.507-6.799-0.457-5.181,3.028    c4.547,9.793,9.094,19.587,13.641,29.38c0-1.009,0-2.019,0-3.028c-4.547,8.725-9.094,17.452-13.641,26.176    C47.646,61.318,52.824,64.352,54.613,60.92L54.613,60.92z" style="fill: rgb(157, 157, 157);"></path>
	</g>
</g>
</svg>