<svg xmlns="http://www.w3.org/2000/svg" xmlns:xlink="http://www.w3.org/1999/xlink" preserveAspectRatio="xMidYMid meet" version="1.0" viewBox="-1.2 -1.8 401.3 459.3" zoomAndPan="magnify" style="fill: rgb(0, 0, 0);" role="img" aria-label="Flower Line Art"><g><g id="__id573_s4kiwarzhs"><path d="M45.3,230.9c-1.9-1.3-12.6-11.1-7.2-12.6c2.7-0.7,4.5,2.5,5.2,4.5c1,2.7,1.6,5.5,1.6,8.4 c0,1,1.6,1.3,1.7,0.3c0.7-3.5,0-7.1,0.4-10.6c0.3-3.2,2.5-7.7,6.5-6.7c4.2,1,2.5,6.9,0.9,9.4c-2.2,3.2-5.8,5.1-9.1,6.8 c0.4,0.4,0.7,1,1.2,1.4c2.3-2.2,4.9-4,7.7-5.5c2.7-1.4,7.4-3.8,10.3-1.4c1.6,1.3,1.4,3.3,0.1,4.6c-1.3,1.3-3.2,1.6-4.9,1.6 c-3.6-0.1-7.2-1-10.7-1.6c-0.1,0.6-0.1,1.2-0.3,1.7c4.2,0,8.4,0.4,12,2.5c3.2,1.9,6.1,5.8,5.5,9.7c-0.7,4.6-8.1-2.6-9.4-4 c-2.5-2.9-4.3-6.4-6.2-9.7c-0.4-0.7-1.7-0.4-1.7,0.4c0.4,3.2,1.9,6.1,3.2,9c1.4,3,2.7,6.8,1.4,10.1c-0.3,0.9-0.7,1.7-1.7,2 c-1,0.3-2.2-0.4-2.9-1.2c-1.3-1-2.3-2.5-2.9-4c-1.6-3.8-1-8.1-0.3-12c-0.6,0-1.2,0-1.7,0c1.3,3.3-0.9,6.5-3.9,7.8 c-1.6,0.7-3.3,0.9-5.1,0.7c-0.9,0-1.9,0-2.6-0.3c-1.3-0.6-1.7-1.6-2.2-2.9c-0.4-1.3-1.9-4.9-0.6-5.9c0.6-0.6,2.2-0.4,2.9-0.6 c0.9-0.1,1.7-0.1,2.5-0.1c3.9,0,7.7,0.9,11.1,2.5c1,0.4,2-1,0.9-1.6c-4.9-2.3-10.4-3.2-15.8-2.5c-1.7,0.3-3.6,0.7-3.9,2.6 c-0.4,2.3,0.7,5.6,1.7,7.7c1.9,3.9,8.4,3.3,11.7,1.9c3.8-1.6,6.5-5.9,4.8-10c-0.3-0.7-1.6-1-1.7,0c-0.9,4.6-1.4,9.4,0.7,13.7 c0.9,1.7,2,3.2,3.5,4.3c1.2,0.9,3.2,2,4.6,1.3c3.2-1.4,3.3-6.5,2.9-9.4c-0.9-4.8-4.2-8.7-4.9-13.6c-0.6,0.1-1.2,0.3-1.7,0.4 c2.5,4.3,5.1,8.8,8.7,12.3c2,1.9,8.2,6.8,10,2c1.6-4.1-1.4-9-4.5-11.6c-4-3.3-9.5-4-14.7-4c-1,0-1.3,1.6-0.3,1.7 c2.7,0.4,5.3,0.9,8.1,1.3c2,0.3,4.2,0.6,6.2,0c3.2-0.9,6.1-4.3,4.2-7.5c-2.2-3.9-7.1-2.9-10.4-1.6c-4.2,1.6-8,4-11.3,7.1 c-0.7,0.7,0.1,1.9,1.2,1.4c4-2.2,8.5-4.6,10.7-9c1.6-3.2,1.9-8.2-1.7-10.1c-3.2-1.7-7.1,0.4-8.5,3.3c-2.5,4.6-0.6,9.8-1.6,14.7 c0.6,0.1,1.2,0.1,1.7,0.3c0-3.9-0.9-8-2.9-11.4c-1.4-2.5-4-4.3-6.9-3c-7.2,3.2,4.6,13.6,7.5,15.8 C45.3,233.1,46.2,231.7,45.3,230.9L45.3,230.9z" style="fill: rgb(122, 114, 96);"></path></g></g><g><g id="__id574_s4kiwarzhs"><path d="M46.7,229.4c-2.6-0.1-4.2,3.3-3,5.5c1.3,2.2,4.3,2.9,6.7,2c2.2-1.4,2.6-5.1,0.7-7.1 c-1.9-1.9-5.5-1.6-7.1,0.7" style="fill: rgb(122, 114, 96);"></path></g><g id="__id575_s4kiwarzhs"><path d="M46.7,228.5c-2.5-0.1-4.2,2.3-4.3,4.6c-0.1,2.6,2.2,4.6,4.6,4.9c0.6,0.1,1.3,0.1,2,0.1 c0.6,0,1.4-0.1,1.9-0.4c1-0.6,1.7-1.9,2.2-2.9c0.7-2.3-0.1-5.1-2.3-6.4c-2.5-1.3-5.8-0.6-7.4,1.7c-0.3,0.4-0.1,1,0.3,1.3 c0.4,0.3,1,0.1,1.3-0.3c0.1-0.3,0.6-0.6,0.9-0.7c0.4-0.3,0.6-0.4,1.2-0.6c0.9-0.3,1.6-0.3,2.5,0c0.7,0.3,1.4,0.7,1.7,1.4 c0.1,0.4,0.3,0.7,0.4,1.2v0.1c0-0.1,0,0,0,0c0,0.1,0,0.3,0,0.3c0,0.3,0,0.4,0,0.7c0,0.1,0,0.1,0,0v0.1c0,0.1,0,0.1-0.1,0.3 c0,0.1,0,0.1-0.1,0.3l-0.1,0.3c-0.1,0.4-0.4,0.7-0.7,1c-0.1,0.1-0.1,0.1-0.3,0.3c0,0-0.3,0.1-0.1,0.1c0,0,0.1,0,0,0h-0.1 c-0.1,0-0.3,0-0.4,0.1c-0.4,0.1-0.9,0.1-1.3,0.1c-0.9,0-1.7-0.3-2.6-0.7c-0.3-0.1-0.7-0.6-0.9-0.7c-0.1-0.1-0.3-0.4-0.3-0.6 s0,0.1,0,0v-0.1c0-0.1,0-0.3-0.1-0.4v-0.1c0,0.1,0,0,0,0c0-0.1,0-0.3,0-0.3c0-0.1,0-0.3,0-0.4c0,0.1,0-0.1,0-0.1 c0.1-0.6,0.1-0.7,0.6-1.2c0,0,0-0.1,0.1-0.1c0.1-0.3,0,0,0,0c0.1-0.1,0.1-0.1,0.3-0.3l0.1-0.1c0,0,0.1-0.1,0,0 c0.1,0,0.1-0.1,0.3-0.1s0.1-0.1,0.3-0.1c-0.1,0,0.1,0,0.1,0h0.1c0.1,0,0,0,0,0c0.1,0,0.3,0,0.4,0c0.4,0,0.9-0.4,0.9-0.9 C47.6,228.8,47.2,228.5,46.7,228.5L46.7,228.5z" style="fill: rgb(122, 114, 96);"></path></g></g><g><g id="__id576_s4kiwarzhs"><path d="M22.9,144.6c2.7-2.2,5.9-4,9.3-5.2c2.9-1,8.1-1.2,8.2,3c0.1,1.9-1.3,2.5-2.9,2.7c-1.6,0.3-3.3,0.7-4.9,0.9 c-3.8,0.6-7.7,0.6-11.3-1.3c-0.3,0.6-0.4,1.2-0.7,1.6c3.3,0.7,6.5,1.9,9.5,3.3c1.4,0.7,2.9,1.6,4.2,2.5c1.4,1,4.3,3.2,1.3,4.3 c-2.9,1.2-6.5-0.9-8.7-2.6c-2.3-1.9-4.2-4.3-5.8-6.9c-0.6-1-2-0.1-1.6,0.9c1.3,3,2.7,5.9,4,9c0.7,1.6,1.6,3.5,1.3,5.3 c-0.3,1.4-1.4,3-3.2,2.6c-2.3-0.6-2.6-4.3-2.7-6.2c-0.3-3.3-0.6-6.7-0.9-9.8c-0.1-1-1.4-1.3-1.7-0.3c-0.7,2.9-1.4,6.1-3.8,8.2 c-2.5,2.3-5.8,2.5-8.1-0.1c-1-1.2-2.5-3.3-1.2-4.8c0.9-1,2.3-1.3,3.5-1.6c3.3-0.7,6.7-1,10.1-0.9c1.2,0,1.2-1.7,0-1.7 c-3-0.1-6.1-0.1-9.1-0.3c-1.6-0.1-3.2-0.3-4.5-1.2c-1.4-1-2.6-3.2-0.7-4.3c2.2-1.6,5.6,2.2,7.4,3.3c2.3,1.4,4.8,2.7,7.2,3.6 c0.9,0.3,1.4-0.9,0.9-1.4c-4.9-5.4-10.3-12.3-7.7-20c-0.4,0.1-0.9,0.3-1.3,0.6c2.9,1.4,4.5,4.2,5.5,7.2c1.2,3.5,2,6.9,2.9,10.4 c0.3,1,1.9,0.9,1.7-0.3c-0.4-3.6-0.4-7.4,0.4-11c0.6-2.6,2.2-6.8,5.6-6.1c4,0.9,3.8,5.8,2,8.5c-1.7,2.9-4.8,4.8-7.4,6.9 c-0.9,0.7,0.4,2,1.3,1.3c3.3-2.9,7.4-5.4,8.8-9.8c1-3.3-0.3-7.4-3.8-8.5c-3.5-1.2-6.2,1.4-7.5,4.5c-1.9,4.3-1.9,9.7-1.3,14.3 c0.6-0.1,1.2-0.1,1.7-0.3c-1.2-3.9-2-8.1-3.5-11.9c-1.2-2.9-2.9-5.5-5.8-6.8c-0.6-0.3-1.2,0-1.3,0.6c-2.7,8.4,2.7,15.9,8.2,21.8 c0.3-0.4,0.6-1,0.9-1.4c-2.2-0.9-4-1.9-6.1-3c-1.7-1-3.2-2.5-4.9-3.5c-2.5-1.4-5.8-1.6-6.7,1.6c-0.9,2.9,1.4,5.3,4,6.4 c1.9,0.6,3.8,0.6,5.8,0.7c2.5,0.1,4.8,0.1,7.2,0.3c0-0.6,0-1.2,0-1.7c-4.2-0.1-9.5-0.1-13.3,2c-3.5,1.9-2.9,5.3-0.7,8.1 c2.3,2.9,5.8,3.8,9.1,2c3.8-2,5.1-6.5,6.1-10.4c-0.6-0.1-1.2-0.1-1.7-0.3c0.3,4.3,0.3,8.8,1.3,13c0.6,2.5,2.2,5.3,5.2,4.9 c3-0.4,4.3-3.9,3.9-6.5c-0.3-2.2-1.4-4.2-2.3-6.1c-1-2.3-2.2-4.8-3.2-7.1c-0.6,0.3-1,0.6-1.6,0.9c2.2,3.3,4.6,6.5,8,8.7 c2.6,1.7,7.5,3.3,10.1,0.7c3.3-3.2-1.4-6.1-3.8-7.5c-3.9-2.5-8.2-4.2-12.9-5.2c-1-0.1-1.6,1.2-0.7,1.6c4.3,2.2,9.1,2,13.9,1.3 c3.3-0.6,8.4-1,8-5.6c-0.4-4-4.3-5.5-8-5.1c-4.6,0.7-9.1,3.3-12.7,6.2C20.7,144.1,22,145.4,22.9,144.6L22.9,144.6z" style="fill: rgb(122, 114, 96);"></path></g></g><g><g id="__id577_s4kiwarzhs"><path d="M36.3,157.8c10.3,8.4,20.8,16.5,31.7,24.1c10.7,7.5,21.4,15,31.7,23c5.6,4.3,11.3,8.8,15.9,14.3 c3.6,4.3,6.8,9.3,10.1,13.9c7.2,10.1,14.3,20.2,21.5,30.4c2.2,3.2,4.5,6.4,6.4,9.7c5.9,10.4,11,21.4,14.5,32.8 c3.5,11.3,4.9,22.8,6.2,34.6c1.9,15.2,3.5,30.5,2.9,45.8c-0.4,13.3-2.2,26.5-5.1,39.3c-0.9,3.9-1.9,7.8-3,11.7 c-0.3,1.2,1.4,1.6,1.7,0.4c3.9-14,6.5-28.3,7.7-42.8c1.2-14.3,0.4-28.8-1-43.1c-1.4-13.4-2.6-27-5.9-40.2 c-2.5-9.7-6.1-18.9-10.3-27.9c-2.9-6.1-6.1-12-10-17.6c-5.9-8.7-12.1-17.1-18.2-25.7c-4.9-6.9-9.7-14-14.7-20.7 c-3.2-4-6.8-7.7-10.8-11c-9.8-8.4-20.5-15.9-31.1-23.3c-11-7.7-21.8-15.5-32.4-23.9c-2.2-1.7-4.3-3.5-6.7-5.3 C36.8,155.8,35.5,157.1,36.3,157.8L36.3,157.8z" style="fill: rgb(122, 114, 96);"></path></g></g><g><g id="__id578_s4kiwarzhs"><path d="M66.1,238.9c7.7-2.3,15.6-3.5,23.6-3.6c9.8-0.1,20.2,0.7,29.8,3.8c5.8,1.9,11.1,4.5,16.2,7.8 c1,0.6,1.9-0.9,0.9-1.6c-8.8-5.9-18.8-9.4-29.4-10.7c-9.1-1.2-18.4-1.6-27.5-0.4c-4.8,0.6-9.5,1.6-14.2,3 C64.5,237.5,65,239.2,66.1,238.9L66.1,238.9z" style="fill: rgb(122, 114, 96);"></path></g></g><g><g id="__id579_s4kiwarzhs"><path d="M140.4,304c12.9,7.5,23.9,18.2,33.4,29.6c0.7,0.9,2-0.4,1.3-1.3c-9.5-11.6-20.7-22.3-33.8-29.9 C140.3,301.8,139.4,303.4,140.4,304L140.4,304z" style="fill: rgb(122, 114, 96);"></path></g></g><g><g id="__id580_s4kiwarzhs"><path d="M118.7,172.4c-0.7,16.8-0.7,33.7-0.1,50.5c0,1.2,1.9,1.2,1.7,0c-0.7-16.8-0.6-33.7,0.1-50.5 C120.6,171.2,118.7,171.2,118.7,172.4L118.7,172.4z" style="fill: rgb(122, 114, 96);"></path></g></g><g><g id="__id581_s4kiwarzhs"><path d="M76.5,139.3c5.5,19.5,11.3,38.9,15,58.8c0.3,1.2,2,0.7,1.7-0.4c-3.8-20-9.5-39.3-15-58.8 C78,137.7,76.2,138.1,76.5,139.3L76.5,139.3z" style="fill: rgb(122, 114, 96);"></path></g></g><g><g id="__id582_s4kiwarzhs"><path d="M102.6,109.9c8.4,6.1,16.3,12.9,23.1,20.5c7.2,8.2,13.4,17.5,19.2,26.7c9.1,14.2,18.4,28.6,25.3,44.1 c3,6.5,5.5,13.3,6.8,20.4c1.2,6.1,1.6,12.4,2.6,18.5c1.7,11.1,4.2,22.1,7.5,33c4.2,13.6,4,28,4.6,42.2c1,23.9,2,47.7,2.9,71.7 c0.7,18.7,1,37.3,1.7,56.1c0.1,4.3,0.3,8.7,0.6,13.2c0,1.2,1.9,1.2,1.7,0c-1-21.5-1.3-43.1-2-64.6c-0.7-22-1.7-44.1-2.6-66.1 c-0.3-8.7-0.7-17.3-1-25.9c-0.3-6.5-0.9-12.9-2.2-19.2c-1-5.5-2.9-10.7-4.3-16c-1.3-4.8-2.3-9.5-3.2-14.3 c-1.4-7.5-2.6-15-3.5-22.6c-0.7-6.1-2-12-4.2-17.9c-5.5-15.5-14.5-29.5-23-43.4c-7.1-11.4-14.2-22.8-22.7-33.3 c-5.8-7.1-12.3-13.4-19.4-19.1c-2.3-1.9-4.8-3.8-7.1-5.5C102.6,107.8,101.7,109.4,102.6,109.9L102.6,109.9z" style="fill: rgb(122, 114, 96);"></path></g></g><g><g id="__id583_s4kiwarzhs"><path d="M168.6,157.2c-1.4,10.7-2.7,21.4-4.2,32.2c-0.1,1.2,1.6,1.2,1.7,0c1.4-10.7,2.7-21.4,4.2-32.2 C170.7,156.1,168.8,156.1,168.6,157.2L168.6,157.2z" style="fill: rgb(122, 114, 96);"></path></g></g><g><g id="__id584_s4kiwarzhs"><path d="M189,67.7c6.8,15.8,13.4,31.7,20.2,47.4c0.4,1,2,0.1,1.6-0.9c-6.8-15.8-13.4-31.7-20.2-47.4 C190.2,65.7,188.6,66.7,189,67.7L189,67.7z" style="fill: rgb(122, 114, 96);"></path></g></g><g><g id="__id585_s4kiwarzhs"><path d="M242.2,46c-4.5,6.2-8.4,12.9-12,19.7c-2.7,5.3-5.1,10.8-7.2,16.3c-4.8,11.9-9.7,23.7-14.5,35.6 c-3.9,9.5-7.2,19.4-9.8,29.4c-2.7,10.6-3,21.3-4.6,32c-2.9,18.9-8,37.3-15,55.1c-0.4,1,1.3,1.6,1.7,0.4 c6.4-16.2,11.1-33,14.2-50.2c1.2-6.4,2-12.9,2.6-19.4c0.4-4.6,1-9.3,2-13.9c4.8-21.4,14.3-41.6,22.4-61.9c2.7-7.1,5.5-14.2,8.8-21 c3.8-7.5,8.1-14.6,12.9-21.4C244.5,45.9,242.9,45,242.2,46L242.2,46z" style="fill: rgb(122, 114, 96);"></path></g></g><g><g id="__id586_s4kiwarzhs"><path d="M356.6,30.3c-7.2,3.2-14,7.2-20.2,12.1c-5.9,4.8-11,10.4-15.9,16.2c-3.6,4.3-7.4,8.8-11.4,12.9 c-2.5,2.5-5.1,4.9-7.7,7.4c-11,11-21.1,23-30.9,35.1c-7.5,9.4-14.7,19.1-21.7,28.8c-9.1,12.7-17.2,26-23.3,40.5 c-6.1,14.3-10.4,29.2-14.9,44.1c-4.3,14.5-7.7,29.2-9.7,44.2c-2.3,17.4-2.7,34.8-1.7,52.3c1,17.2,1.9,34.6,4.9,51.5 c3,16.9,8.5,33.3,16,48.6c1.3,2.7,2.7,5.5,4.3,8.2c0.6,1,2.2,0.1,1.6-0.9c-7.8-14-13.7-29.1-17.6-44.7c-4.2-16.8-5.5-33.8-6.7-51 c-1.2-17.2-1.9-34.3-0.4-51.3c1.3-16,4.3-31.8,8.5-47.4c3.8-14.2,8.1-28.3,13.2-42.2c5.3-15,12.6-29.4,21.5-42.5 c15.8-23.4,33.5-45.8,52.9-66.5c5.8-6.1,12-11.6,17.6-17.9c4.6-5.2,9-10.8,13.7-16c5.8-6.1,12.3-11.3,19.5-15.5 c3-1.7,6.1-3.2,9.1-4.6C358.6,31.4,357.6,29.8,356.6,30.3L356.6,30.3z" style="fill: rgb(122, 114, 96);"></path></g></g><g><g id="__id587_s4kiwarzhs"><path d="M314.1,93.4c-10.4,3.9-21.4,6.7-32.4,8c-1.2,0.1-1.2,1.9,0,1.7c11.3-1.3,22.3-3.9,33-8 C315.7,94.7,315.1,93,314.1,93.4L314.1,93.4z" style="fill: rgb(122, 114, 96);"></path></g></g><g><g id="__id588_s4kiwarzhs"><path d="M293.8,185c-4.5,0.6-8.8,1.7-12.9,3.8c-3.9,1.9-7.2,4.5-10.6,7.2c-5.2,4.5-10.6,8.5-16.2,12.4 c-11.1,7.7-19.8,18.2-29.1,27.9c-7.2,7.7-14.6,15.3-22.1,22.7c-0.9,0.9,0.4,2.2,1.3,1.3c12-12,23.4-24.6,35.3-36.9 c4.2-4.5,8.8-8.7,13.7-12.3c4.6-3.3,9.4-6.5,13.7-10.1c3.8-3.2,7.4-6.5,11.6-9.1c4.6-2.7,9.8-4.5,15-5.2 C295,186.6,295,184.8,293.8,185L293.8,185z" style="fill: rgb(122, 114, 96);"></path></g></g><g><g id="__id589_s4kiwarzhs"><path d="M132.3,300.6c1.3,2.6,2.2,5.5,2.2,8.5c0,1.3-0.4,9.3-3.2,7.1c-0.9-0.7-1.6-2.6-2-3.6 c-0.4-1-0.7-2.2-0.9-3.3c-0.4-2.7-0.1-5.5,0.7-8.1c-0.6-0.1-1.2-0.1-1.7-0.3c-0.3,1.7-0.4,3.6-1.4,5.2c-1,1.6-3.8,3-5.2,1.2 c-2.5-3.2,1.4-7.7,4.5-8.7c0.9-0.3,0.9-1.7-0.3-1.7c-1.7,0-3.5,0.1-5.2,0.1s-3.6,0-4.9-1.4c-1.6-1.9-2-5.1-2-7.4 c0-0.7,0-1.6,0.4-2.2c0.7-1.2,2.3-0.4,3.3,0c1.2,0.6,2.3,1.2,3.3,2c2.6,1.9,4.5,4.5,5.9,7.4c0.4,0.9,2,0.3,1.6-0.7 c-1.7-4.6-1.6-11.4,1.9-15.3c0.7-0.7,1.9-1.9,3-0.6c0.3,0.4,0.4,1.2,0.6,1.7c0.3,1.3,0.3,2.7,0.1,4.2c-0.1,3-0.9,6.1-2.2,9 c0.6,0.3,1.2,0.4,1.6,0.7c0.9-2.7,2.2-5.8,4.8-7.4c2.3-1.3,5.8-1.4,7.1,1.3c1.4,3.2-1.3,4.8-4,5.2c-3.2,0.6-6.4,1.2-9.5,1.7 c0.1,0.6,0.3,1.2,0.4,1.7c3.5-0.7,7.1-0.9,10.6-0.6c2.5,0.3,8,1.9,5.1,5.5c-2,2.3-6.2,2-9,1.3c-2.7-0.7-5.2-2.2-6.5-4.8 c-0.6-1-2-0.1-1.6,0.9c1.7,3.5,5.2,5.2,8.8,5.8c3.5,0.6,8.2,0.4,10.1-2.9c1.9-3.2-0.7-6.1-3.8-7.1c-4.5-1.4-9.8-0.9-14.3,0 c-1.2,0.3-0.7,1.9,0.4,1.7c2.6-0.4,5.1-0.9,7.7-1.3c1.9-0.3,3.9-0.6,5.5-1.6c2.6-1.7,2.9-5.1,1.2-7.4c-1.9-2.6-5.4-2.9-8.1-1.7 c-3.6,1.6-5.5,5.4-6.7,9c-0.3,1,1.2,1.6,1.6,0.7c1.7-3.8,2.6-7.7,2.5-11.7c-0.1-2.5-0.6-6.8-4-6.2c-3.2,0.6-4.9,4.8-5.6,7.5 c-1,3.6-0.9,7.5,0.4,11.1c0.6-0.3,1.2-0.4,1.6-0.7c-1.7-3.8-4.6-6.9-8.2-9c-2.7-1.6-7.2-3.3-8.1,1.2c-0.6,3,0.3,7.4,2,9.8 c2.6,3.6,8,2.5,11.9,2.5c-0.1-0.6-0.1-1.2-0.3-1.7c-2.6,0.9-4.6,2.6-5.8,5.2c-1,2.2-1.2,5.3,0.9,6.9c1.7,1.6,4.5,1,6.2-0.3 c2.3-1.9,2.7-5.1,3-7.7c0.1-1-1.4-1.2-1.7-0.3c-1.2,3.5-1.3,7.2-0.3,10.7c0.6,2.2,2.3,7.2,5.2,7.1c3.2-0.1,3.8-4.8,3.9-7.2 c0.3-4.1-0.6-8-2.3-11.6C133.4,298.8,131.8,299.6,132.3,300.6L132.3,300.6z" style="fill: rgb(122, 114, 96);"></path></g></g><g><g id="__id590_s4kiwarzhs"><path d="M156.2,313.1c-2.7,0.6-5.5,1.6-8.1,2.7c-1.3,0.6-2.6,1.3-3.9,2.2c-1,0.6-2.2,1.3-2.6,2.6 c-0.4,1.2,0,2.5,0.9,3.3c0.9,0.9,2.2,1.2,3.5,1.2c2.3,0,4.6-1,6.5-2.6c2-1.7,3.5-4.2,3.8-6.8c-0.6-0.1-1.2-0.1-1.7-0.3 c0,0.3,0,0.4,0,0.7c0,1.2,1.9,1.2,1.7,0c0-0.3,0-0.4,0-0.7c0-1-1.6-1.3-1.7-0.3c-0.6,3.8-3.3,6.9-7.1,7.8c-1,0.3-2,0.3-3,0 c-0.7-0.3-1.4-1.2-1-2c0.4-0.9,1.7-1.4,2.6-1.9c1-0.6,2-1.2,3-1.6c2.5-1.2,4.9-2,7.7-2.6C157.8,314.7,157.4,312.9,156.2,313.1 L156.2,313.1z" style="fill: rgb(122, 114, 96);"></path></g></g><g><g id="__id591_s4kiwarzhs"><path d="M177.9,342.9c1.2-2.6,2.3-5.1,3.6-7.7c0.1-0.3,0.3-0.6,0.4-0.9c0.1-0.1,0.3-0.4,0.3-0.7 c0.1-0.1,0.1-0.1,0,0c0.1,0,0.3,0.1,0.3,0.1c0.1,0.1,0.3,0.3,0.4,0.4c0.6,0.6,0.9,1.4,0.9,2.3c0.6,4.5-3.8,7.2-7.2,9.1 c-1,0.6-0.1,2.2,0.9,1.6c3.5-1.9,7.4-4.3,8-8.5c0.3-1.7,0-3.6-1-5.2c-0.6-0.7-1.3-1.6-2.3-1.7c-1.3,0-1.7,1-2.2,2 c-1.3,2.7-2.5,5.5-3.8,8.1C175.9,343,177.4,343.9,177.9,342.9L177.9,342.9z" style="fill: rgb(122, 114, 96);"></path></g></g><g><g id="__id592_s4kiwarzhs"><path d="M203.6,339.1c0.7-2.6,1.7-5.2,3-7.7c0.6-1.2,1.3-2.3,2.2-3.5c0.6-0.9,1.4-1.7,2.6-1.9 c1.7-0.1,2.6,2,2.6,3.5c-0.1,2.2-2.2,3.8-3.9,4.8c-2.7,1.7-5.6,3-8.4,4.6c-1,0.6-0.1,2.2,0.9,1.6c2.9-1.6,5.9-3,8.7-4.8 c2.2-1.4,4.3-3.3,4.5-6.1c0.1-2.2-1-4.5-3.2-5.2c-2.9-1-5.1,2-6.4,4.2c-1.9,3.2-3.3,6.5-4.3,10 C201.6,339.8,203.3,340.3,203.6,339.1L203.6,339.1z" style="fill: rgb(122, 114, 96);"></path></g></g><g><g id="__id593_s4kiwarzhs"><path d="M201.2,298.8c1.3-1.3,2.6-2.5,4-3.5c0.7-0.6,1.6-1,2.3-1.4c0.6-0.3,1.6-1,2.3-0.7c0.6,0.1,0.9,0.7,0.9,1.3 c0.1,0.7-0.3,1.4-0.6,2c-0.9,1.3-2.2,2.5-3.5,3.3c-1.6,1-3.3,1.9-5.1,2.3c-1.2,0.3-0.6,2,0.4,1.7c1.9-0.4,3.8-1.3,5.5-2.5 c1.6-1.2,3.3-2.5,4.3-4.2c1-1.6,1.2-3.9-0.4-5.2c-1.7-1.4-4,0-5.6,1c-2.2,1.3-4,2.7-5.8,4.5C199,298.3,200.3,299.5,201.2,298.8 L201.2,298.8z" style="fill: rgb(122, 114, 96);"></path></g></g><g><g id="__id594_s4kiwarzhs"><path d="M248.6,215.2c-1.2-2.5-1.3-5.2-1.3-7.8c0-1.3,0.1-2.6,0.4-3.9c0.1-1.2,0.3-2.5,0.6-3.6 c0.4-1.3,1.7-0.1,2,0.7c0.4,1.2,0.3,2.6,0.3,3.8c-0.1,2.9-0.6,5.8-1.4,8.5c-0.3,1.2,1.4,1.6,1.7,0.4c0.9-2.7,1.3-5.5,1.4-8.2 c0.1-2.2,0.4-5.4-1.4-6.9c-0.7-0.6-1.7-0.9-2.7-0.6c-1,0.3-1.6,1.3-1.7,2.3c-0.4,2.6-0.9,5.2-1,7.8c-0.1,2.9,0.3,5.8,1.4,8.4 C247.6,217.1,249.2,216.2,248.6,215.2L248.6,215.2z" style="fill: rgb(122, 114, 96);"></path></g></g><g><g id="__id595_s4kiwarzhs"><path d="M186.4,268c-2.9-0.1-5.8,0-8.5-0.3c-1-0.1-2-0.4-2.6-1.3c-0.6-0.9-0.9-1.9-1-2.7c-0.1-0.4-0.1-1-0.1-1.4 c0-0.4-0.1-1.2,0-1.4c0.3-0.7,2-0.4,2.6-0.4c2,0.3,3.9,1.2,5.5,2.5c1.7,1.4,3,3.6,3.3,5.9c0,0.4,0.4,0.9,0.9,0.9 c0.4,0,1-0.4,0.9-0.9c-0.7-5.2-4.9-9.4-10.1-10.1c-1.2-0.1-2.7-0.3-3.8,0.3c-1.2,0.7-1.2,2.2-1.2,3.3c0.3,2.5,0.7,5.4,3.2,6.7 c1.4,0.9,3.3,0.7,5.1,0.9c2,0.1,4,0.1,6.1,0.3C187.6,269.8,187.6,268,186.4,268L186.4,268z" style="fill: rgb(122, 114, 96);"></path></g></g><g><g id="__id596_s4kiwarzhs"><path d="M160.5,280.3c0.9-2.7,1.7-5.6,2.7-8.4c0.3-0.7,0.4-1.3,0.7-2c0.1-0.4,0.3-0.7,0.4-1.2 c0.1-0.1,0.1-0.6,0.3-0.7c0.9-0.6,1.6,1.6,1.7,2c0.4,2.2-0.4,4.5-1.4,6.4c-1.2,2.3-2.6,4.2-4.5,5.8c-0.9,0.7,0.4,2,1.3,1.3 c3.3-2.9,6.1-7.4,6.5-11.9c0.1-1.9-0.4-4.2-2.2-5.2c-1-0.6-2.3-0.6-2.9,0.4c-0.7,1-1,2.5-1.4,3.6c-1.2,3-2.2,5.9-3,9 C158.5,280.8,160.2,281.3,160.5,280.3L160.5,280.3z" style="fill: rgb(122, 114, 96);"></path></g></g><g><g id="__id597_s4kiwarzhs"><path d="M121.9,240.6c-0.1,2.6-1.2,4.9-2.6,7.1c-0.7,1.2-1.4,2.2-2.2,3.2c-0.7,1-1.4,1.9-2.5,2.5 c-0.7,0.4-1.9,0.7-2.5-0.1c-0.4-0.7-0.4-1.7-0.3-2.5c0.4-2,1.9-4,3.3-5.6c1.7-1.9,3.9-3.3,6.4-3.6c0.4,0,0.9-0.4,0.9-0.9 s-0.4-1-0.9-0.9c-2.7,0.3-5.2,1.7-7.2,3.6c-1.9,1.9-3.6,4.3-4.2,6.8c-0.3,1.2-0.3,2.5,0.3,3.5c0.6,1.2,1.7,1.9,3,1.7 c2.9-0.1,4.8-3.3,6.4-5.5c2-2.9,3.6-6.1,3.8-9.5C123.8,239.5,122.1,239.5,121.9,240.6L121.9,240.6z" style="fill: rgb(122, 114, 96);"></path></g></g><g><g id="__id598_s4kiwarzhs"><path d="M97.2,233.3c-1.9-2.2-3.6-4.5-4.8-7.1c-0.6-1.3-1.2-2.6-1.6-4c-0.3-0.7-0.6-1.6-0.3-2.3 c0.1-0.6,0.6-1.2,1.2-0.9c0.6,0.1,1.2,1,1.4,1.4c0.4,0.6,0.9,1,1.3,1.6c0.7,1.2,1.4,2.3,1.9,3.6c1,2.6,1.4,5.4,1.2,8.1 c-0.1,1.2,1.7,1.2,1.7,0c0.3-5.2-1.4-10.6-4.9-14.6c-0.9-0.9-1.7-2.2-3.2-2.2c-1.2,0-2.2,0.9-2.6,2c-0.4,1.3,0,2.9,0.4,4.2 c0.4,1.3,0.9,2.5,1.4,3.6c1.3,2.7,3.2,5.3,5.2,7.7C96.8,235.4,97.9,234.1,97.2,233.3L97.2,233.3z" style="fill: rgb(122, 114, 96);"></path></g></g><g><g id="__id599_s4kiwarzhs"><path d="M120.3,204.9c0.1-4.9,3.3-9.5,7.8-11.4c-0.3-0.1-0.6-0.1-0.9-0.3c1.7,2.2,0.7,5.5-1,7.4 c-2.3,2.3-5.6,3.3-8.5,4.2c-1.2,0.3-0.6,2,0.4,1.7c3.5-1,7.5-2.2,9.8-5.2c2.2-2.7,2.7-6.7,0.6-9.4c-0.1-0.3-0.6-0.3-0.9-0.3 c-5.4,2-9.1,7.4-9.3,13.2C118.5,206.1,120.3,206.1,120.3,204.9L120.3,204.9z" style="fill: rgb(122, 114, 96);"></path></g></g><g><g id="__id600_s4kiwarzhs"><path d="M75.8,187.3c-2.6,4.2-7.5,7.8-12.6,8c-1.3,0-2.6-0.3-3.6-1.3c-0.7-0.9-1-2-0.4-3c1.2-1.9,3.9-2.6,5.9-3.2 c3.5-1,6.9-1.9,10.6-1.3c1.2,0.1,1.6-1.6,0.4-1.7c-3.8-0.7-7.5,0.1-11.3,1.2c-2.6,0.7-5.8,1.6-7.4,4c-1.6,2.6,0.1,5.5,2.6,6.5 c3,1.2,6.7-0.1,9.4-1.4c3-1.6,5.6-4,7.5-6.9C78,187.3,76.4,186.4,75.8,187.3L75.8,187.3z" style="fill: rgb(122, 114, 96);"></path></g></g><g><g id="__id601_s4kiwarzhs"><path d="M63.5,172c-2.2-4-4.5-8.7-3.8-13.3c-0.4,0.1-0.7,0.4-1.2,0.6c2.5,0.9,4,3.3,4.5,5.9 c0.7,3.3-0.3,6.8-1.2,10c-0.3,1.2,1.4,1.6,1.7,0.4c1-3.6,2-7.7,1.2-11.4c-0.7-3-2.7-5.6-5.6-6.7c-0.4-0.1-1,0.1-1.2,0.6 c-0.9,5.3,1.6,10.1,3.9,14.7C62.5,173.8,64.1,173,63.5,172L63.5,172z" style="fill: rgb(122, 114, 96);"></path></g></g><g><g id="__id602_s4kiwarzhs"><path d="M85.5,158.8c0.4-1.7,0.9-3.6,1.6-5.2c0.3-0.9,0.7-1.6,1.2-2.5c0.4-0.7,0.7-1.6,1.3-2.3 c0.4-0.4,0.9,0.3,0.9,0.7c0.1,0.7-0.1,1.6-0.3,2.5c-0.4,1.4-1.2,2.7-2,4c-1,1.4-2.3,2.5-3.9,3.3c-1,0.6-0.1,2.2,0.9,1.6 c3.3-1.9,5.9-5.1,6.8-8.8c0.4-1.7,0.6-4.5-1.7-5.1c-1-0.3-1.9,0.3-2.5,1.2c-0.6,0.9-1.2,1.9-1.6,2.9c-1.2,2.3-2,4.8-2.5,7.2 C83.5,159.5,85.2,160,85.5,158.8L85.5,158.8z" style="fill: rgb(122, 114, 96);"></path></g></g><g><g id="__id603_s4kiwarzhs"><path d="M118.3,163c-1.9-1.9-3.8-3.6-5.5-5.6c-1.4-1.7-3.6-5.3-0.7-6.9c2.5-1.3,3.9,2.5,4.3,4.2 c0.7,2.9,0.7,6.1,0.6,9c0.6,0,1.2,0,1.7,0c-0.1-3-0.7-6.4-0.6-9.4c0.1-2.7,5.6-7.1,8.2-4.6c2.5,2.3-0.1,6.4-1.6,8.4 c-1.7,2.3-3.9,4.2-6.4,5.6c0.4,0.4,0.9,0.9,1.3,1.3c3.2-5.1,11.3-10.6,17.2-6.9c1.4,0.9,2.2,2.5,1.6,4.2c-0.7,2-2.9,3-4.9,3.5 c-4.2,0.9-9,0.1-13-1c0.1,0.4,0.3,1,0.4,1.4c2.9-3.2,13.2,10,9.8,14c-2.5,3-6.9-3.8-8.1-5.5c-1.7-2.9-2.9-6.1-3.5-9.5 c-0.6,0.1-1.2,0.3-1.7,0.4c0.7,3.5,1.9,6.9,2.3,10.4c0.6,3.9-1.7,5.8-5.2,6.8c-1,0.3-2,0.9-2.6-0.7c-0.3-0.6,0-1.7,0-2.3 c0-1.4,0.3-2.9,0.6-4.3c0.9-3.2,2.3-6.2,4.5-8.8c0.6-0.7-0.1-2-1.2-1.4c-2.6,1.9-5.5,4-8.8,4c-3.6,0-5.9-2.6-6.1-6.1 c0-1.4,0.1-3,1.2-4c1.6-1.6,3.8-1,5.6-0.1c3.2,1.4,6.2,3.5,9.3,5.2c1,0.6,1.9-1,0.9-1.6c-2.3-1.3-4.8-2.7-7.1-4 c-1.9-1-3.9-2.2-6.1-2.3c-3.9-0.1-5.8,3.3-5.6,6.8c0.1,3.8,2.2,7.1,6.1,7.8c4.3,0.9,8.2-1.7,11.6-4c-0.4-0.4-0.7-1-1.2-1.4 c-2.7,3.3-4.6,7.4-5.3,11.6c-0.4,2.5-1.4,8.5,2.7,8.1c3.2-0.3,7.2-2.2,8.2-5.4c0.7-2.2,0.1-4.5-0.4-6.5c-0.6-2.6-1.2-5.3-1.7-8 c-0.3-1.2-1.9-0.6-1.7,0.4c0.9,4.9,2.9,9.4,6.1,13.3c1.3,1.6,3,3.5,5.4,3.8c1.7,0.3,3.3-0.7,3.9-2.3c1.4-3.6-1.2-8.4-3.3-11.3 c-1.7-2.3-6.7-7.4-9.7-4.2c-0.4,0.4-0.3,1.3,0.4,1.4c4.9,1.3,11.4,2.3,16.2,0.3c3.5-1.4,5.8-5.9,3-9.1c-2.6-2.9-6.9-2.7-10.4-1.7 c-4.5,1.3-8.4,4.3-10.8,8.2c-0.4,0.7,0.4,1.7,1.3,1.3c3.3-2,6.2-4.8,8.2-8.2c1.6-2.7,2.7-7.1-0.4-9.1c-3.2-2.2-7.4,0.7-9.5,3 c-1.3,1.4-1.3,3-1.2,4.8c0.1,2.6,0.3,5.2,0.6,7.8c0.1,1.2,1.7,1.2,1.7,0c0.1-3.8,0.1-8.2-1.4-11.9c-1-2.3-3.3-4.5-5.9-3.2 c-2.5,1.2-3,4.3-2,6.8c1.4,3.5,5.1,6.2,7.7,8.8C117.9,165.2,119,163.9,118.3,163L118.3,163z" style="fill: rgb(122, 114, 96);"></path></g></g><g><g id="__id604_s4kiwarzhs"><path d="M69.7,126.6c-1.4-2.5-2.9-5.1-4.3-7.5c-0.6-1.2-1.6-2.5-0.9-3.8c0.4-0.9,1.6-1.4,2.6-1.4 c2.5-0.1,3.9,2.5,4,4.6c0.1,2.7-1.4,5.2-2.9,7.4c0.6,0.3,1.2,0.4,1.6,0.7c1-5.8,9.3-7.8,13-3.3c1.9,2.3,1.3,6.9-2.3,7.1 c-3.5,0.1-6.2-3.2-9.4-4.2c-0.1,0.6-0.3,1.2-0.4,1.7c2.7,0.6,5.9,1.2,8.5,2.5c2.2,1,4.8,3.6,3.3,6.2c-0.6,1.2-2,1.9-3.3,1.2 c-1-0.6-1.4-1.9-2-2.7c-1.4-2.7-3-5.5-4.5-8.2c-0.6-1-2-0.1-1.6,0.9c1.2,2.2,1.6,4.6,1.2,7.1c-0.3,1.9-1.4,5.8-4,5.6 c-3-0.3-1.7-4.5-0.9-6.1c1.2-2.3,2.3-4.5,3.5-6.7c0.6-1-0.9-1.9-1.6-0.9c-1.7,2.3-3.5,4.6-5.2,6.9c-1,1.4-5.1,5.6-6.1,1.9 c-0.7-2.6,2-4.2,4-5.1c2.3-0.9,4.5-1.4,6.4-2.9c0.7-0.6-0.1-1.6-0.9-1.4c-2.6,0.4-5.3,0.6-8.1,0.3c-1.2-0.1-3.6-0.1-3.8-1.7 c0-1,0.9-2,1.7-2.6c4.2-2.9,8.5,1.3,11.4,4.2c0.9,0.9,2-0.4,1.3-1.3c-2.3-2.3-4.8-4.8-8-5.5c-2.5-0.6-5.5,0.3-7.1,2.3 c-1.6,2-1.6,5.1,1.3,5.8c3.8,1,8,0.9,11.7,0.3c-0.3-0.4-0.6-1-0.9-1.4c-2.7,2.2-6.8,2-9.4,4.5c-1.7,1.6-2.5,4.5-1,6.5 c1.7,2.5,4.8,1.3,6.7-0.4c1.3-1.3,2.3-2.9,3.5-4.3c1.3-1.7,2.5-3.3,3.8-5.1c-0.6-0.3-1-0.6-1.6-0.9c-1,1.9-1.9,3.6-2.9,5.5 c-0.7,1.4-1.6,2.9-1.9,4.6c-0.3,2.5,1,5.3,3.8,5.5c3,0,4.8-3.2,5.5-5.6c0.9-3.3,0.4-6.7-1.2-9.7c-0.6,0.3-1,0.6-1.6,0.9 c1,2,2.2,3.9,3.2,5.9c0.9,1.6,1.6,3.5,2.9,4.8c1.9,2.2,5.1,1.7,6.7-0.6c1.7-2.6,0.4-5.9-1.9-7.8c-2.9-2.5-7.2-3-10.8-3.9 c-1.2-0.3-1.6,1.4-0.4,1.7c3.9,1.3,8,6.2,12.4,3.6c3-1.9,3.5-6.2,1.4-8.8c-4.3-6.1-15.2-3.9-16.5,3.6 C68,126.8,69.2,127.4,69.7,126.6c1.9-2.7,3.6-6.1,2.9-9.5c-0.6-2.6-2.7-5.3-5.6-5.2c-2.5,0.1-4.9,2-4.6,4.6 c0.1,1.7,1.4,3.5,2.3,4.9c1.2,2,2.3,4,3.5,6.1C68.9,128.4,70.3,127.4,69.7,126.6L69.7,126.6z" style="fill: rgb(122, 114, 96);"></path></g></g><g><g id="__id605_s4kiwarzhs"><path d="M91.9,95.2c-3-1.7-6.4-2.3-9.5-3.5c-2.5-0.9-8.2-4.5-5.8-7.7c0.6-0.9,0.6-0.7,1.6-0.6c0.3,0,0.7,0.1,1,0.3 c0.9,0.3,1.9,0.6,2.7,0.9c1.9,0.6,3.6,1.3,5.4,2.3c3,1.9,5.5,4.5,6.2,8.1c0.6-0.3,1.2-0.4,1.6-0.7c-2.3-3.6-4.3-7.4-6.4-11.3 c-1.4-2.7-4-9,0.9-9.8c3.9-0.7,6.7,3,7.1,6.4c0.6,3.9-0.9,8-2.3,11.6c0.6,0.1,1.2,0.3,1.7,0.4c1.3-3.6,4.2-6.2,7.7-7.7 c2.7-1.2,9.5-2.7,10.3,1.4c0.9,4.6-4.3,6.4-7.8,6.7c-3.8,0.3-7.5,0-11,1.7c-1,0.4-0.3,1.9,0.7,1.6c3.6-0.7,7.4-0.6,10.8,0.6 c2.5,0.9,10,4,7.8,7.7c-2,3.5-7.7,1.2-10.3-0.3c-3-1.7-5.5-4.3-7.1-7.4c-0.4,0.4-1,0.7-1.4,1.2c2.2,1.9,4,4,5.2,6.7 c1.2,2.5,2,6.2,0.3,8.5c-1.9,2.5-3-0.9-3.6-2.3c-0.4-1.4-1-2.9-1.3-4.3c-0.7-3-1.3-6.2-1.4-9.4c-0.6,0-1.2,0-1.7,0 c0.3,3-1.7,5.8-4.5,6.9c-2.5,1.2-6.4,1.2-8-1.3c-0.6-0.9-0.9-2.2-0.4-3.3c0.4-1.6,1.7-2,3.2-2.2c3.3-0.3,6.7-0.1,10-0.1 c1.2,0,1.2-1.7,0-1.7c-2.7-0.1-5.3-0.1-8.1,0c-1.7,0-3.8,0-5.3,1.2c-2.3,1.9-2.3,5.5-0.6,7.7c5.1,6.2,16.2,0.1,15.5-7.1 c-0.1-1.2-1.9-1.2-1.7,0c0.3,4.6,1.2,9.1,2.6,13.4c0.7,2.5,2.5,7.1,5.9,5.1c2.7-1.7,2.7-6.1,2-8.8c-1-3.9-3.6-7.2-6.5-10 c-0.7-0.7-1.9,0.1-1.4,1.2c2,4,5.5,7.2,9.7,9c3.5,1.4,9.1,2.6,11.1-1.7c2-4.3-3.8-7.7-6.9-9.1c-4.3-1.9-9.3-2.3-13.9-1.4 c0.3,0.6,0.4,1.2,0.7,1.6c4.8-2.3,10.6-0.4,15.5-2.7c3.3-1.6,5.8-6.1,3.3-9.5c-2.5-3.5-8.7-2.2-12-0.7c-4,1.6-7.2,4.6-8.7,8.8 c-0.4,1.2,1.3,1.6,1.7,0.4c1.7-4.5,3.5-9.8,1.7-14.6c-1.3-3.5-4.8-6.4-8.7-5.6c-4.3,0.7-4.9,5.3-3.8,8.8c0.7,2.3,2,4.6,3.3,6.8 c1.6,2.7,3.2,5.5,4.8,8.2c0.6,0.9,1.9,0.3,1.6-0.7c-0.9-4.3-4-7.7-8-9.7c-2.2-1.2-4.5-1.9-6.8-2.7c-1.6-0.6-3.8-1.4-5.3-0.1 c-2.9,2.6,0.3,7.4,2.5,9c3.9,3,9.1,3,13.3,5.5C92,97.4,92.9,95.8,91.9,95.2L91.9,95.2z" style="fill: rgb(122, 114, 96);"></path></g></g><g><g id="__id606_s4kiwarzhs"><path d="M127,131c-0.9-3-1.4-6.2-1.9-9.3c-0.1-1.2-1-5.6,1.3-5.5c1,0,1.6,1.3,1.9,2c0.4,1.3,0.6,2.6,0.6,4 c0,2.7-0.9,5.5-2.3,8c-0.6,1,1,1.9,1.6,0.9c1.4-2.3,2.2-4.9,2.5-7.5c0.3-2.3,0.1-5.2-1.2-7.2c-1.2-1.7-3.5-2.7-5.1-1.2 c-1.6,1.6-1.3,4-1,6.1c0.4,3.5,1.2,6.8,2,10.1C125.5,132.6,127.3,132.2,127,131L127,131z" style="fill: rgb(122, 114, 96);"></path></g></g><g><g id="__id607_s4kiwarzhs"><path d="M153.9,166.9c-2.3,1.4-4.6,3-6.9,4.3c-1.7,1-4.5,2.2-5.9,0.1c-1.4-1.9,1.2-2.9,2.6-3.2 c2.6-0.4,5.3-0.6,8-0.4c1.2,0,1.2-1.7,0-1.7c-2.6-0.1-5.2,0-7.8,0.4c-1.7,0.3-3.9,0.7-4.8,2.6c-0.9,1.9,0.3,3.9,1.9,4.9 c2,1.2,4.3,0.4,6.2-0.6c2.6-1.4,5.1-3.2,7.5-4.8C155.8,167.8,154.9,166.3,153.9,166.9L153.9,166.9z" style="fill: rgb(122, 114, 96);"></path></g></g><g><g id="__id608_s4kiwarzhs"><path d="M173.7,147.7c-0.4,2-1.2,3.9-2,5.8c-0.9,1.7-2.2,4-4,5.2c-1.7,1-2.2-1.2-1.9-2.6c0.1-1,0.4-2,0.7-2.9 c0.7-2.2,1.9-4,3.3-5.6c-0.4-0.3-1-0.6-1.4-0.9c-0.6,2-1.6,3.9-3.2,5.5c-1,1-5.2,4.5-5.3,1.2c0-1.9,1.2-3.9,2.2-5.5 c1.3-1.9,2.9-3.5,4.6-4.8c0.7-0.4,0.6-1.7-0.4-1.7c-2.9,0-4.9-2-6.5-4.2c-1.6-2.2-3.3-5.1-2-7.8c-0.4,0.1-0.9,0.1-1.3,0.3 c4.3,2.6,7.7,6.8,9.3,11.6c0.3,0.9,1.9,0.9,1.7-0.3c-0.4-3.2-0.4-6.4-0.3-9.5c0.1-1.4,0.3-3,1-4.2c0.9-1.3,2.5-2.3,3.9-1.3 c2.2,1.3,1.9,5.1,1.7,7.2c-0.1,3.2-1,6.4-2.3,9.3c0.6,0.3,1.2,0.4,1.6,0.7c0.6-2.7,1.7-5.3,3.3-7.5c1.3-1.7,5.5-6.8,7.5-4 c1.7,2.3,0.1,5.6-1.7,7.4c-2.3,2-5.5,2.6-8.5,3.2c0.1,0.6,0.3,1.2,0.4,1.7c4.3-1.3,11.1-2.9,12.7,3c0.4,1.4,0.4,3.2-1,4 c-1.3,0.7-2.7,0.3-4-0.3c-2.3-1-4.5-2.5-6.4-4c-0.9-0.7-2.2,0.6-1.3,1.3c2.6,2,6.1,4.8,9.4,5.2c3,0.4,5.5-1.6,5.3-4.6 s-1.6-5.6-4.5-6.9c-3.5-1.4-7.2-0.4-10.7,0.7c-1.2,0.3-0.7,2,0.4,1.7c3.8-0.7,8-1.7,10.4-4.9c1.9-2.5,2.7-6.2,0.6-8.8 c-2.7-3.2-6.4,0.1-8.4,2.3c-2.7,2.9-4.6,6.4-5.5,10.3c-0.1,1,1.2,1.7,1.6,0.7c1.7-3.8,2.7-7.8,2.6-12c0-2.6-0.6-5.9-3.3-7.1 c-2.9-1.3-5.6,1.2-6.5,3.8c-1.3,4-0.9,9.1-0.3,13.3c0.6-0.1,1.2-0.1,1.7-0.3c-1.7-5.3-5.4-9.8-10.1-12.7c-0.4-0.3-1-0.1-1.3,0.3 c-1.6,3.3,0,6.8,2,9.5c1.9,2.7,4.6,5.2,8.1,5.1c-0.1-0.6-0.3-1.2-0.4-1.7c-2.6,1.9-4.8,4.3-6.2,7.1c-1,1.9-2.3,4.9-0.9,6.9 c1.6,2.3,4.8,0.4,6.4-0.9c2.5-1.9,4-4.5,4.9-7.4c0.3-0.9-0.9-1.6-1.4-0.9c-2,2.3-3.5,4.9-4.2,7.8c-0.4,2-1.3,5.8,1.4,6.7 c2.5,0.9,4.6-1.9,5.8-3.6c1.9-2.7,3.2-5.8,3.9-9C175.7,147.1,174,146.7,173.7,147.7L173.7,147.7z" style="fill: rgb(122, 114, 96);"></path></g></g><g><g id="__id609_s4kiwarzhs"><path d="M182.2,48.5c-3-1.2-5.8-2.9-8-5.3c-2-2.5-3.9-6.4-1.3-9.1c2.9-3,5.6,0.1,6.7,3c1,3.3,1.3,6.9,1.3,10.6 c0,1,1.6,1.3,1.7,0.3c0.7-3.9,3.2-7.4,6.9-8.8c3.6-1.4,9-1,11.6,2.2c1.3,1.6,1,3.8-0.1,5.3c-1.3,1.7-3.3,2.6-5.4,3 c-4,0.9-8.8,0.9-12.7-0.7c-0.1,0.6-0.1,1.2-0.3,1.7c3.2-0.3,6.7-0.6,9.8,0.6c2.5,1,5.2,3.2,5.3,6.1c0.1,4.2-4.8,3-6.9,1.6 c-2.6-1.7-4.3-4.3-6.1-6.8c-0.6-0.7-2-0.3-1.6,0.7c1.4,4.2,5.8,8.8,4.3,13.4c-0.1,0.4-0.4,1.4-1,1.7c-1.3,0.6-1.9-1.4-2-2.3 c-0.1-1.2,0-2.5,0-3.8c0-2.6,0.1-5.4,0.1-8c0-1-1.4-1.2-1.7-0.3c-0.6,2-1.6,3.9-3,5.4c-1.3,1.3-3.8,3-5.8,2.9 c-2.5-0.1,0-4.3,0.9-5.2c1.6-1.6,3.6-2.5,5.8-2c0.1-0.6,0.3-1.2,0.4-1.7c-2.9-0.4-5.9-0.9-8.8-1.4c-2.7-0.4-6.4-1.4-7.1-4.5 c-0.3-1.3,0.1-2.9,1.4-3.6c1.6-0.7,3.8,0.7,5.1,1.3c2.9,1.3,5.8,2.5,8.8,3.8c1,0.4,2-1.2,0.9-1.6c-2.2-0.9-4.3-1.9-6.5-2.7 c-1.9-0.9-3.9-1.9-5.9-2.6c-2.7-0.7-5.2,1-5.6,3.8c-0.4,3.2,2.2,5.8,4.9,6.8c3.8,1.6,8.4,1.7,12.4,2.5c1.2,0.1,1.6-1.6,0.4-1.7 c-2.9-0.4-5.8,0.6-7.8,2.7c-1.4,1.6-3.3,5.2-1.7,7.4s5.8,0,7.4-1.2c2.7-1.7,4.8-4.5,5.6-7.7c-0.6-0.1-1.2-0.1-1.7-0.3 c0,3.9-0.6,8.1-0.1,12c0.3,2.2,2.2,4.9,4.6,3.5c2.3-1.3,2.3-4.9,1.9-7.2c-0.7-3.6-3.2-6.7-4.3-10.1c-0.6,0.3-1.2,0.4-1.6,0.7 c2.3,3.2,4.8,6.8,8.5,8.4c2.7,1.2,6.7,1.2,7.7-2.3c1-3.3-1.3-6.5-3.9-8.2c-3.8-2.5-8.5-2.3-12.7-1.9c-1,0.1-1.2,1.4-0.3,1.7 c2.7,1.2,5.8,1.4,8.8,1.3c2.6-0.1,5.2-0.3,7.5-1.3c3.6-1.6,6.8-6.4,4-10.1c-2.7-3.9-9-4.6-13.3-3.2c-4.6,1.4-8,5.5-8.8,10.3 c0.6,0.1,1.2,0.1,1.7,0.3c0-4.3-0.1-9.7-2.5-13.4c-1.7-3-5.5-4-8.2-1.6c-3.2,2.9-2.3,7.2-0.1,10.4c2.5,3.5,6.1,5.9,10,7.4 C182.8,50.5,183.4,48.8,182.2,48.5L182.2,48.5z" style="fill: rgb(122, 114, 96);"></path></g></g><g><g id="__id610_s4kiwarzhs"><path d="M242.4,33c-3.5-4.8-5.9-10.1-7.4-15.9c-0.3,0.4-0.6,0.7-0.9,1.2c7.2,0.4,7.1,9.7,6.7,14.9 c-0.1,1.2,1.7,1.2,1.7,0c0.3-3.6,1.6-7.1,3.5-10.1c1.7-2.6,4.9-5.8,8.2-3.9c4,2.2,0.1,6.4-2.2,8.1c-3.2,2.3-6.7,4.3-9.8,6.5 c-1,0.6-0.1,2.2,0.9,1.6c5.8-3.6,14.5-2.2,18.5,3.5c1.3,1.7,2.2,4.2,1,6.2c-1.6,2.6-4,1.6-5.8-0.1c-3.3-3.3-6.5-6.9-9.8-10.4 c-0.4-0.6-1.6-0.1-1.6,0.6c0.4,3.8,3.8,5.5,6.4,7.7c1.9,1.6,2.9,3.6,3.2,6.2c0.1,2.3,0.7,6.2-1,8c-1.4,1.4-4,1.2-5.6,0.1 c-2.2-1.3-3-4-3.3-6.5c-0.4-5.2,1.3-10.3-0.7-15.3c-0.3-0.9-1.9-0.9-1.7,0.3c0.6,5.4,0.7,15-6.8,15.3c-3.6,0.1-6.9-3.8-4.8-7.1 c1.7-2.6,5.5-3.2,8.2-3.5c1.2-0.1,1.2-1.9,0-1.7c-2.5,0-4.8,0.1-7.2,0.1c-2.3,0-5.3,0.7-7.1-1.2c-2.9-3.2-4.6-7.8-5.8-11.9 c-0.1,0.3-0.3,0.7-0.4,1c3.2-2.2,7.7,0.1,10.8,1.4c3.8,1.6,7.2,3.5,10.7,5.5c1,0.6,1.9-1,0.9-1.6c-3.9-2.5-8-4.5-12.3-6.2 c-3.5-1.3-7.7-3-11-0.7c-0.3,0.3-0.6,0.6-0.4,1c1.2,4.5,3.2,9.8,6.5,13c1.6,1.6,3.8,1.4,5.8,1.4c3.2-0.1,6.2-0.1,9.4-0.3 c0-0.6,0-1.2,0-1.7c-3.6,0.4-8,1.2-10,4.5c-2,3.5,0,8,3.6,9.3c3.9,1.4,8.1-0.7,10-4.2c2-3.8,1.7-8.4,1.3-12.4 c-0.6,0.1-1.2,0.1-1.7,0.3c2.3,5.9-0.9,12.4,1.3,18.4c1.4,3.9,5.8,6.9,9.8,5.1c2-0.9,2.9-2.9,3-5.1c0.3-2.7,0.3-6.1-0.7-8.7 c-0.9-2-2.3-3.5-4-4.8c-1.9-1.4-4.5-2.9-4.8-5.6c-0.6,0.1-1,0.4-1.6,0.6c2.3,2.5,4.6,4.9,6.9,7.4c1.7,1.7,3.6,4.5,6.1,5.2 c1.9,0.6,3.8-0.3,5.1-1.9c1.4-1.9,1.4-4.2,0.7-6.4c-3.3-8.5-14.9-10.8-22.1-6.5c0.3,0.6,0.6,1,0.9,1.6c2.5-1.6,5.1-3.3,7.5-4.9 c1.9-1.3,3.8-2.5,5.2-4.2c2.3-2.6,2.7-6.7-0.7-8.5c-3.5-1.9-7.2,0.1-9.4,2.9c-2.9,3.6-4.6,8.1-5.1,12.7c0.6,0,1.2,0,1.7,0 c0.3-3.9,0.7-8.1-1.2-11.7c-1.4-2.7-4-4.8-7.2-4.9c-0.6,0-1,0.6-0.9,1.2c1.6,5.9,4,11.4,7.5,16.3C241.5,34.9,243.1,33.9,242.4,33 L242.4,33z" style="fill: rgb(122, 114, 96);"></path></g></g><g><g id="__id611_s4kiwarzhs"><path d="M198.4,85.1c-0.6-2-0.6-4.2,0-6.4c0.3-1,0.7-2,1.2-2.9c0.3-0.6,1.2-2,2-2c0.7,0.1,0.4,2,0.3,2.6 c-0.1,1-0.4,2-1,2.9c-1,2-2.3,3.8-3.8,5.5c0.4,0,0.7-0.1,1.2-0.1c-2.2-0.9-3.6,0.7-5.2,1.7c-2,1.2-4.8,0.6-6.5-1 c-0.7-0.7-1.4-1.7-0.7-2.6c0.6-0.7,1.7-1,2.7-1c2.5-0.1,4.9,0.6,6.8,1.9c1,0.7,1.9-0.9,0.9-1.6c-2.5-1.7-5.5-2.5-8.4-2.2 c-2.3,0.3-4.9,1.9-4,4.5c0.7,2.6,3.8,4,6.2,4.2c1.4,0.1,2.7-0.1,4-0.9c0.9-0.6,2.3-2,3.3-1.6c0.3,0.1,0.9,0.1,1.2-0.1 c1.9-2.3,3.6-4.6,4.6-7.5c0.6-1.7,1.6-6.1-1.2-6.7c-2.6-0.6-4.2,3-4.9,4.9c-1,2.7-1.2,5.8-0.4,8.5C197,86.7,198.7,86.2,198.4,85.1 L198.4,85.1z" style="fill: rgb(122, 114, 96);"></path></g></g><g><g id="__id612_s4kiwarzhs"><path d="M218.9,94c-1.9-0.6-3.5-1.6-4.9-2.9c-1.3-1.2-2.7-2.7-2.7-4.6c0.1-1.3,1.3-2.7,2.6-2 c1.2,0.7,1.6,2.5,1.7,3.8c0.1,2.2-0.1,4.3,1.2,6.2c0.3,0.4,0.7,0.6,1.3,0.3c0.4-0.3,0.6-0.9,0.3-1.3c-1.3-1.9-0.7-4.2-1-6.4 c-0.3-1.9-1.3-3.9-3-4.5c-2-0.7-4,0.7-4.6,2.7c-0.7,2.3,0.6,4.5,2.2,6.2c1.9,1.9,4,3.3,6.7,4.2C219.5,96.2,220.1,94.5,218.9,94 L218.9,94z" style="fill: rgb(122, 114, 96);"></path></g></g><g><g id="__id613_s4kiwarzhs"><path d="M225.2,82.5c1.6-3.3,4.6-6.1,8.1-7.2c0.7-0.3,1.9-0.7,2.6-0.1c0.4,0.4,0.7,1.2,0.6,1.7 c0,1.7-1.9,2.7-3.3,3.2c-2.5,0.9-5.2,1.2-7.8,1c-1.2,0-1.2,1.7,0,1.7c2.7,0.1,5.6-0.3,8.4-1.2c2-0.7,4.2-2,4.5-4.3 c0.3-2-0.9-4.2-3-4.3c-1.3-0.1-2.6,0.4-3.8,0.9c-1,0.4-2,1-3,1.7c-2.2,1.6-3.9,3.6-5.1,5.9C223,82.6,224.6,83.5,225.2,82.5 L225.2,82.5z" style="fill: rgb(122, 114, 96);"></path></g></g><g><g id="__id614_s4kiwarzhs"><path d="M202.3,148.4c0.7-1.7,1.7-3.2,3-4.5c0.6-0.7,1.3-1.3,2-1.9c0.7-0.4,1.6-1.2,2.5-1.3c0.9,0,1.2,1,1.3,1.6 c0.1,0.7,0,1.4-0.3,2c-0.6,1.6-2,2.7-3.5,3.2c-2.2,0.7-4.6,0.7-6.9,0.6c-1.2,0-1.2,1.7,0,1.7c2.5,0.1,5.1,0.1,7.5-0.7 c2-0.7,3.8-2.2,4.6-4.2c0.7-1.9,0.7-4.6-1.2-5.8c-1.2-0.7-2.5-0.3-3.6,0.3c-1,0.6-1.9,1.3-2.7,2c-1.9,1.7-3.5,3.9-4.5,6.2 c-0.1,0.4,0.1,1,0.6,1.2C201.7,149.1,202.2,148.8,202.3,148.4L202.3,148.4z" style="fill: rgb(122, 114, 96);"></path></g></g><g><g id="__id615_s4kiwarzhs"><path d="M193.1,185.4c-2.2-0.9-4-2.2-5.6-3.9c-1.4-1.6-2.7-3.8-2.2-5.9c0.4-1.7,2.3-3.3,4-2.5 c1.6,0.7,2,2.6,2.3,4.2c0.1,1.2,0.3,2.2,0.3,3.3c0.1,1.6,0.1,3,0.3,4.6c0.1,1.2,1.9,1.2,1.7,0c-0.1-2.9-0.1-5.8-0.7-8.5 c-0.4-2-1.3-4.3-3.3-5.2c-2.3-1-4.9,0.1-6.1,2.3c-1.3,2.5-0.7,5.2,0.7,7.4c1.7,2.6,4.5,4.6,7.4,5.9c0.4,0.1,1,0.1,1.3-0.3 C193.6,186.3,193.5,185.5,193.1,185.4L193.1,185.4z" style="fill: rgb(122, 114, 96);"></path></g></g><g><g id="__id616_s4kiwarzhs"><path d="M265.4,120.6c-4.2-5.2-6.1-12.3-5.1-18.9c-0.1,0.1-0.4,0.4-0.6,0.6c3.9-1,6.7,2.5,7.5,5.8 c0.9,3.8,0.3,7.8-1.9,11c-0.6,1,0.9,1.9,1.6,0.9c2.5-3.9,3.2-9,1.7-13.3c-1.3-4-5.1-7.2-9.5-6.2c-0.3,0-0.6,0.3-0.6,0.6 c-1,7.4,0.9,14.7,5.5,20.7C264.8,122.8,266.1,121.5,265.4,120.6L265.4,120.6z" style="fill: rgb(122, 114, 96);"></path></g></g><g><g id="__id617_s4kiwarzhs"><path d="M294.3,85.6c-0.9-2.3-1.4-4.6-1.7-7.1c-0.1-1.2-0.1-2.5-0.1-3.6c0-0.7,0.3-1.9,1.2-2 c0.9,0,1.2,1.7,1.3,2.3c0.3,1.2,0.4,2.3,0.6,3.5c0.1,2.3-0.3,4.5-1.2,6.7c-0.1,0.4,0.1,1,0.6,1.2c0.6,0.1,0.9-0.1,1.2-0.6 c1.7-4,1.7-8.7,0.1-12.7c-0.4-0.9-1-1.7-2-1.9c-0.9-0.1-1.9,0.3-2.5,1c-1.3,1.6-1,4.3-0.9,6.2c0.3,2.6,0.9,5.2,1.7,7.8 C293,87.1,294.7,86.7,294.3,85.6L294.3,85.6z" style="fill: rgb(122, 114, 96);"></path></g></g><g><g id="__id618_s4kiwarzhs"><path d="M288.3,103.6c1.2,1.6,2.3,3,3.5,4.6c0.6,0.7,1.2,1.6,1.7,2.3c0.6,0.6,1.3,1.2,2.2,1.2c1,0,1.4-0.9,1.7-1.7 c0.3-0.7,0.4-1.6,0.3-2.3c-0.1-1.6-0.7-3.2-2-4.2c-1.4-1.2-3.3-1.7-5.1-1.3c-0.4,0.1-0.7,0.7-0.6,1.2c0.1,0.6,0.6,0.7,1.2,0.6 c1-0.1,2.2,0.1,3,0.7c1,0.6,1.6,1.6,1.7,2.7c0.1,0.4,0.1,1,0,1.6c0,0.3-0.1,0.4-0.3,0.7c0,0-0.3,0.4-0.1,0.3h-0.1 c-0.1,0-0.1-0.1-0.3-0.3c-0.3-0.3-0.4-0.4-0.6-0.7c-0.4-0.6-1-1.3-1.4-1.9c-1.2-1.4-2.2-2.9-3.3-4.3c-0.3-0.4-0.7-0.6-1.3-0.3 C288.3,102.6,288.1,103.1,288.3,103.6L288.3,103.6z" style="fill: rgb(122, 114, 96);"></path></g></g><g><g id="__id619_s4kiwarzhs"><path d="M317.7,90.4c-3.2-3.2-4.9-7.4-5.2-11.9c-0.3,0.3-0.6,0.6-0.9,0.9c2.9,0.4,4.8,3,5.3,5.6 c0.7,3.3-0.1,6.7-1,9.8c0.6,0.1,1.2,0.1,1.7,0.3c-0.1-3.2,0.3-6.5,1.7-9.4c0.7-1.4,1.6-2.9,2.6-4.2c1-1.2,2.6-3.2,4.2-3 c1.4,0.1,2.5,2,2.5,3.3c0,1.6-1.2,3-2.3,4.2c-2.6,2.3-5.8,4.2-9,5.6c0.4,0.3,0.9,0.6,1.3,0.7c-0.1-1.2,3.8-2.2,4.6-2.5 c1.3-0.6,2.7-1,4.2-1.4c2.5-0.7,7.5-2.6,7.7,1.6c0.1,3.5-3.9,4.5-6.6,4.2c-3.2-0.3-6.5-1.3-9.7-2c-0.1,0.6-0.3,1.2-0.4,1.7 c3.8,0.7,7.1,2.7,9.3,5.9c1,1.4,1.7,3,2.3,4.8c0.4,1.7,1,4.6-0.3,5.9c-1.6,1.6-4.5-0.4-5.9-1.4c-1.6-1.2-3-2.7-4.2-4.3 c-2.3-3.2-3.5-7.1-3.3-11c-0.6,0.1-1.2,0.1-1.7,0.3c0.6,3.3,1.2,6.8,0.9,10.3c-0.1,1.7-0.6,3.8-1.9,5.1c-1.3,1.3-3.2,1.7-4.6,0.4 c-2.6-2.3-1.3-5.9,0.3-8.4c1.7-2.6,4.2-4.6,6.8-6.2c0.9-0.6,0.3-1.9-0.7-1.6c-2.9,0.6-5.8,0.4-8.4-0.6c-2.3-0.9-6.8-4-3.5-6.7 c5.2-4,9.7,5.5,12.6,8.4c0.9,0.9,2-0.4,1.3-1.3c-2.7-2.9-4.5-6.9-8.1-9c-2.6-1.4-6.4-1-8,1.7c-1.7,3,0.7,6.1,3.3,7.5 c3.5,1.9,7.5,2.3,11.4,1.6c-0.3-0.6-0.4-1.2-0.7-1.6c-3.6,2-6.9,5.2-8.7,9c-1.3,3-1.2,7.1,2,9c3.3,2,6.8-0.7,8-3.8 c1.6-4.5,0.4-9.8-0.3-14.3c-0.1-1-1.7-0.7-1.7,0.3c-0.1,4.9,1.6,9.5,4.6,13.3c2.2,2.6,8.1,8.2,11.7,5.1c3.2-2.7,1-9.3-0.7-12.1 c-2.5-4-6.4-6.9-11-7.7c-1.2-0.1-1.6,1.4-0.4,1.7c4.2,1,9.4,3,13.7,1.7c3.2-0.9,5.9-4,4.5-7.5c-1.6-4-6.5-2.6-9.5-1.6 c-2.2,0.7-4.5,1.4-6.5,2.5c-1.4,0.6-3.8,1.3-3.5,3.2c0,0.7,0.7,1.2,1.3,0.7c3.8-1.9,8.5-4.2,11-7.8c1.9-2.7,1.6-7.1-1.7-8.5 c-3.6-1.4-6.8,3-8.4,5.6c-2.3,3.8-3.3,8.1-3.2,12.4c0,1,1.4,1.3,1.7,0.3c1-3.9,2-8.2,0.6-12.1c-1.2-2.9-3.5-5.2-6.7-5.6 c-0.4,0-0.9,0.4-0.9,0.9c0.3,4.9,2.3,9.5,5.8,13.2C317.3,92.6,318.6,91.3,317.7,90.4L317.7,90.4z" style="fill: rgb(122, 114, 96);"></path></g></g><g><g id="__id620_s4kiwarzhs"><path d="M376.5,22.7c-3.5-1.9-6.4-4.6-8.5-8c-1.9-2.9-3.9-6.9-2.6-10.4c0.7-2.2,2.7-2.9,4.9-2.3 c2,0.6,3.3,2.3,4,4.2c1.4,4,1.2,9.1-0.3,13.2c0.6,0.1,1.2,0.3,1.7,0.4c0.9-3.3,2.2-6.7,3.9-9.7c1.4-2.7,3.9-7.2,7.7-6.7 c5.1,0.9,0.6,6.8-1.2,8.7c-2.5,2.6-5.2,4.6-8.2,6.4c0.4,0.4,0.7,1,1.2,1.4c3.2-2.7,6.9-4.9,11.1-5.9c3.9-1,8.5,0.4,8.4,5.2 c-0.1,3.9-3.6,6.2-7.2,6.5c-4.2,0.3-8-2.2-10.8-4.9c-0.3,0.4-0.6,1-0.9,1.4c3.3,1.3,6.7,2.9,9,5.5c2.5,2.7,3.8,7.1,2,10.6 c-2.6,5.1-6.8-1.7-8.1-4.2c-1.9-3.5-3-7.2-3.5-11.1c-0.1-0.9-1.6-0.9-1.7,0c-1,5.3,1,10.3,1.3,15.5c0.1,2.6-0.1,5.6-2,7.7 c-1.3,1.4-4.8,3.6-6.4,1.6c-1.2-1.4-1.4-4.3-1.6-6.1c-0.1-2,0-4,0.4-6.1c1-4.2,3.3-8,6.7-10.6c-0.4-0.4-0.9-0.9-1.3-1.3 c-1.9,2.7-3.5,5.9-5.9,8.1c-2.7,2.5-6.5,2.5-8.5-0.9c-1.7-2.9-0.6-6.4,1.7-8.5c2.9-2.6,6.9-2.9,10.6-2c1.2,0.3,1.6-1.4,0.4-1.7 c-4.3-1-9.3-0.6-12.6,2.6c-2.7,2.6-3.9,6.7-2.2,10.1c1.7,3.2,5.5,4.9,8.8,3.5c4.2-1.7,6.5-6.7,9-10.3c0.4-0.7-0.6-1.7-1.3-1.3 c-4,3-6.7,7.5-7.7,12.4c-0.4,2.3-0.6,4.8-0.3,7.1c0.1,1.2,0.4,2.5,0.9,3.6c0.3,0.9,0.7,2.5,1.4,3c1.6,1.4,4.5,0.7,6.2,0 c2-1,3.6-2.9,4.3-5.1c2.5-6.9-2-13.9-0.6-20.8c-0.6,0-1.2,0-1.7,0c0.7,5.2,2.6,10.4,5.6,14.7c2,2.9,6.1,5.6,8.8,1.9 c2.5-3.5,1.7-8.4-0.6-11.9c-2.6-3.9-6.8-6.1-11.1-7.7c-0.9-0.3-1.4,0.9-0.9,1.4c3.6,3.5,8.2,6.2,13.4,5.3c4.2-0.7,7.7-3.9,7.8-8.2 c0.1-4.5-3.5-7.5-7.8-7.4c-5.3,0.1-10.7,3.3-14.7,6.8c-0.7,0.7,0.3,1.9,1.2,1.4c4-2.2,7.8-5.2,10.6-8.8c2-2.6,3.5-7.2-0.4-9.1 c-3.6-1.7-6.9,1.2-9,3.9c-2.7,4-4.8,8.5-5.9,13.3c-0.3,1.2,1.3,1.6,1.7,0.4c1.6-4.8,2-11.6-0.6-16c-2-3.3-7.1-5.3-10.1-2.3 c-3,3-1.6,8.2,0.1,11.7c2.3,4.6,6.1,8.5,10.6,11C376.5,24.9,377.6,23.3,376.5,22.7L376.5,22.7z" style="fill: rgb(122, 114, 96);"></path></g></g><g><g id="__id621_s4kiwarzhs"><path d="M329.3,53c2.3,0.4,4.8,0.6,6.9,1.2c0.7,0.1,1.4,0.4,1.6,1.3c0,0.7-0.3,1.3-0.9,1.7c-1.6,1.2-4,0.1-5.6-0.6 c-1.7-0.9-3.3-2-4.8-3.5c-0.7-0.9-2,0.4-1.3,1.3c1.3,1.4,2.9,2.6,4.6,3.5c1.7,0.9,3.6,1.6,5.6,1.4c1.9-0.1,3.5-1,4-2.9 c0.6-1.7-0.4-3.3-2.2-3.9c-1.2-0.4-2.3-0.4-3.6-0.7c-1.3-0.3-2.6-0.4-4-0.7C328.5,51.1,328.1,52.8,329.3,53L329.3,53z" style="fill: rgb(122, 114, 96);"></path></g></g><g><g id="__id622_s4kiwarzhs"><path d="M341.1,41c-0.1-3-0.3-5.9-0.3-9c-0.1-2.3-0.4-5.3,1.3-7.1c1-1,3.5-1.6,4.2,0.1c1,2.5-2.5,4.6-3.6,6.4 c-1.6,2.3-2,5.2-1.4,8c0.3,1.2,2,0.7,1.7-0.4c-0.7-2.9,0.3-5.8,2.3-8c1.7-1.9,4-4.6,2.3-7.2c-1.3-1.9-3.9-1.9-5.6-0.9 c-2.3,1.3-2.9,4.2-3,6.8c0,3.8,0.3,7.7,0.4,11.4C339.4,42.3,341.3,42.3,341.1,41L341.1,41z" style="fill: rgb(122, 114, 96);"></path></g></g><g><g id="__id623_s4kiwarzhs"><path d="M237.7,132.2c1.3,1.2,1.6,2.7,1.9,4.3c0.4,2.2,0.7,4.2,1,6.4c0.4,4,0.7,8.1,0.6,12.1c0,1.2,1.7,1.2,1.7,0 c0-4.5-0.1-9.1-0.7-13.6c-0.3-2.2-0.6-4.2-1-6.2c-0.3-1.6-0.9-3.3-2.3-4.3C238.2,130.3,236.9,131.5,237.7,132.2L237.7,132.2z" style="fill: rgb(122, 114, 96);"></path></g></g><g><g id="__id624_s4kiwarzhs"><path d="M236.4,125.5c1.2,1.6,1.9,3.5,1.7,5.5c-0.1,2.2-1.4,4.8-3.8,5.4c-3,0.6-3.6-3.3-3-5.4 c0.7-2.3,2.2-4.6,3.8-6.4c-0.4-0.4-1-0.7-1.4-1.2c-0.9,2.2-1.9,4.5-3.9,5.9c-1.6,1.2-4.6,1.3-5.5-0.9c-0.9-2.5,1.6-5.1,3.5-6.1 c2-1.2,4.5-1.4,6.8-0.7c0.9,0.3,1.4-0.9,0.9-1.4c-1.6-2-3.5-3.9-4.8-6.2c-1.2-1.9-1.9-5.1,0.4-6.7c2.9-1.9,4.6,2.5,4.8,4.6 c0.1,2.7,0,5.5-0.1,8.1c0,1.2,1.7,1.2,1.7,0c0.3-2.7-0.3-5.5-0.3-8.2c0.1-3.3,2.6-5.6,5.9-5.9c4-0.3,3.8,3.8,1.7,5.9 c-2,2.2-5.1,3-7.1,5.2c-0.7,0.7,0.1,2,1.2,1.4c2-1.4,4.3-3,6.9-3.2c2-0.1,4.6,1,4.9,3.2c0.3,2.3-2.2,3.9-4.2,4 c-2.6,0.1-4.9-1.2-7.1-2.3c-0.3,0.6-0.4,1.2-0.7,1.6c2.6,0.6,4.8,2.5,5.6,5.1c0.4,1,0.9,2.7,0.4,3.8c-0.6,1.3-3.3-0.6-3.9-1.3 c-1.3-1.6-1.2-4-1.4-6.1c-0.3-2-0.9-3.8-2.6-4.9c-1-0.7-1.9,0.9-0.9,1.6c2.3,1.6,1.7,5.6,2.3,8.1c0.3,1.3,1,2.5,2,3.3 c1.2,0.9,3,1.9,4.5,1.7c2.9-0.3,1.7-5.5,1-7.2c-1.3-2.7-3.8-4.9-6.7-5.6c-1-0.3-1.6,1.2-0.7,1.6c2.7,1.6,6.1,3.2,9.4,2.5 c2.6-0.6,4.9-2.7,4.8-5.6c-0.1-2.6-2.6-4.5-5.1-5.1c-3.5-0.7-6.7,1.4-9.4,3.3c0.4,0.4,0.7,1,1.2,1.4c2.6-2.9,6.9-3.8,8.7-7.5 c1.3-2.9,0-6.2-3.3-6.7c-3.3-0.4-7.2,1.6-8.5,4.6c-1.4,3.6,0.1,7.7-0.3,11.3c0.6,0,1.2,0,1.7,0c0-2.2,0.1-4.3,0.1-6.5 c0-1.7,0-3.5-0.7-5.1c-1-2.5-3.8-4.3-6.4-3c-2.5,1.3-3.2,4.3-2.5,6.8c1,3.5,4,6.2,6.2,9c0.3-0.4,0.6-1,0.9-1.4 c-3-0.9-6.5-0.3-9.1,1.4c-2.3,1.7-4.6,4.9-3.2,8c1.2,2.5,4,3,6.4,2.3c3.3-1,4.9-4.3,6.1-7.2c0.4-0.9-0.7-1.9-1.4-1.2 c-2.2,2.5-4.5,5.8-4.6,9.3c-0.1,2.6,1.6,5.6,4.6,5.6c2.9,0,4.9-2.6,5.8-5.2c0.9-2.9,0.3-6.1-1.6-8.4 C237.3,123.7,235.7,124.7,236.4,125.5L236.4,125.5z" style="fill: rgb(122, 114, 96);"></path></g></g><g><g id="__id625_s4kiwarzhs"><path d="M307.6,181.5c-2.9-2.6-5.8-5.1-8.7-7.7c-1.3-1.2-2.5-2.6-3.2-4.2c-0.7-1.9-0.6-4-0.4-6.1 c-0.4,0.3-0.7,0.6-1.2,0.9c3,0.9,4.8,3.8,5.9,6.5c1.6,3.5,3.2,7.1,4.8,10.6c0.4,0.9,1.6,0.3,1.7-0.4c0.9-7.4,5.4-14,11.9-17.6 c-0.3,0-0.6,0-0.9,0c4.2,2.2,0,6.9-2.2,8.7c-3.2,2.7-6.4,5.3-9.4,8c0.4,0.4,1,0.7,1.4,1.2c1.6-2.7,4-4.5,6.8-5.8 c1.4-0.6,2.9-1.2,4.5-1.6c1.3-0.3,3.8-1.4,4.9-0.9c0.9,0.4,3.6,4,2.7,5.1c-0.4,0.6-2.3,0.6-3,0.7c-1,0.1-1.9,0.3-2.9,0.4 c-4,0.6-8,0.6-12,0.1c-1-0.1-1.2,1.4-0.3,1.7c3.3,1.2,6.2,3.3,8.5,6.1c1.2,1.4,2.2,3,2.9,4.6c0.6,1.3,1.7,3.6,1.6,5.1 c-0.3,1.9-3.8-0.9-4.5-1.4c-1.7-1.2-3.3-2.5-4.5-4.2c-1.2-1.7-1.6-3.9-2.2-5.9c-0.6-2.2-1.2-4.3-1.7-6.5c-0.6,0.1-1.2,0.3-1.7,0.4 c2.6,6.2,2.9,13.4,0.6,19.8c-0.4,1-1.3,2.6-2.6,1.3c-0.9-0.9-0.6-2.3-0.1-3.5c0.4-1.4,1.2-3,1.6-4.5c1.3-3.5,2.6-6.9,3.9-10.3 c-0.6-0.1-1.2-0.3-1.7-0.4c-0.4,3.3-2.6,5.9-4.9,8.2c-1.9,1.9-5.9,6.1-8.8,3.5c-3.3-3,3.3-6.8,5.5-7.8c3.5-1.7,7.2-2.6,11-3 c1.2-0.1,1.2-1.9,0-1.7c-4.9,0.4-9.8,1.9-14,4.5c-2.9,1.7-6.9,5.6-3.9,9.1c2.7,3.2,7.1,1.2,9.7-1.2c3.3-2.9,6.8-6.4,7.5-11 c0.1-1.2-1.3-1.6-1.7-0.4c-1.9,4.8-3.9,9.5-5.5,14.5c-0.6,1.7-0.9,3.6,0.3,5.1c0.7,1,2.2,1.7,3.5,1.3c1.6-0.4,2.2-2.3,2.6-3.6 c0.7-2,1.2-4.2,1.3-6.4c0.4-4.8-0.3-9.4-2-13.7c-0.4-1-2-0.7-1.7,0.4c1.4,5.1,2,11.3,5.9,15.2c1.7,1.7,3.9,3.2,5.9,4.3 c1.2,0.7,3.2,1.2,4.2,0c1-1.3,0.1-3.8-0.3-5.2c-0.7-2.2-1.7-4.3-3.2-6.2c-2.6-3.6-6.2-6.4-10.4-8c-0.1,0.6-0.1,1.2-0.3,1.7 c5.2,0.6,10.6,0.3,15.6-0.7c1.4-0.3,3.8-0.4,4.2-2.3c0.4-1.9-1.4-4.3-2.6-5.6c-1.4-1.7-2.9-1.6-4.9-1.2c-2,0.6-4,1-6.1,1.9 c-3.6,1.4-6.9,3.5-8.8,6.9c-0.6,0.9,0.7,1.7,1.4,1.2c2.3-1.9,4.6-3.9,6.9-5.8c1.7-1.4,3.8-2.9,5.2-4.8c1.2-1.4,1.9-3.2,1.6-5.1 c-0.1-1.4-1-3.5-2.6-3.9c-1.4-0.3-3.5,1.7-4.6,2.6c-1.6,1.3-3.2,2.9-4.3,4.6c-2.6,3.6-4.2,7.7-4.6,12.1c0.6-0.1,1.2-0.3,1.7-0.4 c-1.7-4-3.5-8.1-5.5-12c-1.4-2.7-3.3-5.1-6.4-5.9c-0.6-0.1-1.2,0.3-1.2,0.9c-0.3,3.9,0,7.2,2.7,10.3c2.9,3.3,6.7,6.1,9.8,9 C307.1,183.5,308.4,182.4,307.6,181.5L307.6,181.5z" style="fill: rgb(122, 114, 96);"></path></g></g><g><g id="__id626_s4kiwarzhs"><path d="M95.8,97.6c4.6,0,4.6-7.2,0-7.2C91.1,90.4,91.1,97.6,95.8,97.6L95.8,97.6z" style="fill: rgb(122, 114, 96);"></path></g></g><g><g id="__id627_s4kiwarzhs"><path d="M70.7,129.5c4.6,0,4.6-7.2,0-7.2C66,122.2,66,129.5,70.7,129.5L70.7,129.5z" style="fill: rgb(122, 114, 96);"></path></g></g><g><g id="__id628_s4kiwarzhs"><path d="M17.7,149.7c4.6,0,4.6-7.2,0-7.2S13.1,149.7,17.7,149.7L17.7,149.7z" style="fill: rgb(122, 114, 96);"></path></g></g><g><g id="__id629_s4kiwarzhs"><path d="M118.9,169.1c4.6,0,4.6-7.2,0-7.2S114.3,169.1,118.9,169.1L118.9,169.1z" style="fill: rgb(122, 114, 96);"></path></g></g><g><g id="__id630_s4kiwarzhs"><path d="M170.9,145.9c4.6,0,4.6-7.2,0-7.2C166.3,138.7,166.3,145.9,170.9,145.9L170.9,145.9z" style="fill: rgb(122, 114, 96);"></path></g></g><g><g id="__id631_s4kiwarzhs"><path d="M129.4,301.1c4.6,0,4.6-7.2,0-7.2C124.8,293.8,124.8,301.1,129.4,301.1L129.4,301.1z" style="fill: rgb(122, 114, 96);"></path></g></g><g><g id="__id632_s4kiwarzhs"><path d="M307.9,184.4c4.6,0,4.6-7.2,0-7.2C303.1,177.2,303.1,184.4,307.9,184.4L307.9,184.4z" style="fill: rgb(122, 114, 96);"></path></g></g><g><g id="__id633_s4kiwarzhs"><path d="M319.4,97.6c4.6,0,4.6-7.2,0-7.2C314.7,90.4,314.7,97.6,319.4,97.6L319.4,97.6z" style="fill: rgb(122, 114, 96);"></path></g></g><g><g id="__id634_s4kiwarzhs"><path d="M377.3,25.3c4.6,0,4.6-7.2,0-7.2C372.5,18.1,372.5,25.3,377.3,25.3L377.3,25.3z" style="fill: rgb(122, 114, 96);"></path></g></g><g><g id="__id635_s4kiwarzhs"><path d="M243.2,38.9c4.6,0,4.6-7.2,0-7.2C238.6,31.7,238.6,38.9,243.2,38.9L243.2,38.9z" style="fill: rgb(122, 114, 96);"></path></g></g><g><g id="__id636_s4kiwarzhs"><path d="M182.5,54.3c4.6,0,4.6-7.2,0-7.2C177.9,47,177.9,54.3,182.5,54.3L182.5,54.3z" style="fill: rgb(122, 114, 96);"></path></g></g><g><g id="__id637_s4kiwarzhs"><path d="M239.3,123.7c4.6,0,4.6-7.2,0-7.2S234.7,123.7,239.3,123.7L239.3,123.7z" style="fill: rgb(122, 114, 96);"></path></g></g></svg>