<?xml version="1.0" encoding="utf-8"?>
<!-- Generator: Adobe Illustrator 26.0.1, SVG Export Plug-In . SVG Version: 6.00 Build 0)  -->
<svg version="1.1" id="Capa_1" xmlns="http://www.w3.org/2000/svg" xmlns:xlink="http://www.w3.org/1999/xlink" x="0px" y="0px"
	 viewBox="0 0 150 150" style="enable-background:new 0 0 150 150;" xml:space="preserve">
<style type="text/css">
	.st0{fill-rule:evenodd;clip-rule:evenodd;fill:#333333;}
</style>
<g id="camera_1_">
	<path class="st0" d="M40.7,40.3c0.3-2.1-0.5-3.3-0.3-5.3c3.3-2.8,9.9-1,9.9,3.7c6.6,1.4,6.9-5.9,11.1-8c2-1,4.4-1.2,7.1-1.4
		c6.3-0.4,13.2-2.3,20-1.1c3.7,0.7,8,3.9,10.1,5.9c2.9,2.8,4.2,6.9,10.9,5.9c0.6-2.4-0.2-5.5,1.2-7.8c0.6-0.3,0.8-0.1,1.4-0.1
		c7.2,0.1,3.9,6.2,5.5,10.4c1,2.6,3.7,3,4.8,5.4c2.7,5.5,2,14.7,1.5,23c-0.4,6.2,0.6,12.2,0,17.1c-0.6,5.2-2.6,10.9-4.9,14.9
		c-2.9,5-8.7,8.5-15.5,8.6c-15.6,0.2-33.8-1.8-50.3-3.1c-9.5-0.8-21.8-4.4-23.6-11c-2-7.2-0.9-20.8-0.3-29.2
		c0.4-4.7,1.1-10.1,2.4-14.4C33.7,47.6,35,41,40.7,40.3z M111.7,39c1.1,0.5,1.6,1.4,1.9,2.5c0.4,0,1,0.3,1.3,0.1
		C118.1,35.8,109.8,30.5,111.7,39z M73.4,30.6c-7.3,1-13.5,0.6-15.5,7.6c12.8-0.4,27.2,0.2,40.5,0.1C94.8,29.9,83.4,29.2,73.4,30.6z
		 M70.8,39.4c-8,0.2-15.9,0.3-22.5,1.1c-2.7,0.3-7.4,1.3-9.6,2.9c-5.8,4.1-7,19.1-7.2,27.8c-0.2,6.6-0.8,12.3-0.6,18.2
		c0.1,2.6,0.2,7,1.5,9.2c2.8,5,12.7,7.2,20.7,8.2c4,0.5,8.7,0.6,13.1,0.9c7.3,0.5,13.3,1.3,20.4,1.9c9,0.8,21.2,1.3,26.7-2.9
		c4.4-3.3,8.8-11.7,9.1-19c0.3-7.8-0.1-17.1,0.3-26.3c0.1-2.2,0-4.8-0.2-6.9c-1.1-10.8-12-12.6-23.7-14.1
		C89,39.1,80.3,39.3,70.8,39.4z M47.4,38.4c0.9-4.6-8-2.9-4.3,1.1C44.6,39.3,46.4,39.4,47.4,38.4z"/>
	<path class="st0" d="M40.9,52.8c-1.3-1.8-0.2-5.2-0.8-7.4c2.3-1.9,9.6-2.3,10.9,1.5C53.3,53.6,45.5,53.5,40.9,52.8z M43,46.4
		c-0.4,1.5-1.2,3.6-0.4,4.7c2.1,0.2,3.7-0.3,5.7-0.3C51.3,46.8,45.6,44.3,43,46.4z"/>
	<path class="st0" d="M103.5,80.1c-4.7,13.6-15.3,24-32.2,20.4c-5.7-1.2-12.1-4.6-15.5-8.8c-8.7-10.5-3.2-33.1,8.7-38.4
		c5-2.2,12.7-2,19.1-1.6c0.6,0,1.4-0.5,1.9-0.5c1,0.2,0.9,1.1,1.5,1.5c2.6,1.8,5.9,2.3,8.3,4C102,61.4,102.8,70.9,103.5,80.1z
		 M76.3,53.3c-0.4,0.8-0.7,1.7-0.9,2.8c2.7,0.7,4.9-0.5,7.6-0.3c0.3-0.8,0.9-1.8,0.5-2.5C81.2,52.8,78.3,52.7,76.3,53.3z M85.3,56.3
		c1.2,0.6,2.7,1,3.9,1.7c0.6-0.3,1.3-1.1,1.1-2C89.3,55.1,84.7,52.8,85.3,56.3z M68.7,56.9c2.2,0.7,3.3-0.3,4.7-0.7
		c0.2-0.9,0.8-2.1,0.3-2.6C71.6,54,65.8,53.9,68.7,56.9z M97.1,61.4c0.1-1.7-4.9-6.7-5.8-2.1C91.6,60.8,96.9,65.1,97.1,61.4z
		 M63.8,61.1c-8.1,7.7-5.8,24.8,3.2,28.1c11.1,4.2,22,1.4,26.9-7c6-10.3,1.2-23.1-9.9-24.5C76.8,56.8,67.2,57.9,63.8,61.1z
		 M64.3,58.8c0.9,0.1,1.7-0.8,2.3-1.5C65.3,53,59.6,58.1,64.3,58.8z M100.5,69c0.5-1.4-1.4-5.4-2.2-5.3
		C94.1,63.8,99.2,72.5,100.5,69z M58.3,61.5c1.3,2.3,3.6,0,4-1.8C60.9,57.7,59,60.1,58.3,61.5z M54.9,68.7c1,0.2,1.9,0.1,2.7-0.1
		c0.6-1.3,1.3-2.5,1.6-4.2C56.4,62.2,55.2,66.4,54.9,68.7z M98,72.5c-0.2,1.9,0,3.6,0,5.4c0.9,0.3,2.3,0.8,3.3,0.7
		C102.1,75.4,101.7,68.9,98,72.5z M53.9,71.4c-0.6,1.6-0.6,4-0.2,5.5c0.9,0.3,2.3,0.6,3.1,0.6c-0.1-2.2,0.5-4.5,0.5-6.6
		C55.9,70.7,54.9,71,53.9,71.4z M97.3,79.7c-0.6,0.1-3.8,6.4-3.8,6.4c-0.1,1.5,2,2.5,3,3.3c1.9-2.1,3.8-5,4.3-8.6
		C99.8,81,98.4,79.5,97.3,79.7z M54.1,79.2c-0.2,2.3-0.2,4.5,0.9,5.9C58.3,84,58.4,75.8,54.1,79.2z M95.3,91.1
		c0-0.8-2.6-3.3-3.5-3.4c-2-0.2-4.4,3.9-6.2,4.2c0.2,1.9,0.5,3.8,1.6,5.1C88.8,96,95.2,93.9,95.3,91.1z M61.7,88.3
		c-0.1-3.1-5.3-4.6-6-0.8c-0.3,1.9,2.1,3.5,3.6,4.7C60,91.1,61.8,89.9,61.7,88.3z M83.3,92.9c-2.4-0.1-3.8,1.1-6.4,0.7
		c-0.3,1.7-1.2,4-1,5.3C81.7,100.5,87.3,98,83.3,92.9z M61.3,94c0.9,0.7,1.7,1.5,3.1,1.8c0.9-1.1,1.7-2.4,2.2-4.1
		C64.6,89.1,61.5,89.9,61.3,94z M67,97.1c1.7,0.9,3.8,1.4,6.2,1.8c1.1-1,1.7-4.1,1.2-5.5C70.6,90.9,66.4,92.2,67,97.1z"/>
	<path class="st0" d="M76.5,67.6c2.6-0.3,5.8,2.2,6.5,3.3c3.1,4.8-4,11.7-7.6,11.2c-5.2-0.7-7.6-8.2-4.2-12.3
		C72,68.7,74.6,67.8,76.5,67.6z M72.5,71.7c-2.2,3.4-0.2,8.1,3.4,8.1c4.3,0,9.5-10.4,1.5-10.4C75.3,69.5,73.2,70.6,72.5,71.7z"/>
</g>
<path class="st0" d="M28.9,11.8c2.5-1.7,7.2-0.7,7.6,3c0.3,3.1-2.9,6.6-2.6,9.6c0.1,0.9,0.8,1.7,0.1,2.2c-0.8,0.6-3.9-0.6-4.7-0.8
	c-2.3-0.5-5.8-0.6-7.3-2.5c-1.9-2.5-0.5-6.1,2.2-6.9c0.7-0.2,1.5,0.4,2.1,0c0.6-0.4,0.3-1.9,0.6-2.5C27.2,13.2,27.8,12.5,28.9,11.8z
	 M34.8,14.5c-1.3-3.2-6-2.5-6.8,0.5c-0.2,0.8,1.2,3.6,0.4,4.1c-1,0.7-2.9-1.3-4-0.9c-1.6,0.4-2,2.2-1.9,3.1c0.7,3.6,7.5,3.2,10,3.7
	C32,21.3,36.2,18.1,34.8,14.5z"/>
</svg>
