<?xml version="1.0" encoding="utf-8"?>
<!-- Generator: Adobe Illustrator 26.0.1, SVG Export Plug-In . SVG Version: 6.00 Build 0)  -->
<svg version="1.1" id="Capa_1" xmlns="http://www.w3.org/2000/svg" xmlns:xlink="http://www.w3.org/1999/xlink" x="0px" y="0px"
	 viewBox="0 0 150 150" style="enable-background:new 0 0 150 150;" xml:space="preserve">
<style type="text/css">
	.st0{fill-rule:evenodd;clip-rule:evenodd;fill:#333333;}
</style>
<g id="heart_1_">
	<path class="st0" d="M81.8,26.3c-1.4,3.7-1.6,8.7-3.1,12.2C74.8,35.7,79.3,28.3,81.8,26.3z"/>
	<path class="st0" d="M58.7,31.4c2.3,1.3,1.7,6.4,0.9,8.5C58.8,38.1,56.8,33.3,58.7,31.4z"/>
	<path class="st0" d="M100.8,33.7c-0.7,2.8-2.4,4.5-4,6.3c-1,0.1-0.9-0.9-1.4-1.1C96.3,36.4,98,33.2,100.8,33.7z"/>
	<path class="st0" d="M40.8,47.6c-1.8-2.4-4.6-4-6-6.8C38,40.7,41.2,44.2,40.8,47.6z"/>
	<path class="st0" d="M72.4,59.6c7.2-12.6,31.9-12.7,32.4,4.6c0.2,6.8-4.7,12.9-8.5,16.5c-6.4,6-17.2,10.7-23.6,15.9
		c-1.3,1-3.1,4.6-4.8,4.6c-2.4-0.1-8.8-7.7-10.5-9.1c-7.2-6.1-18.8-11.7-15.6-27.3C44.4,50.9,63.9,46.8,72.4,59.6z M102.6,64.1
		c-0.6-14.6-22.3-14.2-27.3-3.7c-1,2,0,5-3.1,5.1c-2.8-15.4-25-15.2-28.2-1.1C39.3,84.6,60.4,88,68.4,97.7
		C76.4,86.4,103.4,83.4,102.6,64.1z"/>
	<path class="st0" d="M123.9,57c-1.3,1.5-5.9,3.6-7.4,1.4C117.2,56.4,122.2,55.3,123.9,57z"/>
	<path class="st0" d="M29.7,62.7c-2.3-1.6-7.3-0.7-8.8-3.1C23.2,57.2,28.7,60.2,29.7,62.7z"/>
	<path class="st0" d="M123.6,83.8c-2.7-2-8.2-1.1-9.4-4.6C117.7,79.2,122.6,80.3,123.6,83.8z"/>
	<path class="st0" d="M31.4,83.8c-3.3,0-8,2.2-10.5,0.3C21.6,81.1,30.3,81.9,31.4,83.8z"/>
	<path class="st0" d="M99.7,113.6c-3.2-1.1-5-3.5-6.5-6.3C95.5,104.9,99.2,111.6,99.7,113.6z"/>
	<path class="st0" d="M44.5,107.1c0.1,2.2-4,6.2-6.5,4C38.8,108.4,41.9,108,44.5,107.1z"/>
	<path class="st0" d="M70.1,118.8c0.7,3-0.8,10.2-4.6,9.7C65.8,125.1,68.3,121.5,70.1,118.8z"/>
</g>
</svg>
