<?xml version="1.0" encoding="utf-8"?>
<!-- Generator: Adobe Illustrator 26.0.1, SVG Export Plug-In . SVG Version: 6.00 Build 0)  -->
<svg version="1.1" id="Capa_1" xmlns="http://www.w3.org/2000/svg" xmlns:xlink="http://www.w3.org/1999/xlink" x="0px" y="0px"
	 viewBox="0 0 150 150.5" style="enable-background:new 0 0 150 150.5;" xml:space="preserve">
<style type="text/css">
	.st0{fill-rule:evenodd;clip-rule:evenodd;fill:#333333;}
</style>
<path id="balloon_2_" class="st0" d="M84.2,121.2c1.9,1.7-0.1,5-2.2,5.8c-2,0.8-7.1,2-10.1,2.1c-2.4,0-4.8-0.8-5.7-2.2
	c-0.5-0.7-0.2-1.6-0.5-2.2c-0.8-1.9-3.3-3.1-2.5-6.5c-1.5-0.9-1.5-2.9-2.2-4.7c-0.5-1.5-1.9-3.2-2.3-5.2C56.2,97.9,55,85.6,53,74.8
	c-0.9-4.9-1.7-10.1-2.7-14.9c-1-4.9-1.4-10.6-3-14.6c-1.6-4.1-5.2-6.7-4.9-12.6c0.2-4.5,2.2-8.1,4-10.9c3.8-6,13.1-12.3,22.6-8.2
	c3.4,1.5,5.8,4.8,7.3,8c4.6-4.4,10.1-6.5,17.9-6c7.5,0.5,12.9,5.1,15.2,9.7c1.8,3.6,3.1,9.7,2.1,15.1c-0.6,3.3-3.6,6.8-5.5,9
	c-1.9,2.3-3.4,3-4.8,6.1C98.6,61.4,96.6,69,95,76.2c-1.8,7.6-3.9,14.9-5.3,21.8c-0.7,3.2,0.1,5.6-0.9,8.3c-0.3,0.7-0.9,1.4-1,2.1
	c-0.4,1.7,0.5,3.6,0.2,4.9c-0.2,1.1-1.4,1.6-1.7,2.5C85.7,117.9,86.4,120.1,84.2,121.2z M69.2,15.2c-7.1-4.1-15.4,0-19.2,3.9
	c-2.8,2.8-6,7.5-6.3,13.1c-0.3,5.5,2.5,8.2,4.8,11.7c4.7,7.3,12.2,12.1,17.9,18.6c1.2,1.4,2.9,5.1,4.3,5.3c0.8,0.1,3.2-1.6,4.3-2.2
	c4.3-2.3,8.9-4.3,12.9-6.5c8.4-4.9,16.8-7,21-16.3c2.9-6.5,0.8-15.9-2.9-20c-7.4-8.2-26-7.8-30.4,2.1c-0.6,0.1-1,0.9-1.6,0.6
	C76.1,20.3,72.3,17,69.2,15.2z M91.4,59c-1.6,14.3-5.2,28.5-7.3,41.1c1,0.2,2.6,0.3,3.7,0.2C91.6,85,96,68.6,99.9,54.5
	C96.7,55.5,94,57.2,91.4,59z M54.7,76.5c1.2,6.8,2.3,14,3.3,21.1c0.2,1.8,0.6,6,1.7,6.6c1.8,1,4.7-0.6,6.2-0.7
	c-1.1-10.6-1.8-22.3-2.9-33.7c-0.3-3-0.5-8.4-1.9-10.6c-2.7-4.4-8.4-6.2-11.4-10.4c-0.1,0-0.2,0.1-0.2,0.3
	C51.3,57.4,53,67,54.7,76.5z M84.9,61.8c-0.8,0.3-3.6,1.6-3.9,2.1c-0.2,0.5,0.1,1.4,0,2.1c-0.7,11-2.5,24.5-3.2,35.5
	c1.6,0,3-0.3,4.3-0.8c3.3-12.4,7-27.3,7.4-40.8C88,60.6,86.6,61,84.9,61.8z M71,102.4c0.8-5.2,0.1-10.7,0-16.2
	c-0.2-5.4,0.3-13.5-2.5-16.8c-0.4-3.2-3-6.2-5.2-7.2c1.8,13.4,2,27.9,4.5,40.8C68.7,103.2,70.3,103.1,71,102.4z M74.9,67.3
	c-0.7,0.4-3.4,1.3-3.8,2.2c-0.5,1.2,0.4,4.7,0.6,6.5c0.8,8.6,0.6,17.9,1.3,26c1.2,0.1,2.1-0.1,3-0.4c1.7-11.8,4.1-25.4,3.3-36.6
	c-0.1,0-0.1,0-0.2,0C77.6,65.7,76.5,66.3,74.9,67.3z M86.4,107.5c0.4-0.4,2.6-4.3,1.3-4.8c-1.1-0.5-3,1.5-4.5,1.3
	C82.6,107.5,83.7,109.9,86.4,107.5z M76.6,105.4c-0.5,2,0.1,3.9,0.7,5.3c1.5-0.5,4.4-0.1,4.9-1.5c0.5-1.3-0.6-3.3-0.6-4.8
	C79.8,104.5,78.3,105.1,76.6,105.4z M67.6,106.3c-0.4,2.1-0.3,4.4,0.8,5.7c2.7,0.1,5.2-0.1,7.2-0.9c0.1-2.1-0.6-3.5-0.8-5.3
	C72.4,105.9,70.3,106.4,67.6,106.3z M60.2,106c-0.5,3.4,1.9,6.7,6.3,5.8c-0.1-1.9-0.4-3.7-0.7-5.4C64.1,106.1,61.8,105.9,60.2,106z
	 M83.6,110.6c-0.2,1.7-0.6,3.7-0.1,4.9C87.2,116.3,87.6,106.4,83.6,110.6z M77.1,112.4c0.1,1.5-0.1,3.2,0.6,4.2
	c1.3,0.1,3-0.3,4.2-0.7c0.3-1.5,0.5-3.6,0.3-4.9C80.4,111.4,78.6,111.7,77.1,112.4z M68.9,113.6c-1,5.1,3.4,3.6,7.1,3.4
	c0.2-1.4,0-3.1-0.3-4.3C73.5,113.1,71,113.1,68.9,113.6z M62.8,113.2c-1.2,2.9,2.2,4.8,5,4.1c0.2-1.2-0.2-2.6-0.6-3.6
	C66.2,113.3,64.1,113.1,62.8,113.2z M83.6,119.7c0.8-0.3,1.7-1.8,1.2-2.8C83.3,116.7,82.5,118.9,83.6,119.7z M77.8,121.9
	c1.4,0.1,2.8-0.8,4-1.4c0.1-1,0.3-2,0.1-2.6C79,117.1,76.7,118.7,77.8,121.9z M69.8,119.1c0.4,1.3,0.5,3.9,1.7,4.3
	c1.5,0.5,3.4-0.9,4.8-1.1c0.1-1.3,0.4-2.7-0.1-3.6C73.9,118.2,71.5,118.4,69.8,119.1z M69.5,123.2c-0.2-1.6-0.9-2.8-1.4-4.2
	C62.4,117.2,65.1,125.2,69.5,123.2z M82.8,124.3c1,0.1,1.3-2.1,0.2-2.2C82.7,122.8,82.6,123.8,82.8,124.3z M78.1,126.3
	c2.5,0.7,3.8-1.9,3.1-3.9C79.3,122.5,77,123.8,78.1,126.3z M72.9,127.4c1.4,0,2.7-0.1,3.5-0.9C78.1,121.7,68.7,124.9,72.9,127.4z
	 M67.2,124.9c-0.1,1.7,1.9,2.9,3.6,2.5c0-1.1-0.3-2-0.9-2.7C68.9,124.6,67.7,124.3,67.2,124.9z"/>
</svg>
